%TF.GenerationSoftware,KiCad,Pcbnew,10.0.3*%
%TF.CreationDate,2026-07-02T13:18:21-07:00*%
%TF.ProjectId,keyboardv4,6b657962-6f61-4726-9476-342e6b696361,rev?*%
%TF.SameCoordinates,Original*%
%TF.FileFunction,Copper,L1,Top*%
%TF.FilePolarity,Positive*%
%FSLAX46Y46*%
G04 Gerber Fmt 4.6, Leading zero omitted, Abs format (unit mm)*
G04 Created by KiCad (PCBNEW 10.0.3) date 2026-07-02 13:18:21*
%MOMM*%
%LPD*%
G01*
G04 APERTURE LIST*
G04 Aperture macros list*
%AMRoundRect*
0 Rectangle with rounded corners*
0 $1 Rounding radius*
0 $2 $3 $4 $5 $6 $7 $8 $9 X,Y pos of 4 corners*
0 Add a 4 corners polygon primitive as box body*
4,1,4,$2,$3,$4,$5,$6,$7,$8,$9,$2,$3,0*
0 Add four circle primitives for the rounded corners*
1,1,$1+$1,$2,$3*
1,1,$1+$1,$4,$5*
1,1,$1+$1,$6,$7*
1,1,$1+$1,$8,$9*
0 Add four rect primitives between the rounded corners*
20,1,$1+$1,$2,$3,$4,$5,0*
20,1,$1+$1,$4,$5,$6,$7,0*
20,1,$1+$1,$6,$7,$8,$9,0*
20,1,$1+$1,$8,$9,$2,$3,0*%
%AMFreePoly0*
4,1,37,0.603843,0.796157,0.639018,0.796157,0.711114,0.766294,0.766294,0.711114,0.796157,0.639018,0.796157,0.603843,0.800000,0.600000,0.800000,-0.600000,0.796157,-0.603843,0.796157,-0.639018,0.766294,-0.711114,0.711114,-0.766294,0.639018,-0.796157,0.603843,-0.796157,0.600000,-0.800000,0.000000,-0.800000,0.000000,-0.796148,-0.078414,-0.796148,-0.232228,-0.765552,-0.377117,-0.705537,
-0.507515,-0.618408,-0.618408,-0.507515,-0.705537,-0.377117,-0.765552,-0.232228,-0.796148,-0.078414,-0.796148,0.078414,-0.765552,0.232228,-0.705537,0.377117,-0.618408,0.507515,-0.507515,0.618408,-0.377117,0.705537,-0.232228,0.765552,-0.078414,0.796148,0.000000,0.796148,0.000000,0.800000,0.600000,0.800000,0.603843,0.796157,0.603843,0.796157,$1*%
%AMFreePoly1*
4,1,37,0.000000,0.796148,0.078414,0.796148,0.232228,0.765552,0.377117,0.705537,0.507515,0.618408,0.618408,0.507515,0.705537,0.377117,0.765552,0.232228,0.796148,0.078414,0.796148,-0.078414,0.765552,-0.232228,0.705537,-0.377117,0.618408,-0.507515,0.507515,-0.618408,0.377117,-0.705537,0.232228,-0.765552,0.078414,-0.796148,0.000000,-0.796148,0.000000,-0.800000,-0.600000,-0.800000,
-0.603843,-0.796157,-0.639018,-0.796157,-0.711114,-0.766294,-0.766294,-0.711114,-0.796157,-0.639018,-0.796157,-0.603843,-0.800000,-0.600000,-0.800000,0.600000,-0.796157,0.603843,-0.796157,0.639018,-0.766294,0.711114,-0.711114,0.766294,-0.639018,0.796157,-0.603843,0.796157,-0.600000,0.800000,0.000000,0.800000,0.000000,0.796148,0.000000,0.796148,$1*%
G04 Aperture macros list end*
%TA.AperFunction,ComponentPad*%
%ADD10C,2.032000*%
%TD*%
%TA.AperFunction,ComponentPad*%
%ADD11C,1.600000*%
%TD*%
%TA.AperFunction,ComponentPad*%
%ADD12RoundRect,0.250000X0.550000X0.550000X-0.550000X0.550000X-0.550000X-0.550000X0.550000X-0.550000X0*%
%TD*%
%TA.AperFunction,ComponentPad*%
%ADD13RoundRect,0.200000X0.600000X-0.600000X0.600000X0.600000X-0.600000X0.600000X-0.600000X-0.600000X0*%
%TD*%
%TA.AperFunction,ComponentPad*%
%ADD14FreePoly0,90.000000*%
%TD*%
%TA.AperFunction,ComponentPad*%
%ADD15FreePoly1,90.000000*%
%TD*%
%TA.AperFunction,ViaPad*%
%ADD16C,0.600000*%
%TD*%
%TA.AperFunction,Conductor*%
%ADD17C,0.200000*%
%TD*%
G04 APERTURE END LIST*
D10*
%TO.P,SW57,2,2_2*%
%TO.N,/C4*%
X113800000Y-118100000D03*
%TO.P,SW57,1,1_1*%
%TO.N,Net-(D57-A)*%
X118800000Y-120200000D03*
%TD*%
%TO.P,SW59,2,2_2*%
%TO.N,/C6*%
X163300000Y-118100000D03*
%TO.P,SW59,1,1_1*%
%TO.N,Net-(D59-A)*%
X168300000Y-120200000D03*
%TD*%
%TO.P,SW60,2,2_2*%
%TO.N,/C7*%
X179500000Y-118100000D03*
%TO.P,SW60,1,1_1*%
%TO.N,Net-(D60-A)*%
X184500000Y-120200000D03*
%TD*%
%TO.P,SW62,2,2_2*%
%TO.N,/C9*%
X211899999Y-118100000D03*
%TO.P,SW62,1,1_1*%
%TO.N,Net-(D62-A)*%
X216899999Y-120200000D03*
%TD*%
%TO.P,SW61,2,2_2*%
%TO.N,/C8*%
X195699999Y-118100000D03*
%TO.P,SW61,1,1_1*%
%TO.N,Net-(D61-A)*%
X200699999Y-120200000D03*
%TD*%
%TO.P,SW58,2,2_2*%
%TO.N,/C5*%
X144400000Y-118100000D03*
%TO.P,SW58,1,1_1*%
%TO.N,Net-(D58-A)*%
X149400000Y-120200000D03*
%TD*%
D11*
%TO.P,D61,2,A_2*%
%TO.N,Net-(D61-A)*%
X197079999Y-123400000D03*
D12*
%TO.P,D61,1,K_1*%
%TO.N,/R5*%
X204699999Y-123400000D03*
%TD*%
D11*
%TO.P,D58,2,A_2*%
%TO.N,Net-(D58-A)*%
X145780000Y-123400000D03*
D12*
%TO.P,D58,1,K_1*%
%TO.N,/R5*%
X153400000Y-123400000D03*
%TD*%
D11*
%TO.P,D60,2,A_2*%
%TO.N,Net-(D60-A)*%
X180880000Y-123400000D03*
D12*
%TO.P,D60,1,K_1*%
%TO.N,/R5*%
X188500000Y-123400000D03*
%TD*%
D11*
%TO.P,D59,2,A_2*%
%TO.N,Net-(D59-A)*%
X164680000Y-123400000D03*
D12*
%TO.P,D59,1,K_1*%
%TO.N,/R5*%
X172300000Y-123400000D03*
%TD*%
D11*
%TO.P,D62,2,A_2*%
%TO.N,Net-(D62-A)*%
X213279999Y-123400000D03*
D12*
%TO.P,D62,1,K_1*%
%TO.N,/R5*%
X220899999Y-123400000D03*
%TD*%
D13*
%TO.P,A1,1,GPIO0_1*%
%TO.N,/C1*%
X276230000Y-127290000D03*
D11*
%TO.P,A1,2,GPIO1_2*%
%TO.N,/C2*%
X273690000Y-127290000D03*
D14*
%TO.P,A1,3,GND_3*%
%TO.N,Net-(A1-GND-Pad13)*%
X271150000Y-127290000D03*
D11*
%TO.P,A1,4,GPIO2_4*%
%TO.N,/C3*%
X268610000Y-127290000D03*
%TO.P,A1,5,GPIO3_5*%
%TO.N,/C4*%
X266070000Y-127290000D03*
%TO.P,A1,6,GPIO4_6*%
%TO.N,/C5*%
X263530000Y-127290000D03*
%TO.P,A1,7,GPIO5_7*%
%TO.N,/C6*%
X260990000Y-127290000D03*
D14*
%TO.P,A1,8,GND_8*%
%TO.N,Net-(A1-GND-Pad13)*%
X258450000Y-127290000D03*
D11*
%TO.P,A1,9,GPIO6_9*%
%TO.N,/C7*%
X255910000Y-127290000D03*
%TO.P,A1,10,GPIO7_10*%
%TO.N,/C8*%
X253370000Y-127290000D03*
%TO.P,A1,11,GPIO8_11*%
%TO.N,/C9*%
X250830000Y-127290000D03*
%TO.P,A1,12,GPIO9_12*%
%TO.N,/C10*%
X248290000Y-127290000D03*
D14*
%TO.P,A1,13,GND_13*%
%TO.N,Net-(A1-GND-Pad13)*%
X245750000Y-127290000D03*
D11*
%TO.P,A1,14,GPIO10_14*%
%TO.N,/C11*%
X243210000Y-127290000D03*
%TO.P,A1,15,GPIO11_15*%
%TO.N,unconnected-(A1-GPIO11-Pad15)*%
X240670000Y-127290000D03*
%TO.P,A1,16,GPIO12_16*%
%TO.N,unconnected-(A1-GPIO12-Pad16)*%
X238130000Y-127290000D03*
%TO.P,A1,17,GPIO13_17*%
%TO.N,unconnected-(A1-GPIO13-Pad17)*%
X235590000Y-127290000D03*
D14*
%TO.P,A1,18,GND_18*%
%TO.N,Net-(A1-GND-Pad13)*%
X233050000Y-127290000D03*
D11*
%TO.P,A1,19,GPIO14_19*%
%TO.N,unconnected-(A1-GPIO14-Pad19)*%
X230510000Y-127290000D03*
%TO.P,A1,20,GPIO15_20*%
%TO.N,/R5*%
X227970000Y-127290000D03*
%TO.P,A1,21,GPIO16_21*%
%TO.N,/C13*%
X227970000Y-109510000D03*
%TO.P,A1,22,GPIO17_22*%
%TO.N,/C14*%
X230510000Y-109510000D03*
D15*
%TO.P,A1,23,GND_23*%
%TO.N,Net-(A1-GND-Pad13)*%
X233050000Y-109510000D03*
D11*
%TO.P,A1,24,GPIO18_24*%
%TO.N,/R1*%
X235590000Y-109510000D03*
%TO.P,A1,25,GPIO19_25*%
%TO.N,/R2*%
X238130000Y-109510000D03*
%TO.P,A1,26,GPIO20_26*%
%TO.N,/R3*%
X240670000Y-109510000D03*
%TO.P,A1,27,GPIO21_27*%
%TO.N,/R4*%
X243210000Y-109510000D03*
D15*
%TO.P,A1,28,GND_28*%
%TO.N,Net-(A1-GND-Pad13)*%
X245750000Y-109510000D03*
D11*
%TO.P,A1,29,GPIO22_29*%
%TO.N,/C12*%
X248290000Y-109510000D03*
%TO.P,A1,30,RUN_30*%
%TO.N,unconnected-(A1-RUN-Pad30)*%
X250830000Y-109510000D03*
%TO.P,A1,31,GPIO26_ADC0_31*%
%TO.N,unconnected-(A1-GPIO26_ADC0-Pad31)*%
X253370000Y-109510000D03*
%TO.P,A1,32,GPIO27_ADC1_32*%
%TO.N,unconnected-(A1-GPIO27_ADC1-Pad32)*%
X255910000Y-109510000D03*
D15*
%TO.P,A1,33,AGND_33*%
%TO.N,unconnected-(A1-AGND-Pad33)*%
X258450000Y-109510000D03*
D11*
%TO.P,A1,34,GPIO28_ADC2_34*%
%TO.N,unconnected-(A1-GPIO28_ADC2-Pad34)*%
X260990000Y-109510000D03*
%TO.P,A1,35,ADC_VREF_35*%
%TO.N,unconnected-(A1-ADC_VREF-Pad35)*%
X263530000Y-109510000D03*
%TO.P,A1,36,3V3_36*%
%TO.N,unconnected-(A1-3V3-Pad36)*%
X266070000Y-109510000D03*
%TO.P,A1,37,3V3_EN_37*%
%TO.N,unconnected-(A1-3V3_EN-Pad37)*%
X268610000Y-109510000D03*
D15*
%TO.P,A1,38,GND_38*%
%TO.N,Net-(A1-GND-Pad13)*%
X271150000Y-109510000D03*
D11*
%TO.P,A1,39,VSYS_39*%
%TO.N,unconnected-(A1-VSYS-Pad39)*%
X273690000Y-109510000D03*
%TO.P,A1,40,VBUS_40*%
%TO.N,unconnected-(A1-VBUS-Pad40)*%
X276230000Y-109510000D03*
%TD*%
D12*
%TO.P,D2,1,K_1*%
%TO.N,/R1*%
X58000000Y-47100000D03*
D11*
%TO.P,D2,2,A_2*%
%TO.N,Net-(D2-A)*%
X50380000Y-47100000D03*
%TD*%
D12*
%TO.P,D19,1,K_1*%
%TO.N,/R2*%
X115600000Y-66150000D03*
D11*
%TO.P,D19,2,A_2*%
%TO.N,Net-(D19-A)*%
X107980000Y-66150000D03*
%TD*%
D10*
%TO.P,SW3,1,1_1*%
%TO.N,Net-(D3-A)*%
X72000000Y-44000000D03*
%TO.P,SW3,2,2_2*%
%TO.N,/C3*%
X67000000Y-41900000D03*
%TD*%
D12*
%TO.P,D22,1,K_1*%
%TO.N,/R2*%
X169600000Y-66150000D03*
D11*
%TO.P,D22,2,A_2*%
%TO.N,Net-(D22-A)*%
X161980000Y-66150000D03*
%TD*%
D12*
%TO.P,D43,1,K_1*%
%TO.N,/R4*%
X76000000Y-104250000D03*
D11*
%TO.P,D43,2,A_2*%
%TO.N,Net-(D43-A)*%
X68380000Y-104250000D03*
%TD*%
D12*
%TO.P,D9,1,K_1*%
%TO.N,/R1*%
X184000000Y-47100000D03*
D11*
%TO.P,D9,2,A_2*%
%TO.N,Net-(D9-A)*%
X176380000Y-47100000D03*
%TD*%
D10*
%TO.P,SW19,1,1_1*%
%TO.N,Net-(D19-A)*%
X111600000Y-63050000D03*
%TO.P,SW19,2,2_2*%
%TO.N,/C5*%
X106600000Y-60950000D03*
%TD*%
%TO.P,SW31,1,1_1*%
%TO.N,Net-(D31-A)*%
X79200000Y-82100000D03*
%TO.P,SW31,2,2_2*%
%TO.N,/C3*%
X74200000Y-80000000D03*
%TD*%
%TO.P,SW41,1,1_1*%
%TO.N,Net-(D41-A)*%
X262800000Y-82100000D03*
%TO.P,SW41,2,2_2*%
%TO.N,/C13*%
X257800000Y-80000000D03*
%TD*%
%TO.P,SW32,1,1_1*%
%TO.N,Net-(D32-A)*%
X97200000Y-82100000D03*
%TO.P,SW32,2,2_2*%
%TO.N,/C4*%
X92200000Y-80000000D03*
%TD*%
%TO.P,SW8,1,1_1*%
%TO.N,Net-(D8-A)*%
X162000000Y-44000000D03*
%TO.P,SW8,2,2_2*%
%TO.N,/C8*%
X157000000Y-41900000D03*
%TD*%
%TO.P,SW46,1,1_1*%
%TO.N,Net-(D46-A)*%
X126000000Y-101150000D03*
%TO.P,SW46,2,2_2*%
%TO.N,/C5*%
X121000000Y-99050000D03*
%TD*%
D12*
%TO.P,D35,1,K_1*%
%TO.N,/R3*%
X155200000Y-85200000D03*
D11*
%TO.P,D35,2,A_2*%
%TO.N,Net-(D35-A)*%
X147580000Y-85200000D03*
%TD*%
D10*
%TO.P,SW40,1,1_1*%
%TO.N,Net-(D40-A)*%
X238500000Y-82100000D03*
%TO.P,SW40,2,2_2*%
%TO.N,/C12*%
X233500000Y-80000000D03*
%TD*%
%TO.P,SW13,1,1_1*%
%TO.N,Net-(D13-A)*%
X249300000Y-44000000D03*
%TO.P,SW13,2,2_2*%
%TO.N,/C13*%
X244300000Y-41900000D03*
%TD*%
D12*
%TO.P,D1,1,K_1*%
%TO.N,/R1*%
X40000000Y-47100000D03*
D11*
%TO.P,D1,2,A_2*%
%TO.N,Net-(D1-A)*%
X32380000Y-47100000D03*
%TD*%
D10*
%TO.P,SW12,1,1_1*%
%TO.N,Net-(D12-A)*%
X233100000Y-44000000D03*
%TO.P,SW12,2,2_2*%
%TO.N,/C12*%
X228100000Y-41900000D03*
%TD*%
%TO.P,SW7,1,1_1*%
%TO.N,Net-(D7-A)*%
X144000000Y-44000000D03*
%TO.P,SW7,2,2_2*%
%TO.N,/C7*%
X139000000Y-41900000D03*
%TD*%
D12*
%TO.P,D40,1,K_1*%
%TO.N,/R3*%
X242500000Y-85200000D03*
D11*
%TO.P,D40,2,A_2*%
%TO.N,Net-(D40-A)*%
X234880000Y-85200000D03*
%TD*%
D12*
%TO.P,D46,1,K_1*%
%TO.N,/R4*%
X130000000Y-104250000D03*
D11*
%TO.P,D46,2,A_2*%
%TO.N,Net-(D46-A)*%
X122380000Y-104250000D03*
%TD*%
D12*
%TO.P,D51,1,K_1*%
%TO.N,/R4*%
X220000000Y-104250000D03*
D11*
%TO.P,D51,2,A_2*%
%TO.N,Net-(D51-A)*%
X212380000Y-104250000D03*
%TD*%
D12*
%TO.P,D45,1,K_1*%
%TO.N,/R4*%
X112000000Y-104250000D03*
D11*
%TO.P,D45,2,A_2*%
%TO.N,Net-(D45-A)*%
X104380000Y-104250000D03*
%TD*%
D12*
%TO.P,D4,1,K_1*%
%TO.N,/R1*%
X94000000Y-47100000D03*
D11*
%TO.P,D4,2,A_2*%
%TO.N,Net-(D4-A)*%
X86380000Y-47100000D03*
%TD*%
D12*
%TO.P,D25,1,K_1*%
%TO.N,/R2*%
X223600000Y-66150000D03*
D11*
%TO.P,D25,2,A_2*%
%TO.N,Net-(D25-A)*%
X215980000Y-66150000D03*
%TD*%
D12*
%TO.P,D38,1,K_1*%
%TO.N,/R3*%
X209200000Y-85200000D03*
D11*
%TO.P,D38,2,A_2*%
%TO.N,Net-(D38-A)*%
X201580000Y-85200000D03*
%TD*%
D12*
%TO.P,D20,1,K_1*%
%TO.N,/R2*%
X133600000Y-66150000D03*
D11*
%TO.P,D20,2,A_2*%
%TO.N,Net-(D20-A)*%
X125980000Y-66150000D03*
%TD*%
D10*
%TO.P,SW16,1,1_1*%
%TO.N,Net-(D16-A)*%
X57600000Y-63050000D03*
%TO.P,SW16,2,2_2*%
%TO.N,/C2*%
X52600000Y-60950000D03*
%TD*%
D12*
%TO.P,D27,1,K_1*%
%TO.N,/R2*%
X256899999Y-66150000D03*
D11*
%TO.P,D27,2,A_2*%
%TO.N,Net-(D27-A)*%
X249279999Y-66150000D03*
%TD*%
D12*
%TO.P,D5,1,K_1*%
%TO.N,/R1*%
X112000000Y-47100000D03*
D11*
%TO.P,D5,2,A_2*%
%TO.N,Net-(D5-A)*%
X104380000Y-47100000D03*
%TD*%
D12*
%TO.P,D52,1,K_1*%
%TO.N,/R4*%
X238000000Y-104250000D03*
D11*
%TO.P,D52,2,A_2*%
%TO.N,Net-(D52-A)*%
X230380000Y-104250000D03*
%TD*%
D12*
%TO.P,D31,1,K_1*%
%TO.N,/R3*%
X83200000Y-85200000D03*
D11*
%TO.P,D31,2,A_2*%
%TO.N,Net-(D31-A)*%
X75580000Y-85200000D03*
%TD*%
D12*
%TO.P,D53,1,K_1*%
%TO.N,/R4*%
X265000000Y-104250000D03*
D11*
%TO.P,D53,2,A_2*%
%TO.N,Net-(D53-A)*%
X257380000Y-104250000D03*
%TD*%
D10*
%TO.P,SW56,1,1_1*%
%TO.N,Net-(D56-A)*%
X82800000Y-120200000D03*
%TO.P,SW56,2,2_2*%
%TO.N,/C3*%
X77800000Y-118100000D03*
%TD*%
D12*
%TO.P,D3,1,K_1*%
%TO.N,/R1*%
X76000000Y-47100000D03*
D11*
%TO.P,D3,2,A_2*%
%TO.N,Net-(D3-A)*%
X68380000Y-47100000D03*
%TD*%
D12*
%TO.P,D47,1,K_1*%
%TO.N,/R4*%
X148000000Y-104250000D03*
D11*
%TO.P,D47,2,A_2*%
%TO.N,Net-(D47-A)*%
X140380000Y-104250000D03*
%TD*%
D12*
%TO.P,D29,1,K_1*%
%TO.N,/R3*%
X43600000Y-85200000D03*
D11*
%TO.P,D29,2,A_2*%
%TO.N,Net-(D29-A)*%
X35980000Y-85200000D03*
%TD*%
D10*
%TO.P,SW49,1,1_1*%
%TO.N,Net-(D49-A)*%
X180000000Y-101150000D03*
%TO.P,SW49,2,2_2*%
%TO.N,/C8*%
X175000000Y-99050000D03*
%TD*%
%TO.P,SW54,1,1_1*%
%TO.N,Net-(D54-A)*%
X41400000Y-120200000D03*
%TO.P,SW54,2,2_2*%
%TO.N,/C1*%
X36400000Y-118100000D03*
%TD*%
%TO.P,SW20,1,1_1*%
%TO.N,Net-(D20-A)*%
X129600000Y-63050000D03*
%TO.P,SW20,2,2_2*%
%TO.N,/C6*%
X124600000Y-60950000D03*
%TD*%
%TO.P,SW44,1,1_1*%
%TO.N,Net-(D44-A)*%
X90000000Y-101150000D03*
%TO.P,SW44,2,2_2*%
%TO.N,/C3*%
X85000000Y-99050000D03*
%TD*%
D12*
%TO.P,D33,1,K_1*%
%TO.N,/R3*%
X119200000Y-85200000D03*
D11*
%TO.P,D33,2,A_2*%
%TO.N,Net-(D33-A)*%
X111580000Y-85200000D03*
%TD*%
D10*
%TO.P,SW1,1,1_1*%
%TO.N,Net-(D1-A)*%
X36000000Y-44000000D03*
%TO.P,SW1,2,2_2*%
%TO.N,/C1*%
X31000000Y-41900000D03*
%TD*%
D12*
%TO.P,D16,1,K_1*%
%TO.N,/R2*%
X61600000Y-66150000D03*
D11*
%TO.P,D16,2,A_2*%
%TO.N,Net-(D16-A)*%
X53980000Y-66150000D03*
%TD*%
D12*
%TO.P,D23,1,K_1*%
%TO.N,/R2*%
X187600000Y-66150000D03*
D11*
%TO.P,D23,2,A_2*%
%TO.N,Net-(D23-A)*%
X179980000Y-66150000D03*
%TD*%
D10*
%TO.P,SW50,1,1_1*%
%TO.N,Net-(D50-A)*%
X198000000Y-101150000D03*
%TO.P,SW50,2,2_2*%
%TO.N,/C9*%
X193000000Y-99050000D03*
%TD*%
D12*
%TO.P,D18,1,K_1*%
%TO.N,/R2*%
X97600000Y-66150000D03*
D11*
%TO.P,D18,2,A_2*%
%TO.N,Net-(D18-A)*%
X89980000Y-66150000D03*
%TD*%
D12*
%TO.P,D56,1,K_1*%
%TO.N,/R5*%
X86800000Y-123300000D03*
D11*
%TO.P,D56,2,A_2*%
%TO.N,Net-(D56-A)*%
X79180000Y-123300000D03*
%TD*%
D10*
%TO.P,SW28,1,1_1*%
%TO.N,Net-(D28-A)*%
X270000000Y-63050000D03*
%TO.P,SW28,2,2_2*%
%TO.N,/C14*%
X265000000Y-60950000D03*
%TD*%
%TO.P,SW43,1,1_1*%
%TO.N,Net-(D43-A)*%
X72000000Y-101150000D03*
%TO.P,SW43,2,2_2*%
%TO.N,/C2*%
X67000000Y-99050000D03*
%TD*%
D12*
%TO.P,D21,1,K_1*%
%TO.N,/R2*%
X151600000Y-66150000D03*
D11*
%TO.P,D21,2,A_2*%
%TO.N,Net-(D21-A)*%
X143980000Y-66150000D03*
%TD*%
D10*
%TO.P,SW37,1,1_1*%
%TO.N,Net-(D37-A)*%
X187200000Y-82100000D03*
%TO.P,SW37,2,2_2*%
%TO.N,/C9*%
X182200000Y-80000000D03*
%TD*%
%TO.P,SW5,1,1_1*%
%TO.N,Net-(D5-A)*%
X108000000Y-44000000D03*
%TO.P,SW5,2,2_2*%
%TO.N,/C5*%
X103000000Y-41900000D03*
%TD*%
D12*
%TO.P,D6,1,K_1*%
%TO.N,/R1*%
X130000000Y-47100000D03*
D11*
%TO.P,D6,2,A_2*%
%TO.N,Net-(D6-A)*%
X122380000Y-47100000D03*
%TD*%
D10*
%TO.P,SW30,1,1_1*%
%TO.N,Net-(D30-A)*%
X61200000Y-82100000D03*
%TO.P,SW30,2,2_2*%
%TO.N,/C2*%
X56200000Y-80000000D03*
%TD*%
%TO.P,SW4,1,1_1*%
%TO.N,Net-(D4-A)*%
X90000000Y-44000000D03*
%TO.P,SW4,2,2_2*%
%TO.N,/C4*%
X85000000Y-41900000D03*
%TD*%
%TO.P,SW14,1,1_1*%
%TO.N,Net-(D14-A)*%
X268200000Y-44000000D03*
%TO.P,SW14,2,2_2*%
%TO.N,/C14*%
X263200000Y-41900000D03*
%TD*%
D12*
%TO.P,D7,1,K_1*%
%TO.N,/R1*%
X148000000Y-47100000D03*
D11*
%TO.P,D7,2,A_2*%
%TO.N,Net-(D7-A)*%
X140380000Y-47100000D03*
%TD*%
D10*
%TO.P,SW10,1,1_1*%
%TO.N,Net-(D10-A)*%
X198000000Y-44000000D03*
%TO.P,SW10,2,2_2*%
%TO.N,/C10*%
X193000000Y-41900000D03*
%TD*%
D12*
%TO.P,D8,1,K_1*%
%TO.N,/R1*%
X166000000Y-47100000D03*
D11*
%TO.P,D8,2,A_2*%
%TO.N,Net-(D8-A)*%
X158380000Y-47100000D03*
%TD*%
D10*
%TO.P,SW52,1,1_1*%
%TO.N,Net-(D52-A)*%
X234000000Y-101150000D03*
%TO.P,SW52,2,2_2*%
%TO.N,/C11*%
X229000000Y-99050000D03*
%TD*%
D12*
%TO.P,D57,1,K_1*%
%TO.N,/R5*%
X122800000Y-123300000D03*
D11*
%TO.P,D57,2,A_2*%
%TO.N,Net-(D57-A)*%
X115180000Y-123300000D03*
%TD*%
D10*
%TO.P,SW38,1,1_1*%
%TO.N,Net-(D38-A)*%
X205200000Y-82100000D03*
%TO.P,SW38,2,2_2*%
%TO.N,/C10*%
X200200000Y-80000000D03*
%TD*%
%TO.P,SW35,1,1_1*%
%TO.N,Net-(D35-A)*%
X151200000Y-82100000D03*
%TO.P,SW35,2,2_2*%
%TO.N,/C7*%
X146200000Y-80000000D03*
%TD*%
%TO.P,SW51,1,1_1*%
%TO.N,Net-(D51-A)*%
X216000000Y-101150000D03*
%TO.P,SW51,2,2_2*%
%TO.N,/C10*%
X211000000Y-99050000D03*
%TD*%
D12*
%TO.P,D10,1,K_1*%
%TO.N,/R1*%
X202000000Y-47100000D03*
D11*
%TO.P,D10,2,A_2*%
%TO.N,Net-(D10-A)*%
X194380000Y-47100000D03*
%TD*%
D12*
%TO.P,D15,1,K_1*%
%TO.N,/R2*%
X41800000Y-66150000D03*
D11*
%TO.P,D15,2,A_2*%
%TO.N,Net-(D15-A)*%
X34180000Y-66150000D03*
%TD*%
D12*
%TO.P,D50,1,K_1*%
%TO.N,/R4*%
X202000000Y-104250000D03*
D11*
%TO.P,D50,2,A_2*%
%TO.N,Net-(D50-A)*%
X194380000Y-104250000D03*
%TD*%
D12*
%TO.P,D26,1,K_1*%
%TO.N,/R2*%
X240699999Y-66150000D03*
D11*
%TO.P,D26,2,A_2*%
%TO.N,Net-(D26-A)*%
X233079999Y-66150000D03*
%TD*%
D10*
%TO.P,SW53,1,1_1*%
%TO.N,Net-(D53-A)*%
X261000000Y-101150000D03*
%TO.P,SW53,2,2_2*%
%TO.N,/C12*%
X256000000Y-99050000D03*
%TD*%
%TO.P,SW48,1,1_1*%
%TO.N,Net-(D48-A)*%
X162000000Y-101150000D03*
%TO.P,SW48,2,2_2*%
%TO.N,/C7*%
X157000000Y-99050000D03*
%TD*%
D12*
%TO.P,D41,1,K_1*%
%TO.N,/R3*%
X266800000Y-85200000D03*
D11*
%TO.P,D41,2,A_2*%
%TO.N,Net-(D41-A)*%
X259180000Y-85200000D03*
%TD*%
D10*
%TO.P,SW34,1,1_1*%
%TO.N,Net-(D34-A)*%
X133200000Y-82100000D03*
%TO.P,SW34,2,2_2*%
%TO.N,/C6*%
X128200000Y-80000000D03*
%TD*%
D12*
%TO.P,D28,1,K_1*%
%TO.N,/R2*%
X274000000Y-66150000D03*
D11*
%TO.P,D28,2,A_2*%
%TO.N,Net-(D28-A)*%
X266380000Y-66150000D03*
%TD*%
D12*
%TO.P,D37,1,K_1*%
%TO.N,/R3*%
X191200000Y-85200000D03*
D11*
%TO.P,D37,2,A_2*%
%TO.N,Net-(D37-A)*%
X183580000Y-85200000D03*
%TD*%
D12*
%TO.P,D34,1,K_1*%
%TO.N,/R3*%
X137200000Y-85200000D03*
D11*
%TO.P,D34,2,A_2*%
%TO.N,Net-(D34-A)*%
X129580000Y-85200000D03*
%TD*%
D12*
%TO.P,D14,1,K_1*%
%TO.N,/R1*%
X272200000Y-47100000D03*
D11*
%TO.P,D14,2,A_2*%
%TO.N,Net-(D14-A)*%
X264580000Y-47100000D03*
%TD*%
D12*
%TO.P,D30,1,K_1*%
%TO.N,/R3*%
X65200000Y-85200000D03*
D11*
%TO.P,D30,2,A_2*%
%TO.N,Net-(D30-A)*%
X57580000Y-85200000D03*
%TD*%
D10*
%TO.P,SW15,1,1_1*%
%TO.N,Net-(D15-A)*%
X37800000Y-63050000D03*
%TO.P,SW15,2,2_2*%
%TO.N,/C1*%
X32800000Y-60950000D03*
%TD*%
D12*
%TO.P,D39,1,K_1*%
%TO.N,/R3*%
X226300000Y-85200000D03*
D11*
%TO.P,D39,2,A_2*%
%TO.N,Net-(D39-A)*%
X218680000Y-85200000D03*
%TD*%
D10*
%TO.P,SW39,1,1_1*%
%TO.N,Net-(D39-A)*%
X222300000Y-82100000D03*
%TO.P,SW39,2,2_2*%
%TO.N,/C11*%
X217300000Y-80000000D03*
%TD*%
D12*
%TO.P,D12,1,K_1*%
%TO.N,/R1*%
X237100000Y-47100000D03*
D11*
%TO.P,D12,2,A_2*%
%TO.N,Net-(D12-A)*%
X229480000Y-47100000D03*
%TD*%
D10*
%TO.P,SW55,1,1_1*%
%TO.N,Net-(D55-A)*%
X64800000Y-120200000D03*
%TO.P,SW55,2,2_2*%
%TO.N,/C2*%
X59800000Y-118100000D03*
%TD*%
D12*
%TO.P,D17,1,K_1*%
%TO.N,/R2*%
X79600000Y-66150000D03*
D11*
%TO.P,D17,2,A_2*%
%TO.N,Net-(D17-A)*%
X71980000Y-66150000D03*
%TD*%
D10*
%TO.P,SW27,1,1_1*%
%TO.N,Net-(D27-A)*%
X252899999Y-63050000D03*
%TO.P,SW27,2,2_2*%
%TO.N,/C13*%
X247899999Y-60950000D03*
%TD*%
%TO.P,SW9,1,1_1*%
%TO.N,Net-(D9-A)*%
X180000000Y-44000000D03*
%TO.P,SW9,2,2_2*%
%TO.N,/C9*%
X175000000Y-41900000D03*
%TD*%
D12*
%TO.P,D11,1,K_1*%
%TO.N,/R1*%
X220000000Y-47100000D03*
D11*
%TO.P,D11,2,A_2*%
%TO.N,Net-(D11-A)*%
X212380000Y-47100000D03*
%TD*%
D12*
%TO.P,D48,1,K_1*%
%TO.N,/R4*%
X166000000Y-104250000D03*
D11*
%TO.P,D48,2,A_2*%
%TO.N,Net-(D48-A)*%
X158380000Y-104250000D03*
%TD*%
D10*
%TO.P,SW25,1,1_1*%
%TO.N,Net-(D25-A)*%
X219600000Y-63050000D03*
%TO.P,SW25,2,2_2*%
%TO.N,/C11*%
X214600000Y-60950000D03*
%TD*%
D12*
%TO.P,D36,1,K_1*%
%TO.N,/R3*%
X173200000Y-85200000D03*
D11*
%TO.P,D36,2,A_2*%
%TO.N,Net-(D36-A)*%
X165580000Y-85200000D03*
%TD*%
D10*
%TO.P,SW26,1,1_1*%
%TO.N,Net-(D26-A)*%
X236699999Y-63050000D03*
%TO.P,SW26,2,2_2*%
%TO.N,/C12*%
X231699999Y-60950000D03*
%TD*%
D12*
%TO.P,D49,1,K_1*%
%TO.N,/R4*%
X184000000Y-104250000D03*
D11*
%TO.P,D49,2,A_2*%
%TO.N,Net-(D49-A)*%
X176380000Y-104250000D03*
%TD*%
D10*
%TO.P,SW42,1,1_1*%
%TO.N,Net-(D42-A)*%
X45000000Y-101150000D03*
%TO.P,SW42,2,2_2*%
%TO.N,/C1*%
X40000000Y-99050000D03*
%TD*%
D12*
%TO.P,D32,1,K_1*%
%TO.N,/R3*%
X101200000Y-85200000D03*
D11*
%TO.P,D32,2,A_2*%
%TO.N,Net-(D32-A)*%
X93580000Y-85200000D03*
%TD*%
D10*
%TO.P,SW21,1,1_1*%
%TO.N,Net-(D21-A)*%
X147600000Y-63050000D03*
%TO.P,SW21,2,2_2*%
%TO.N,/C7*%
X142600000Y-60950000D03*
%TD*%
%TO.P,SW23,1,1_1*%
%TO.N,Net-(D23-A)*%
X183600000Y-63050000D03*
%TO.P,SW23,2,2_2*%
%TO.N,/C9*%
X178600000Y-60950000D03*
%TD*%
%TO.P,SW36,1,1_1*%
%TO.N,Net-(D36-A)*%
X169200000Y-82100000D03*
%TO.P,SW36,2,2_2*%
%TO.N,/C8*%
X164200000Y-80000000D03*
%TD*%
D12*
%TO.P,D24,1,K_1*%
%TO.N,/R2*%
X205600000Y-66150000D03*
D11*
%TO.P,D24,2,A_2*%
%TO.N,Net-(D24-A)*%
X197980000Y-66150000D03*
%TD*%
D10*
%TO.P,SW6,1,1_1*%
%TO.N,Net-(D6-A)*%
X126000000Y-44000000D03*
%TO.P,SW6,2,2_2*%
%TO.N,/C6*%
X121000000Y-41900000D03*
%TD*%
D12*
%TO.P,D42,1,K_1*%
%TO.N,/R4*%
X49000000Y-104250000D03*
D11*
%TO.P,D42,2,A_2*%
%TO.N,Net-(D42-A)*%
X41380000Y-104250000D03*
%TD*%
D10*
%TO.P,SW17,1,1_1*%
%TO.N,Net-(D17-A)*%
X75600000Y-63050000D03*
%TO.P,SW17,2,2_2*%
%TO.N,/C3*%
X70600000Y-60950000D03*
%TD*%
%TO.P,SW29,1,1_1*%
%TO.N,Net-(D29-A)*%
X39600000Y-82100000D03*
%TO.P,SW29,2,2_2*%
%TO.N,/C1*%
X34600000Y-80000000D03*
%TD*%
%TO.P,SW2,1,1_1*%
%TO.N,Net-(D2-A)*%
X54000000Y-44000000D03*
%TO.P,SW2,2,2_2*%
%TO.N,/C2*%
X49000000Y-41900000D03*
%TD*%
D12*
%TO.P,D44,1,K_1*%
%TO.N,/R4*%
X94000000Y-104250000D03*
D11*
%TO.P,D44,2,A_2*%
%TO.N,Net-(D44-A)*%
X86380000Y-104250000D03*
%TD*%
D12*
%TO.P,D54,1,K_1*%
%TO.N,/R5*%
X45400000Y-123300000D03*
D11*
%TO.P,D54,2,A_2*%
%TO.N,Net-(D54-A)*%
X37780000Y-123300000D03*
%TD*%
D10*
%TO.P,SW11,1,1_1*%
%TO.N,Net-(D11-A)*%
X216000000Y-44000000D03*
%TO.P,SW11,2,2_2*%
%TO.N,/C11*%
X211000000Y-41900000D03*
%TD*%
%TO.P,SW33,1,1_1*%
%TO.N,Net-(D33-A)*%
X115200000Y-82100000D03*
%TO.P,SW33,2,2_2*%
%TO.N,/C5*%
X110200000Y-80000000D03*
%TD*%
D12*
%TO.P,D55,1,K_1*%
%TO.N,/R5*%
X68800000Y-123300000D03*
D11*
%TO.P,D55,2,A_2*%
%TO.N,Net-(D55-A)*%
X61180000Y-123300000D03*
%TD*%
D10*
%TO.P,SW24,1,1_1*%
%TO.N,Net-(D24-A)*%
X201600000Y-63050000D03*
%TO.P,SW24,2,2_2*%
%TO.N,/C10*%
X196600000Y-60950000D03*
%TD*%
D12*
%TO.P,D13,1,K_1*%
%TO.N,/R1*%
X253300000Y-47100000D03*
D11*
%TO.P,D13,2,A_2*%
%TO.N,Net-(D13-A)*%
X245680000Y-47100000D03*
%TD*%
D10*
%TO.P,SW45,1,1_1*%
%TO.N,Net-(D45-A)*%
X108000000Y-101150000D03*
%TO.P,SW45,2,2_2*%
%TO.N,/C4*%
X103000000Y-99050000D03*
%TD*%
%TO.P,SW47,1,1_1*%
%TO.N,Net-(D47-A)*%
X144000000Y-101150000D03*
%TO.P,SW47,2,2_2*%
%TO.N,/C6*%
X139000000Y-99050000D03*
%TD*%
%TO.P,SW22,1,1_1*%
%TO.N,Net-(D22-A)*%
X165600000Y-63050000D03*
%TO.P,SW22,2,2_2*%
%TO.N,/C8*%
X160600000Y-60950000D03*
%TD*%
%TO.P,SW18,1,1_1*%
%TO.N,Net-(D18-A)*%
X93600000Y-63050000D03*
%TO.P,SW18,2,2_2*%
%TO.N,/C4*%
X88600000Y-60950000D03*
%TD*%
D16*
%TO.N,/R1*%
X227900000Y-87000000D03*
X238100000Y-100800000D03*
%TO.N,/C14*%
X246400000Y-88600000D03*
X244675735Y-92024265D03*
%TO.N,/C13*%
X243300000Y-90800000D03*
X247900000Y-86900000D03*
%TO.N,/C11*%
X224500000Y-105950000D03*
%TO.N,/C10*%
X211000000Y-104750000D03*
%TO.N,/C9*%
X211900000Y-127600000D03*
X211900000Y-123900000D03*
%TO.N,/R2*%
X239700000Y-104750000D03*
X241824265Y-87475735D03*
%TO.N,/R3*%
X242500000Y-104700000D03*
%TD*%
%TO.N,/C5*%
D17*
X121000000Y-104425635D02*
X134674365Y-118100000D01*
X134674365Y-118100000D02*
X144400000Y-118100000D01*
X121000000Y-99050000D02*
X121000000Y-104425635D01*
%TO.N,Net-(D46-A)*%
X122900000Y-104250000D02*
X122380000Y-104250000D01*
X126000000Y-101150000D02*
X122900000Y-104250000D01*
%TO.N,/C12*%
X243700000Y-90200000D02*
X252550000Y-99050000D01*
X233500000Y-86200000D02*
X237500000Y-90200000D01*
X233500000Y-80000000D02*
X233500000Y-86200000D01*
X237500000Y-90200000D02*
X243700000Y-90200000D01*
%TO.N,Net-(D40-A)*%
X235400000Y-85200000D02*
X234880000Y-85200000D01*
X238500000Y-82100000D02*
X235400000Y-85200000D01*
%TO.N,Net-(D47-A)*%
X144000000Y-101150000D02*
X140900000Y-104250000D01*
X140900000Y-104250000D02*
X140380000Y-104250000D01*
%TO.N,Net-(D27-A)*%
X249799999Y-66150000D02*
X249279999Y-66150000D01*
X252899999Y-63050000D02*
X249799999Y-66150000D01*
%TO.N,/C5*%
X121000000Y-99050000D02*
X121000000Y-97448329D01*
X121000000Y-97448329D02*
X110200000Y-86648329D01*
%TO.N,/R1*%
X217535500Y-49564500D02*
X220000000Y-47100000D01*
X220916000Y-61385644D02*
X217535500Y-58005144D01*
X217535500Y-58005144D02*
X217535500Y-49564500D01*
X220916000Y-71014329D02*
X220916000Y-61385644D01*
X227900000Y-77998329D02*
X220916000Y-71014329D01*
X227900000Y-87000000D02*
X227900000Y-77998329D01*
X235590000Y-103310000D02*
X238100000Y-100800000D01*
X235590000Y-109510000D02*
X235590000Y-103310000D01*
%TO.N,/C14*%
X244675735Y-93224265D02*
X244675735Y-92024265D01*
X230510000Y-107390000D02*
X244675735Y-93224265D01*
X230510000Y-109510000D02*
X230510000Y-107390000D01*
X260735500Y-65214500D02*
X265000000Y-60950000D01*
X260735500Y-78925606D02*
X260735500Y-65214500D01*
X251061106Y-88600000D02*
X260735500Y-78925606D01*
X246400000Y-88600000D02*
X251061106Y-88600000D01*
%TO.N,/C13*%
X250900000Y-86900000D02*
X257800000Y-80000000D01*
X247900000Y-86900000D02*
X250900000Y-86900000D01*
X242200000Y-90800000D02*
X243300000Y-90800000D01*
X227970000Y-105030000D02*
X242200000Y-90800000D01*
X227970000Y-109510000D02*
X227970000Y-105030000D01*
%TO.N,/C11*%
X224500000Y-103550000D02*
X229000000Y-99050000D01*
X224500000Y-105950000D02*
X224500000Y-103550000D01*
%TO.N,/C10*%
X234941422Y-111000000D02*
X248290000Y-124348578D01*
X248290000Y-124348578D02*
X248290000Y-127290000D01*
X217250000Y-111000000D02*
X234941422Y-111000000D01*
X211000000Y-104750000D02*
X217250000Y-111000000D01*
%TO.N,/C9*%
X211900000Y-123900000D02*
X211900000Y-127600000D01*
%TO.N,/C8*%
X195699999Y-123575635D02*
X195699999Y-118100000D01*
X200519364Y-128395000D02*
X195699999Y-123575635D01*
X252265000Y-128395000D02*
X200519364Y-128395000D01*
X253370000Y-127290000D02*
X252265000Y-128395000D01*
%TO.N,/C7*%
X179500000Y-123575635D02*
X179500000Y-118100000D01*
X255100000Y-128800000D02*
X184724365Y-128800000D01*
X184724365Y-128800000D02*
X179500000Y-123575635D01*
X255910000Y-127290000D02*
X255910000Y-127990000D01*
X255910000Y-127990000D02*
X255100000Y-128800000D01*
%TO.N,/C6*%
X168924365Y-129200000D02*
X163300000Y-123575635D01*
X260400000Y-129200000D02*
X168924365Y-129200000D01*
X260990000Y-128610000D02*
X260400000Y-129200000D01*
X260990000Y-127290000D02*
X260990000Y-128610000D01*
X163300000Y-123575635D02*
X163300000Y-118100000D01*
%TO.N,/C5*%
X144400000Y-128700000D02*
X144400000Y-118100000D01*
X145300000Y-129600000D02*
X144400000Y-128700000D01*
X262500000Y-129600000D02*
X145300000Y-129600000D01*
X263530000Y-128570000D02*
X262500000Y-129600000D01*
X263530000Y-127290000D02*
X263530000Y-128570000D01*
%TO.N,/C4*%
X115700000Y-130000000D02*
X113800000Y-128100000D01*
X266070000Y-129030000D02*
X265100000Y-130000000D01*
X265100000Y-130000000D02*
X115700000Y-130000000D01*
X266070000Y-127290000D02*
X266070000Y-129030000D01*
X113800000Y-128100000D02*
X113800000Y-118100000D01*
%TO.N,/C3*%
X77800000Y-127100000D02*
X77800000Y-118100000D01*
X268610000Y-127290000D02*
X268610000Y-129490000D01*
X268610000Y-129490000D02*
X267700000Y-130400000D01*
X267700000Y-130400000D02*
X81100000Y-130400000D01*
X81100000Y-130400000D02*
X77800000Y-127100000D01*
%TO.N,/C2*%
X64400000Y-130800000D02*
X59800000Y-126200000D01*
X272900000Y-130800000D02*
X64400000Y-130800000D01*
X273690000Y-130010000D02*
X272900000Y-130800000D01*
X59800000Y-126200000D02*
X59800000Y-118100000D01*
X273690000Y-127290000D02*
X273690000Y-130010000D01*
%TO.N,/C1*%
X36400000Y-125700000D02*
X36400000Y-118100000D01*
X41900000Y-131200000D02*
X36400000Y-125700000D01*
X274500000Y-131200000D02*
X41900000Y-131200000D01*
X276230000Y-129470000D02*
X274500000Y-131200000D01*
X276230000Y-127290000D02*
X276230000Y-129470000D01*
%TO.N,/R5*%
X224080000Y-123400000D02*
X227970000Y-127290000D01*
X220899999Y-123400000D02*
X224080000Y-123400000D01*
%TO.N,/R2*%
X238130000Y-106320000D02*
X238130000Y-109510000D01*
X239700000Y-104750000D02*
X238130000Y-106320000D01*
X240699999Y-86351469D02*
X241824265Y-87475735D01*
X240699999Y-66150000D02*
X240699999Y-86351469D01*
%TO.N,/R3*%
X240670000Y-106530000D02*
X240670000Y-109510000D01*
X242500000Y-104700000D02*
X240670000Y-106530000D01*
%TO.N,/C12*%
X248290000Y-106760000D02*
X248290000Y-109510000D01*
X256000000Y-99050000D02*
X248290000Y-106760000D01*
%TO.N,/C9*%
X210199099Y-116399100D02*
X211899999Y-118100000D01*
X198684744Y-99050000D02*
X210199099Y-110564355D01*
X193000000Y-99050000D02*
X198684744Y-99050000D01*
X210199099Y-110564355D02*
X210199099Y-116399100D01*
%TO.N,/C8*%
X193999099Y-116399100D02*
X195699999Y-118100000D01*
X193999099Y-112364355D02*
X193999099Y-116399100D01*
X175000000Y-99050000D02*
X180684744Y-99050000D01*
X180684744Y-99050000D02*
X193999099Y-112364355D01*
%TO.N,/C7*%
X172674700Y-111274700D02*
X179500000Y-118100000D01*
X172674700Y-109039956D02*
X172674700Y-111274700D01*
X162684744Y-99050000D02*
X172674700Y-109039956D01*
X157000000Y-99050000D02*
X162684744Y-99050000D01*
%TO.N,/C6*%
X163300000Y-116498329D02*
X163300000Y-118100000D01*
X145851671Y-99050000D02*
X163300000Y-116498329D01*
X139000000Y-99050000D02*
X145851671Y-99050000D01*
%TO.N,Net-(D62-A)*%
X216479999Y-120200000D02*
X216899999Y-120200000D01*
X213279999Y-123400000D02*
X216479999Y-120200000D01*
%TO.N,Net-(D61-A)*%
X200279999Y-120200000D02*
X200699999Y-120200000D01*
X197079999Y-123400000D02*
X200279999Y-120200000D01*
%TO.N,Net-(D60-A)*%
X184080000Y-120200000D02*
X184500000Y-120200000D01*
X180880000Y-123400000D02*
X184080000Y-120200000D01*
%TO.N,Net-(D59-A)*%
X167880000Y-120200000D02*
X168300000Y-120200000D01*
X164680000Y-123400000D02*
X167880000Y-120200000D01*
%TO.N,Net-(D58-A)*%
X148980000Y-120200000D02*
X149400000Y-120200000D01*
X145780000Y-123400000D02*
X148980000Y-120200000D01*
%TO.N,/C3*%
X77800000Y-115498329D02*
X77800000Y-118100000D01*
X85000000Y-108298329D02*
X77800000Y-115498329D01*
X85000000Y-99050000D02*
X85000000Y-108298329D01*
%TO.N,/C10*%
X211000000Y-97448329D02*
X211000000Y-99050000D01*
X200200000Y-86648329D02*
X211000000Y-97448329D01*
X200200000Y-80000000D02*
X200200000Y-86648329D01*
%TO.N,/C8*%
X164200000Y-86834565D02*
X175000000Y-97634565D01*
X164200000Y-80000000D02*
X164200000Y-86834565D01*
X175000000Y-97634565D02*
X175000000Y-99050000D01*
%TO.N,/C7*%
X157000000Y-97448329D02*
X157000000Y-99050000D01*
X146200000Y-86648329D02*
X157000000Y-97448329D01*
X146200000Y-80000000D02*
X146200000Y-86648329D01*
%TO.N,/C6*%
X139000000Y-97448329D02*
X139000000Y-99050000D01*
X128200000Y-86648329D02*
X139000000Y-97448329D01*
X128200000Y-80000000D02*
X128200000Y-86648329D01*
%TO.N,/C3*%
X85000000Y-97448329D02*
X85000000Y-99050000D01*
X74200000Y-86648329D02*
X85000000Y-97448329D01*
X74200000Y-80000000D02*
X74200000Y-86648329D01*
%TO.N,/C4*%
X103000000Y-97634565D02*
X103000000Y-99050000D01*
X92200000Y-80000000D02*
X92200000Y-86834565D01*
X92200000Y-86834565D02*
X103000000Y-97634565D01*
%TO.N,/C5*%
X110200000Y-80000000D02*
X110200000Y-86648329D01*
%TO.N,/C9*%
X193000000Y-97448329D02*
X193000000Y-99050000D01*
X182200000Y-80000000D02*
X182200000Y-86648329D01*
X182200000Y-86648329D02*
X193000000Y-97448329D01*
%TO.N,/C11*%
X229000000Y-97448329D02*
X229000000Y-99050000D01*
X217300000Y-85748329D02*
X229000000Y-97448329D01*
X217300000Y-80000000D02*
X217300000Y-85748329D01*
%TO.N,/C2*%
X62735500Y-115164500D02*
X59800000Y-118100000D01*
X62735500Y-103314500D02*
X62735500Y-115164500D01*
X67000000Y-99050000D02*
X62735500Y-103314500D01*
%TO.N,/C1*%
X38984001Y-115515999D02*
X36400000Y-118100000D01*
X38984001Y-100065999D02*
X38984001Y-115515999D01*
X40000000Y-99050000D02*
X38984001Y-100065999D01*
%TO.N,/C10*%
X196600000Y-76400000D02*
X200200000Y-80000000D01*
X196600000Y-60950000D02*
X196600000Y-76400000D01*
X193000000Y-57350000D02*
X196600000Y-60950000D01*
X193000000Y-41900000D02*
X193000000Y-57350000D01*
%TO.N,/C6*%
X124600000Y-76400000D02*
X128200000Y-80000000D01*
X124600000Y-60950000D02*
X124600000Y-76400000D01*
X121000000Y-57350000D02*
X124600000Y-60950000D01*
X121000000Y-41900000D02*
X121000000Y-57350000D01*
%TO.N,/C11*%
X214600000Y-77300000D02*
X217300000Y-80000000D01*
X214600000Y-60950000D02*
X214600000Y-77300000D01*
X211000000Y-57350000D02*
X214600000Y-60950000D01*
X211000000Y-41900000D02*
X211000000Y-57350000D01*
%TO.N,/C3*%
X70600000Y-76400000D02*
X74200000Y-80000000D01*
X70600000Y-60950000D02*
X70600000Y-76400000D01*
X67000000Y-57350000D02*
X70600000Y-60950000D01*
X67000000Y-41900000D02*
X67000000Y-57350000D01*
%TO.N,/C2*%
X56200000Y-88250000D02*
X67000000Y-99050000D01*
X56200000Y-80000000D02*
X56200000Y-88250000D01*
X52600000Y-76400000D02*
X56200000Y-80000000D01*
X52600000Y-60950000D02*
X52600000Y-76400000D01*
X49000000Y-57350000D02*
X52600000Y-60950000D01*
X49000000Y-41900000D02*
X49000000Y-57350000D01*
%TO.N,/C1*%
X34600000Y-93650000D02*
X40000000Y-99050000D01*
X34600000Y-80000000D02*
X34600000Y-93650000D01*
X32800000Y-78200000D02*
X34600000Y-80000000D01*
X32800000Y-60950000D02*
X32800000Y-78200000D01*
X31000000Y-59150000D02*
X32800000Y-60950000D01*
X31000000Y-41900000D02*
X31000000Y-59150000D01*
%TO.N,/C9*%
X178600000Y-76400000D02*
X182200000Y-80000000D01*
X178600000Y-60950000D02*
X178600000Y-76400000D01*
X175000000Y-57350000D02*
X178600000Y-60950000D01*
X175000000Y-41900000D02*
X175000000Y-57350000D01*
%TO.N,/C13*%
X247899999Y-70099999D02*
X257800000Y-80000000D01*
X247899999Y-60950000D02*
X247899999Y-70099999D01*
X244300000Y-57350001D02*
X247899999Y-60950000D01*
X244300000Y-41900000D02*
X244300000Y-57350001D01*
%TO.N,/C4*%
X103000000Y-107300000D02*
X113800000Y-118100000D01*
X103000000Y-99050000D02*
X103000000Y-107300000D01*
X88600000Y-76400000D02*
X92200000Y-80000000D01*
X88600000Y-60950000D02*
X88600000Y-76400000D01*
X85000000Y-57350000D02*
X88600000Y-60950000D01*
X85000000Y-41900000D02*
X85000000Y-57350000D01*
%TO.N,/C8*%
X160600000Y-76400000D02*
X164200000Y-80000000D01*
X160600000Y-60950000D02*
X160600000Y-76400000D01*
X157000000Y-57350000D02*
X160600000Y-60950000D01*
X157000000Y-41900000D02*
X157000000Y-57350000D01*
%TO.N,/C5*%
X106600000Y-76400000D02*
X110200000Y-80000000D01*
X106600000Y-60950000D02*
X106600000Y-76400000D01*
X103000000Y-57350000D02*
X106600000Y-60950000D01*
X103000000Y-41900000D02*
X103000000Y-57350000D01*
%TO.N,/C7*%
X142600000Y-76400000D02*
X146200000Y-80000000D01*
X142600000Y-60950000D02*
X142600000Y-76400000D01*
X139000000Y-57350000D02*
X142600000Y-60950000D01*
X139000000Y-41900000D02*
X139000000Y-57350000D01*
%TO.N,/C14*%
X263200000Y-59150000D02*
X265000000Y-60950000D01*
X263200000Y-41900000D02*
X263200000Y-59150000D01*
%TO.N,/C12*%
X252550000Y-99050000D02*
X256000000Y-99050000D01*
X231699999Y-78199999D02*
X233500000Y-80000000D01*
X231699999Y-60950000D02*
X231699999Y-78199999D01*
X228100000Y-57350001D02*
X231699999Y-60950000D01*
X228100000Y-41900000D02*
X228100000Y-57350001D01*
%TO.N,Net-(D18-A)*%
X93080000Y-63050000D02*
X89980000Y-66150000D01*
X93600000Y-63050000D02*
X93080000Y-63050000D01*
%TO.N,Net-(D22-A)*%
X165080000Y-63050000D02*
X161980000Y-66150000D01*
X165600000Y-63050000D02*
X165080000Y-63050000D01*
%TO.N,Net-(D45-A)*%
X107480000Y-101150000D02*
X104380000Y-104250000D01*
X108000000Y-101150000D02*
X107480000Y-101150000D01*
%TO.N,Net-(D24-A)*%
X201080000Y-63050000D02*
X197980000Y-66150000D01*
X201600000Y-63050000D02*
X201080000Y-63050000D01*
%TO.N,Net-(D33-A)*%
X114680000Y-82100000D02*
X111580000Y-85200000D01*
X115200000Y-82100000D02*
X114680000Y-82100000D01*
%TO.N,Net-(D11-A)*%
X215480000Y-44000000D02*
X212380000Y-47100000D01*
X216000000Y-44000000D02*
X215480000Y-44000000D01*
%TO.N,Net-(D2-A)*%
X53480000Y-44000000D02*
X50380000Y-47100000D01*
X54000000Y-44000000D02*
X53480000Y-44000000D01*
%TO.N,Net-(D29-A)*%
X39080000Y-82100000D02*
X35980000Y-85200000D01*
X39600000Y-82100000D02*
X39080000Y-82100000D01*
%TO.N,Net-(D17-A)*%
X75080000Y-63050000D02*
X71980000Y-66150000D01*
X75600000Y-63050000D02*
X75080000Y-63050000D01*
%TO.N,Net-(D6-A)*%
X125480000Y-44000000D02*
X122380000Y-47100000D01*
X126000000Y-44000000D02*
X125480000Y-44000000D01*
%TO.N,Net-(D36-A)*%
X168680000Y-82100000D02*
X165580000Y-85200000D01*
X169200000Y-82100000D02*
X168680000Y-82100000D01*
%TO.N,Net-(D23-A)*%
X183080000Y-63050000D02*
X179980000Y-66150000D01*
X183600000Y-63050000D02*
X183080000Y-63050000D01*
%TO.N,Net-(D21-A)*%
X147080000Y-63050000D02*
X143980000Y-66150000D01*
X147600000Y-63050000D02*
X147080000Y-63050000D01*
%TO.N,Net-(D42-A)*%
X44480000Y-101150000D02*
X41380000Y-104250000D01*
X45000000Y-101150000D02*
X44480000Y-101150000D01*
%TO.N,Net-(D26-A)*%
X236179999Y-63050000D02*
X233079999Y-66150000D01*
X236699999Y-63050000D02*
X236179999Y-63050000D01*
%TO.N,Net-(D25-A)*%
X219080000Y-63050000D02*
X215980000Y-66150000D01*
X219600000Y-63050000D02*
X219080000Y-63050000D01*
%TO.N,Net-(D9-A)*%
X179480000Y-44000000D02*
X176380000Y-47100000D01*
X180000000Y-44000000D02*
X179480000Y-44000000D01*
%TO.N,Net-(D55-A)*%
X64280000Y-120200000D02*
X61180000Y-123300000D01*
X64800000Y-120200000D02*
X64280000Y-120200000D01*
%TO.N,Net-(D39-A)*%
X221780000Y-82100000D02*
X218680000Y-85200000D01*
X222300000Y-82100000D02*
X221780000Y-82100000D01*
%TO.N,Net-(D15-A)*%
X37280000Y-63050000D02*
X34180000Y-66150000D01*
X37800000Y-63050000D02*
X37280000Y-63050000D01*
%TO.N,Net-(D34-A)*%
X132680000Y-82100000D02*
X129580000Y-85200000D01*
X133200000Y-82100000D02*
X132680000Y-82100000D01*
%TO.N,Net-(D48-A)*%
X161480000Y-101150000D02*
X158380000Y-104250000D01*
X162000000Y-101150000D02*
X161480000Y-101150000D01*
%TO.N,Net-(D53-A)*%
X260480000Y-101150000D02*
X257380000Y-104250000D01*
X261000000Y-101150000D02*
X260480000Y-101150000D01*
%TO.N,Net-(D51-A)*%
X215480000Y-101150000D02*
X212380000Y-104250000D01*
X216000000Y-101150000D02*
X215480000Y-101150000D01*
%TO.N,Net-(D35-A)*%
X150680000Y-82100000D02*
X147580000Y-85200000D01*
X151200000Y-82100000D02*
X150680000Y-82100000D01*
%TO.N,Net-(D38-A)*%
X204680000Y-82100000D02*
X201580000Y-85200000D01*
X205200000Y-82100000D02*
X204680000Y-82100000D01*
%TO.N,Net-(D52-A)*%
X233480000Y-101150000D02*
X230380000Y-104250000D01*
X234000000Y-101150000D02*
X233480000Y-101150000D01*
%TO.N,Net-(D10-A)*%
X197480000Y-44000000D02*
X194380000Y-47100000D01*
X198000000Y-44000000D02*
X197480000Y-44000000D01*
%TO.N,Net-(D14-A)*%
X267680000Y-44000000D02*
X264580000Y-47100000D01*
X268200000Y-44000000D02*
X267680000Y-44000000D01*
%TO.N,Net-(D4-A)*%
X89480000Y-44000000D02*
X86380000Y-47100000D01*
X90000000Y-44000000D02*
X89480000Y-44000000D01*
%TO.N,Net-(D30-A)*%
X60680000Y-82100000D02*
X57580000Y-85200000D01*
X61200000Y-82100000D02*
X60680000Y-82100000D01*
%TO.N,Net-(D5-A)*%
X107480000Y-44000000D02*
X104380000Y-47100000D01*
X108000000Y-44000000D02*
X107480000Y-44000000D01*
%TO.N,Net-(D37-A)*%
X186680000Y-82100000D02*
X183580000Y-85200000D01*
X187200000Y-82100000D02*
X186680000Y-82100000D01*
%TO.N,Net-(D43-A)*%
X71480000Y-101150000D02*
X68380000Y-104250000D01*
X72000000Y-101150000D02*
X71480000Y-101150000D01*
%TO.N,Net-(D28-A)*%
X269480000Y-63050000D02*
X266380000Y-66150000D01*
X270000000Y-63050000D02*
X269480000Y-63050000D01*
%TO.N,Net-(D50-A)*%
X197480000Y-101150000D02*
X194380000Y-104250000D01*
X198000000Y-101150000D02*
X197480000Y-101150000D01*
%TO.N,Net-(D1-A)*%
X35480000Y-44000000D02*
X32380000Y-47100000D01*
X36000000Y-44000000D02*
X35480000Y-44000000D01*
%TO.N,Net-(D44-A)*%
X89480000Y-101150000D02*
X86380000Y-104250000D01*
X90000000Y-101150000D02*
X89480000Y-101150000D01*
%TO.N,Net-(D20-A)*%
X129080000Y-63050000D02*
X125980000Y-66150000D01*
X129600000Y-63050000D02*
X129080000Y-63050000D01*
%TO.N,Net-(D54-A)*%
X40880000Y-120200000D02*
X37780000Y-123300000D01*
X41400000Y-120200000D02*
X40880000Y-120200000D01*
%TO.N,Net-(D49-A)*%
X179480000Y-101150000D02*
X176380000Y-104250000D01*
X180000000Y-101150000D02*
X179480000Y-101150000D01*
%TO.N,Net-(D56-A)*%
X82280000Y-120200000D02*
X79180000Y-123300000D01*
X82800000Y-120200000D02*
X82280000Y-120200000D01*
%TO.N,Net-(D16-A)*%
X57080000Y-63050000D02*
X53980000Y-66150000D01*
X57600000Y-63050000D02*
X57080000Y-63050000D01*
%TO.N,Net-(D7-A)*%
X143480000Y-44000000D02*
X140380000Y-47100000D01*
X144000000Y-44000000D02*
X143480000Y-44000000D01*
%TO.N,Net-(D12-A)*%
X232580000Y-44000000D02*
X229480000Y-47100000D01*
X233100000Y-44000000D02*
X232580000Y-44000000D01*
%TO.N,Net-(D13-A)*%
X248780000Y-44000000D02*
X245680000Y-47100000D01*
X249300000Y-44000000D02*
X248780000Y-44000000D01*
%TO.N,Net-(D57-A)*%
X118280000Y-120200000D02*
X115180000Y-123300000D01*
X118800000Y-120200000D02*
X118280000Y-120200000D01*
%TO.N,Net-(D8-A)*%
X161480000Y-44000000D02*
X158380000Y-47100000D01*
X162000000Y-44000000D02*
X161480000Y-44000000D01*
%TO.N,Net-(D32-A)*%
X96680000Y-82100000D02*
X93580000Y-85200000D01*
X97200000Y-82100000D02*
X96680000Y-82100000D01*
%TO.N,Net-(D41-A)*%
X262280000Y-82100000D02*
X259180000Y-85200000D01*
X262800000Y-82100000D02*
X262280000Y-82100000D01*
%TO.N,Net-(D31-A)*%
X78680000Y-82100000D02*
X75580000Y-85200000D01*
X79200000Y-82100000D02*
X78680000Y-82100000D01*
%TO.N,Net-(D19-A)*%
X111080000Y-63050000D02*
X107980000Y-66150000D01*
X111600000Y-63050000D02*
X111080000Y-63050000D01*
%TO.N,Net-(D3-A)*%
X71480000Y-44000000D02*
X68380000Y-47100000D01*
X72000000Y-44000000D02*
X71480000Y-44000000D01*
%TO.N,/C10*%
X196600000Y-76400000D02*
X200200000Y-80000000D01*
X196600000Y-60950000D02*
X196600000Y-76400000D01*
X193000000Y-57350000D02*
X196600000Y-60950000D01*
X193000000Y-41900000D02*
X193000000Y-57350000D01*
%TO.N,/C6*%
X124600000Y-76400000D02*
X128200000Y-80000000D01*
X124600000Y-60950000D02*
X124600000Y-76400000D01*
X121000000Y-57350000D02*
X124600000Y-60950000D01*
X121000000Y-41900000D02*
X121000000Y-57350000D01*
%TO.N,/C11*%
X214600000Y-77300000D02*
X217300000Y-80000000D01*
X214600000Y-60950000D02*
X214600000Y-77300000D01*
X211000000Y-57350000D02*
X214600000Y-60950000D01*
X211000000Y-41900000D02*
X211000000Y-57350000D01*
%TO.N,/C3*%
X70600000Y-76400000D02*
X74200000Y-80000000D01*
X70600000Y-60950000D02*
X70600000Y-76400000D01*
X67000000Y-57350000D02*
X70600000Y-60950000D01*
X67000000Y-41900000D02*
X67000000Y-57350000D01*
%TO.N,/C2*%
X56200000Y-88250000D02*
X67000000Y-99050000D01*
X56200000Y-80000000D02*
X56200000Y-88250000D01*
X52600000Y-76400000D02*
X56200000Y-80000000D01*
X52600000Y-60950000D02*
X52600000Y-76400000D01*
X49000000Y-57350000D02*
X52600000Y-60950000D01*
X49000000Y-41900000D02*
X49000000Y-57350000D01*
%TO.N,/C1*%
X34600000Y-93650000D02*
X40000000Y-99050000D01*
X34600000Y-80000000D02*
X34600000Y-93650000D01*
X32800000Y-78200000D02*
X34600000Y-80000000D01*
X32800000Y-60950000D02*
X32800000Y-78200000D01*
X31000000Y-59150000D02*
X32800000Y-60950000D01*
X31000000Y-41900000D02*
X31000000Y-59150000D01*
%TO.N,/C9*%
X178600000Y-76400000D02*
X182200000Y-80000000D01*
X178600000Y-60950000D02*
X178600000Y-76400000D01*
X175000000Y-57350000D02*
X178600000Y-60950000D01*
X175000000Y-41900000D02*
X175000000Y-57350000D01*
%TO.N,/C13*%
X247899999Y-70099999D02*
X257800000Y-80000000D01*
X247899999Y-60950000D02*
X247899999Y-70099999D01*
X244300000Y-57350001D02*
X247899999Y-60950000D01*
X244300000Y-41900000D02*
X244300000Y-57350001D01*
%TO.N,/C4*%
X103000000Y-107300000D02*
X113800000Y-118100000D01*
X103000000Y-99050000D02*
X103000000Y-107300000D01*
X88600000Y-76400000D02*
X92200000Y-80000000D01*
X88600000Y-60950000D02*
X88600000Y-76400000D01*
X85000000Y-57350000D02*
X88600000Y-60950000D01*
X85000000Y-41900000D02*
X85000000Y-57350000D01*
%TO.N,/C8*%
X160600000Y-76400000D02*
X164200000Y-80000000D01*
X160600000Y-60950000D02*
X160600000Y-76400000D01*
X157000000Y-57350000D02*
X160600000Y-60950000D01*
X157000000Y-41900000D02*
X157000000Y-57350000D01*
%TO.N,/C5*%
X106600000Y-76400000D02*
X110200000Y-80000000D01*
X106600000Y-60950000D02*
X106600000Y-76400000D01*
X103000000Y-57350000D02*
X106600000Y-60950000D01*
X103000000Y-41900000D02*
X103000000Y-57350000D01*
%TO.N,/C7*%
X142600000Y-76400000D02*
X146200000Y-80000000D01*
X142600000Y-60950000D02*
X142600000Y-76400000D01*
X139000000Y-57350000D02*
X142600000Y-60950000D01*
X139000000Y-41900000D02*
X139000000Y-57350000D01*
%TO.N,/C14*%
X263200000Y-59150000D02*
X265000000Y-60950000D01*
X263200000Y-41900000D02*
X263200000Y-59150000D01*
%TO.N,/C12*%
X252550000Y-99050000D02*
X256000000Y-99050000D01*
X231699999Y-78199999D02*
X233500000Y-80000000D01*
X231699999Y-60950000D02*
X231699999Y-78199999D01*
X228100000Y-57350001D02*
X231699999Y-60950000D01*
X228100000Y-41900000D02*
X228100000Y-57350001D01*
%TO.N,/C10*%
X196600000Y-76400000D02*
X200200000Y-80000000D01*
X196600000Y-60950000D02*
X196600000Y-76400000D01*
X193000000Y-57350000D02*
X196600000Y-60950000D01*
X193000000Y-41900000D02*
X193000000Y-57350000D01*
%TO.N,/C6*%
X124600000Y-76400000D02*
X128200000Y-80000000D01*
X124600000Y-60950000D02*
X124600000Y-76400000D01*
X121000000Y-57350000D02*
X124600000Y-60950000D01*
X121000000Y-41900000D02*
X121000000Y-57350000D01*
%TO.N,/C11*%
X214600000Y-77300000D02*
X217300000Y-80000000D01*
X214600000Y-60950000D02*
X214600000Y-77300000D01*
X211000000Y-57350000D02*
X214600000Y-60950000D01*
X211000000Y-41900000D02*
X211000000Y-57350000D01*
%TO.N,/C3*%
X70600000Y-76400000D02*
X74200000Y-80000000D01*
X70600000Y-60950000D02*
X70600000Y-76400000D01*
X67000000Y-57350000D02*
X70600000Y-60950000D01*
X67000000Y-41900000D02*
X67000000Y-57350000D01*
%TO.N,/C2*%
X56200000Y-88250000D02*
X67000000Y-99050000D01*
X56200000Y-80000000D02*
X56200000Y-88250000D01*
X52600000Y-76400000D02*
X56200000Y-80000000D01*
X52600000Y-60950000D02*
X52600000Y-76400000D01*
X49000000Y-57350000D02*
X52600000Y-60950000D01*
X49000000Y-41900000D02*
X49000000Y-57350000D01*
%TO.N,/C1*%
X34600000Y-93650000D02*
X40000000Y-99050000D01*
X34600000Y-80000000D02*
X34600000Y-93650000D01*
X32800000Y-78200000D02*
X34600000Y-80000000D01*
X32800000Y-60950000D02*
X32800000Y-78200000D01*
X31000000Y-59150000D02*
X32800000Y-60950000D01*
X31000000Y-41900000D02*
X31000000Y-59150000D01*
%TO.N,/C9*%
X178600000Y-76400000D02*
X182200000Y-80000000D01*
X178600000Y-60950000D02*
X178600000Y-76400000D01*
X175000000Y-57350000D02*
X178600000Y-60950000D01*
X175000000Y-41900000D02*
X175000000Y-57350000D01*
%TO.N,/C13*%
X247899999Y-70099999D02*
X257800000Y-80000000D01*
X247899999Y-60950000D02*
X247899999Y-70099999D01*
X244300000Y-57350001D02*
X247899999Y-60950000D01*
X244300000Y-41900000D02*
X244300000Y-57350001D01*
%TO.N,/C4*%
X103000000Y-107300000D02*
X113800000Y-118100000D01*
X103000000Y-99050000D02*
X103000000Y-107300000D01*
X88600000Y-76400000D02*
X92200000Y-80000000D01*
X88600000Y-60950000D02*
X88600000Y-76400000D01*
X85000000Y-57350000D02*
X88600000Y-60950000D01*
X85000000Y-41900000D02*
X85000000Y-57350000D01*
%TO.N,/C8*%
X160600000Y-76400000D02*
X164200000Y-80000000D01*
X160600000Y-60950000D02*
X160600000Y-76400000D01*
X157000000Y-57350000D02*
X160600000Y-60950000D01*
X157000000Y-41900000D02*
X157000000Y-57350000D01*
%TO.N,/C5*%
X106600000Y-76400000D02*
X110200000Y-80000000D01*
X106600000Y-60950000D02*
X106600000Y-76400000D01*
X103000000Y-57350000D02*
X106600000Y-60950000D01*
X103000000Y-41900000D02*
X103000000Y-57350000D01*
%TO.N,/C7*%
X142600000Y-76400000D02*
X146200000Y-80000000D01*
X142600000Y-60950000D02*
X142600000Y-76400000D01*
X139000000Y-57350000D02*
X142600000Y-60950000D01*
X139000000Y-41900000D02*
X139000000Y-57350000D01*
%TO.N,/C14*%
X263200000Y-59150000D02*
X265000000Y-60950000D01*
X263200000Y-41900000D02*
X263200000Y-59150000D01*
%TO.N,/C12*%
X252550000Y-99050000D02*
X256000000Y-99050000D01*
X231699999Y-78199999D02*
X233500000Y-80000000D01*
X231699999Y-60950000D02*
X231699999Y-78199999D01*
X228100000Y-57350001D02*
X231699999Y-60950000D01*
X228100000Y-41900000D02*
X228100000Y-57350001D01*
%TO.N,/C10*%
X196600000Y-76400000D02*
X200200000Y-80000000D01*
X196600000Y-60950000D02*
X196600000Y-76400000D01*
X193000000Y-57350000D02*
X196600000Y-60950000D01*
X193000000Y-41900000D02*
X193000000Y-57350000D01*
%TO.N,/C6*%
X124600000Y-76400000D02*
X128200000Y-80000000D01*
X124600000Y-60950000D02*
X124600000Y-76400000D01*
X121000000Y-57350000D02*
X124600000Y-60950000D01*
X121000000Y-41900000D02*
X121000000Y-57350000D01*
%TO.N,/C11*%
X214600000Y-77300000D02*
X217300000Y-80000000D01*
X214600000Y-60950000D02*
X214600000Y-77300000D01*
X211000000Y-57350000D02*
X214600000Y-60950000D01*
X211000000Y-41900000D02*
X211000000Y-57350000D01*
%TO.N,/C3*%
X70600000Y-76400000D02*
X74200000Y-80000000D01*
X70600000Y-60950000D02*
X70600000Y-76400000D01*
X67000000Y-57350000D02*
X70600000Y-60950000D01*
X67000000Y-41900000D02*
X67000000Y-57350000D01*
%TO.N,/C2*%
X56200000Y-88250000D02*
X67000000Y-99050000D01*
X56200000Y-80000000D02*
X56200000Y-88250000D01*
X52600000Y-76400000D02*
X56200000Y-80000000D01*
X52600000Y-60950000D02*
X52600000Y-76400000D01*
X49000000Y-57350000D02*
X52600000Y-60950000D01*
X49000000Y-41900000D02*
X49000000Y-57350000D01*
%TO.N,/C1*%
X34600000Y-93650000D02*
X40000000Y-99050000D01*
X34600000Y-80000000D02*
X34600000Y-93650000D01*
X32800000Y-78200000D02*
X34600000Y-80000000D01*
X32800000Y-60950000D02*
X32800000Y-78200000D01*
X31000000Y-59150000D02*
X32800000Y-60950000D01*
X31000000Y-41900000D02*
X31000000Y-59150000D01*
%TO.N,/C9*%
X178600000Y-76400000D02*
X182200000Y-80000000D01*
X178600000Y-60950000D02*
X178600000Y-76400000D01*
X175000000Y-57350000D02*
X178600000Y-60950000D01*
X175000000Y-41900000D02*
X175000000Y-57350000D01*
%TO.N,/C13*%
X247899999Y-70099999D02*
X257800000Y-80000000D01*
X247899999Y-60950000D02*
X247899999Y-70099999D01*
X244300000Y-57350001D02*
X247899999Y-60950000D01*
X244300000Y-41900000D02*
X244300000Y-57350001D01*
%TO.N,/C4*%
X103000000Y-107300000D02*
X113800000Y-118100000D01*
X103000000Y-99050000D02*
X103000000Y-107300000D01*
X88600000Y-76400000D02*
X92200000Y-80000000D01*
X88600000Y-60950000D02*
X88600000Y-76400000D01*
X85000000Y-57350000D02*
X88600000Y-60950000D01*
X85000000Y-41900000D02*
X85000000Y-57350000D01*
%TO.N,/C8*%
X160600000Y-76400000D02*
X164200000Y-80000000D01*
X160600000Y-60950000D02*
X160600000Y-76400000D01*
X157000000Y-57350000D02*
X160600000Y-60950000D01*
X157000000Y-41900000D02*
X157000000Y-57350000D01*
%TO.N,/C5*%
X106600000Y-76400000D02*
X110200000Y-80000000D01*
X106600000Y-60950000D02*
X106600000Y-76400000D01*
X103000000Y-57350000D02*
X106600000Y-60950000D01*
X103000000Y-41900000D02*
X103000000Y-57350000D01*
%TO.N,/C7*%
X142600000Y-76400000D02*
X146200000Y-80000000D01*
X142600000Y-60950000D02*
X142600000Y-76400000D01*
X139000000Y-57350000D02*
X142600000Y-60950000D01*
X139000000Y-41900000D02*
X139000000Y-57350000D01*
%TO.N,/C14*%
X263200000Y-59150000D02*
X265000000Y-60950000D01*
X263200000Y-41900000D02*
X263200000Y-59150000D01*
%TO.N,/C12*%
X252550000Y-99050000D02*
X256000000Y-99050000D01*
X231699999Y-78199999D02*
X233500000Y-80000000D01*
X231699999Y-60950000D02*
X231699999Y-78199999D01*
X228100000Y-57350001D02*
X231699999Y-60950000D01*
X228100000Y-41900000D02*
X228100000Y-57350001D01*
%TO.N,/C10*%
X196600000Y-76400000D02*
X200200000Y-80000000D01*
X196600000Y-60950000D02*
X196600000Y-76400000D01*
X193000000Y-57350000D02*
X196600000Y-60950000D01*
X193000000Y-41900000D02*
X193000000Y-57350000D01*
%TO.N,/C6*%
X124600000Y-76400000D02*
X128200000Y-80000000D01*
X124600000Y-60950000D02*
X124600000Y-76400000D01*
X121000000Y-57350000D02*
X124600000Y-60950000D01*
X121000000Y-41900000D02*
X121000000Y-57350000D01*
%TO.N,/C11*%
X214600000Y-77300000D02*
X217300000Y-80000000D01*
X214600000Y-60950000D02*
X214600000Y-77300000D01*
X211000000Y-57350000D02*
X214600000Y-60950000D01*
X211000000Y-41900000D02*
X211000000Y-57350000D01*
%TO.N,/C3*%
X70600000Y-76400000D02*
X74200000Y-80000000D01*
X70600000Y-60950000D02*
X70600000Y-76400000D01*
X67000000Y-57350000D02*
X70600000Y-60950000D01*
X67000000Y-41900000D02*
X67000000Y-57350000D01*
%TO.N,/C2*%
X56200000Y-88250000D02*
X67000000Y-99050000D01*
X56200000Y-80000000D02*
X56200000Y-88250000D01*
X52600000Y-76400000D02*
X56200000Y-80000000D01*
X52600000Y-60950000D02*
X52600000Y-76400000D01*
X49000000Y-57350000D02*
X52600000Y-60950000D01*
X49000000Y-41900000D02*
X49000000Y-57350000D01*
%TO.N,/C1*%
X34600000Y-93650000D02*
X40000000Y-99050000D01*
X34600000Y-80000000D02*
X34600000Y-93650000D01*
X32800000Y-78200000D02*
X34600000Y-80000000D01*
X32800000Y-60950000D02*
X32800000Y-78200000D01*
X31000000Y-59150000D02*
X32800000Y-60950000D01*
X31000000Y-41900000D02*
X31000000Y-59150000D01*
%TO.N,/C9*%
X178600000Y-76400000D02*
X182200000Y-80000000D01*
X178600000Y-60950000D02*
X178600000Y-76400000D01*
X175000000Y-57350000D02*
X178600000Y-60950000D01*
X175000000Y-41900000D02*
X175000000Y-57350000D01*
%TO.N,/C13*%
X247899999Y-70099999D02*
X257800000Y-80000000D01*
X247899999Y-60950000D02*
X247899999Y-70099999D01*
X244300000Y-57350001D02*
X247899999Y-60950000D01*
X244300000Y-41900000D02*
X244300000Y-57350001D01*
%TO.N,/C4*%
X103000000Y-107300000D02*
X113800000Y-118100000D01*
X103000000Y-99050000D02*
X103000000Y-107300000D01*
X88600000Y-76400000D02*
X92200000Y-80000000D01*
X88600000Y-60950000D02*
X88600000Y-76400000D01*
X85000000Y-57350000D02*
X88600000Y-60950000D01*
X85000000Y-41900000D02*
X85000000Y-57350000D01*
%TO.N,/C8*%
X160600000Y-76400000D02*
X164200000Y-80000000D01*
X160600000Y-60950000D02*
X160600000Y-76400000D01*
X157000000Y-57350000D02*
X160600000Y-60950000D01*
X157000000Y-41900000D02*
X157000000Y-57350000D01*
%TO.N,/C5*%
X106600000Y-76400000D02*
X110200000Y-80000000D01*
X106600000Y-60950000D02*
X106600000Y-76400000D01*
X103000000Y-57350000D02*
X106600000Y-60950000D01*
X103000000Y-41900000D02*
X103000000Y-57350000D01*
%TO.N,/C7*%
X142600000Y-76400000D02*
X146200000Y-80000000D01*
X142600000Y-60950000D02*
X142600000Y-76400000D01*
X139000000Y-57350000D02*
X142600000Y-60950000D01*
X139000000Y-41900000D02*
X139000000Y-57350000D01*
%TO.N,/C14*%
X263200000Y-59150000D02*
X265000000Y-60950000D01*
X263200000Y-41900000D02*
X263200000Y-59150000D01*
%TO.N,/C12*%
X252550000Y-99050000D02*
X256000000Y-99050000D01*
X231699999Y-78199999D02*
X233500000Y-80000000D01*
X231699999Y-60950000D02*
X231699999Y-78199999D01*
X228100000Y-57350001D02*
X231699999Y-60950000D01*
X228100000Y-41900000D02*
X228100000Y-57350001D01*
%TO.N,/C2*%
X56200000Y-80000000D02*
X56200000Y-88250000D01*
%TO.N,/C1*%
X34600000Y-80000000D02*
X34600000Y-93650000D01*
%TO.N,/C13*%
X247899999Y-60950000D02*
X247899999Y-70099999D01*
%TO.N,/C4*%
X103000000Y-99050000D02*
X103000000Y-107300000D01*
%TO.N,/C12*%
X252550000Y-99050000D02*
X256000000Y-99050000D01*
%TO.N,/C10*%
X196600000Y-76400000D02*
X200200000Y-80000000D01*
X196600000Y-60950000D02*
X196600000Y-76400000D01*
X193000000Y-57350000D02*
X196600000Y-60950000D01*
X193000000Y-41900000D02*
X193000000Y-57350000D01*
%TO.N,/C6*%
X124600000Y-76400000D02*
X128200000Y-80000000D01*
X124600000Y-60950000D02*
X124600000Y-76400000D01*
X121000000Y-57350000D02*
X124600000Y-60950000D01*
X121000000Y-41900000D02*
X121000000Y-57350000D01*
%TO.N,/C11*%
X214600000Y-77300000D02*
X217300000Y-80000000D01*
X214600000Y-60950000D02*
X214600000Y-77300000D01*
X211000000Y-57350000D02*
X214600000Y-60950000D01*
X211000000Y-41900000D02*
X211000000Y-57350000D01*
%TO.N,/C3*%
X70600000Y-76400000D02*
X74200000Y-80000000D01*
X70600000Y-60950000D02*
X70600000Y-76400000D01*
X67000000Y-57350000D02*
X70600000Y-60950000D01*
X67000000Y-41900000D02*
X67000000Y-57350000D01*
%TO.N,/C2*%
X56200000Y-88250000D02*
X67000000Y-99050000D01*
X56200000Y-80000000D02*
X56200000Y-88250000D01*
X52600000Y-76400000D02*
X56200000Y-80000000D01*
X52600000Y-60950000D02*
X52600000Y-76400000D01*
X49000000Y-57350000D02*
X52600000Y-60950000D01*
X49000000Y-41900000D02*
X49000000Y-57350000D01*
%TO.N,/C1*%
X34600000Y-93650000D02*
X40000000Y-99050000D01*
X34600000Y-80000000D02*
X34600000Y-93650000D01*
X32800000Y-78200000D02*
X34600000Y-80000000D01*
X32800000Y-60950000D02*
X32800000Y-78200000D01*
X31000000Y-59150000D02*
X32800000Y-60950000D01*
X31000000Y-41900000D02*
X31000000Y-59150000D01*
%TO.N,/C9*%
X178600000Y-76400000D02*
X182200000Y-80000000D01*
X178600000Y-60950000D02*
X178600000Y-76400000D01*
X175000000Y-57350000D02*
X178600000Y-60950000D01*
X175000000Y-41900000D02*
X175000000Y-57350000D01*
%TO.N,/C13*%
X247899999Y-70099999D02*
X257800000Y-80000000D01*
X247899999Y-60950000D02*
X247899999Y-70099999D01*
X244300000Y-57350001D02*
X247899999Y-60950000D01*
X244300000Y-41900000D02*
X244300000Y-57350001D01*
%TO.N,/C4*%
X103000000Y-107300000D02*
X113800000Y-118100000D01*
X103000000Y-99050000D02*
X103000000Y-107300000D01*
X88600000Y-76400000D02*
X92200000Y-80000000D01*
X88600000Y-60950000D02*
X88600000Y-76400000D01*
X85000000Y-57350000D02*
X88600000Y-60950000D01*
X85000000Y-41900000D02*
X85000000Y-57350000D01*
%TO.N,/C8*%
X160600000Y-76400000D02*
X164200000Y-80000000D01*
X160600000Y-60950000D02*
X160600000Y-76400000D01*
X157000000Y-57350000D02*
X160600000Y-60950000D01*
X157000000Y-41900000D02*
X157000000Y-57350000D01*
%TO.N,/C5*%
X106600000Y-76400000D02*
X110200000Y-80000000D01*
X106600000Y-60950000D02*
X106600000Y-76400000D01*
X103000000Y-57350000D02*
X106600000Y-60950000D01*
X103000000Y-41900000D02*
X103000000Y-57350000D01*
%TO.N,/C7*%
X142600000Y-76400000D02*
X146200000Y-80000000D01*
X142600000Y-60950000D02*
X142600000Y-76400000D01*
X139000000Y-57350000D02*
X142600000Y-60950000D01*
X139000000Y-41900000D02*
X139000000Y-57350000D01*
%TO.N,/C14*%
X263200000Y-59150000D02*
X265000000Y-60950000D01*
X263200000Y-41900000D02*
X263200000Y-59150000D01*
%TO.N,/C12*%
X252550000Y-99050000D02*
X256000000Y-99050000D01*
X231699999Y-78199999D02*
X233500000Y-80000000D01*
X231699999Y-60950000D02*
X231699999Y-78199999D01*
X228100000Y-57350001D02*
X231699999Y-60950000D01*
X228100000Y-41900000D02*
X228100000Y-57350001D01*
%TO.N,/C10*%
X196600000Y-76400000D02*
X200200000Y-80000000D01*
X196600000Y-60950000D02*
X196600000Y-76400000D01*
X193000000Y-57350000D02*
X196600000Y-60950000D01*
X193000000Y-41900000D02*
X193000000Y-57350000D01*
%TO.N,/C6*%
X124600000Y-76400000D02*
X128200000Y-80000000D01*
X124600000Y-60950000D02*
X124600000Y-76400000D01*
X121000000Y-57350000D02*
X124600000Y-60950000D01*
X121000000Y-41900000D02*
X121000000Y-57350000D01*
%TO.N,/C11*%
X214600000Y-77300000D02*
X217300000Y-80000000D01*
X214600000Y-60950000D02*
X214600000Y-77300000D01*
X211000000Y-57350000D02*
X214600000Y-60950000D01*
X211000000Y-41900000D02*
X211000000Y-57350000D01*
%TO.N,/C3*%
X70600000Y-76400000D02*
X74200000Y-80000000D01*
X70600000Y-60950000D02*
X70600000Y-76400000D01*
X67000000Y-57350000D02*
X70600000Y-60950000D01*
X67000000Y-41900000D02*
X67000000Y-57350000D01*
%TO.N,/C2*%
X56200000Y-88250000D02*
X67000000Y-99050000D01*
X56200000Y-80000000D02*
X56200000Y-88250000D01*
X52600000Y-76400000D02*
X56200000Y-80000000D01*
X52600000Y-60950000D02*
X52600000Y-76400000D01*
X49000000Y-57350000D02*
X52600000Y-60950000D01*
X49000000Y-41900000D02*
X49000000Y-57350000D01*
%TO.N,/C1*%
X34600000Y-93650000D02*
X40000000Y-99050000D01*
X34600000Y-80000000D02*
X34600000Y-93650000D01*
X32800000Y-78200000D02*
X34600000Y-80000000D01*
X32800000Y-60950000D02*
X32800000Y-78200000D01*
X31000000Y-59150000D02*
X32800000Y-60950000D01*
X31000000Y-41900000D02*
X31000000Y-59150000D01*
%TO.N,/C9*%
X178600000Y-76400000D02*
X182200000Y-80000000D01*
X178600000Y-60950000D02*
X178600000Y-76400000D01*
X175000000Y-57350000D02*
X178600000Y-60950000D01*
X175000000Y-41900000D02*
X175000000Y-57350000D01*
%TO.N,/C13*%
X247899999Y-70099999D02*
X257800000Y-80000000D01*
X247899999Y-60950000D02*
X247899999Y-70099999D01*
X244300000Y-57350001D02*
X247899999Y-60950000D01*
X244300000Y-41900000D02*
X244300000Y-57350001D01*
%TO.N,/C4*%
X103000000Y-107300000D02*
X113800000Y-118100000D01*
X103000000Y-99050000D02*
X103000000Y-107300000D01*
X88600000Y-76400000D02*
X92200000Y-80000000D01*
X88600000Y-60950000D02*
X88600000Y-76400000D01*
X85000000Y-57350000D02*
X88600000Y-60950000D01*
X85000000Y-41900000D02*
X85000000Y-57350000D01*
%TO.N,/C8*%
X160600000Y-76400000D02*
X164200000Y-80000000D01*
X160600000Y-60950000D02*
X160600000Y-76400000D01*
X157000000Y-57350000D02*
X160600000Y-60950000D01*
X157000000Y-41900000D02*
X157000000Y-57350000D01*
%TO.N,/C5*%
X106600000Y-76400000D02*
X110200000Y-80000000D01*
X106600000Y-60950000D02*
X106600000Y-76400000D01*
X103000000Y-57350000D02*
X106600000Y-60950000D01*
X103000000Y-41900000D02*
X103000000Y-57350000D01*
%TO.N,/C7*%
X142600000Y-76400000D02*
X146200000Y-80000000D01*
X142600000Y-60950000D02*
X142600000Y-76400000D01*
X139000000Y-57350000D02*
X142600000Y-60950000D01*
X139000000Y-41900000D02*
X139000000Y-57350000D01*
%TO.N,/C14*%
X263200000Y-59150000D02*
X265000000Y-60950000D01*
X263200000Y-41900000D02*
X263200000Y-59150000D01*
%TO.N,/C12*%
X252550000Y-99050000D02*
X256000000Y-99050000D01*
X231699999Y-78199999D02*
X233500000Y-80000000D01*
X231699999Y-60950000D02*
X231699999Y-78199999D01*
X228100000Y-57350001D02*
X231699999Y-60950000D01*
X228100000Y-41900000D02*
X228100000Y-57350001D01*
%TO.N,/C13*%
X244300000Y-57350001D02*
X247899999Y-60950000D01*
%TO.N,/C2*%
X49000000Y-41900000D02*
X49000000Y-57350000D01*
%TO.N,/C11*%
X214600000Y-60950000D02*
X214600000Y-77300000D01*
%TO.N,/C5*%
X103000000Y-57350000D02*
X106600000Y-60950000D01*
X106600000Y-60950000D02*
X106600000Y-76400000D01*
%TO.N,/C12*%
X252550000Y-99050000D02*
X256000000Y-99050000D01*
%TO.N,/C8*%
X160600000Y-60950000D02*
X160600000Y-76400000D01*
%TO.N,/C12*%
X228100000Y-57350001D02*
X231699999Y-60950000D01*
%TO.N,/C5*%
X106600000Y-60950000D02*
X106600000Y-76400000D01*
%TO.N,/C2*%
X52600000Y-60950000D02*
X52600000Y-76400000D01*
%TO.N,/C14*%
X263200000Y-59150000D02*
X265000000Y-60950000D01*
%TO.N,/C7*%
X142600000Y-60950000D02*
X142600000Y-76400000D01*
%TO.N,/C8*%
X157000000Y-57350000D02*
X160600000Y-60950000D01*
%TO.N,/C5*%
X106600000Y-76400000D02*
X110200000Y-80000000D01*
%TO.N,/C10*%
X196600000Y-60950000D02*
X196600000Y-76400000D01*
%TO.N,/C14*%
X263200000Y-41900000D02*
X263200000Y-59150000D01*
%TO.N,/C9*%
X175000000Y-41900000D02*
X175000000Y-57350000D01*
X178600000Y-76400000D02*
X182200000Y-80000000D01*
%TO.N,/C10*%
X193000000Y-41900000D02*
X193000000Y-57350000D01*
%TO.N,/C4*%
X103000000Y-99050000D02*
X103000000Y-107300000D01*
%TO.N,/C11*%
X214600000Y-77300000D02*
X217300000Y-80000000D01*
%TO.N,/C2*%
X56200000Y-80000000D02*
X56200000Y-88250000D01*
%TO.N,/C12*%
X231699999Y-60950000D02*
X231699999Y-78199999D01*
X228100000Y-41900000D02*
X228100000Y-57350001D01*
%TO.N,/C7*%
X139000000Y-41900000D02*
X139000000Y-57350000D01*
%TO.N,/C8*%
X160600000Y-76400000D02*
X164200000Y-80000000D01*
%TO.N,/C7*%
X142600000Y-76400000D02*
X146200000Y-80000000D01*
%TO.N,/C4*%
X88600000Y-60950000D02*
X88600000Y-76400000D01*
%TO.N,/C12*%
X228100000Y-41900000D02*
X228100000Y-57350001D01*
%TO.N,/C3*%
X70600000Y-60950000D02*
X70600000Y-76400000D01*
%TO.N,/C9*%
X178600000Y-60950000D02*
X178600000Y-76400000D01*
X178600000Y-60950000D02*
X178600000Y-76400000D01*
%TO.N,/C5*%
X102810000Y-65440000D02*
X106620000Y-69250000D01*
%TO.N,/C10*%
X193000000Y-57350000D02*
X196600000Y-60950000D01*
%TO.N,/C14*%
X263200000Y-59150000D02*
X265000000Y-60950000D01*
%TO.N,/C11*%
X214600000Y-77300000D02*
X217300000Y-80000000D01*
%TO.N,/C2*%
X52600000Y-60950000D02*
X52600000Y-76400000D01*
%TO.N,/C1*%
X32800000Y-60950000D02*
X32800000Y-78200000D01*
%TO.N,/C9*%
X175000000Y-41900000D02*
X175000000Y-57350000D01*
%TO.N,/C1*%
X34600000Y-80000000D02*
X34600000Y-93650000D01*
%TO.N,/C6*%
X124600000Y-60950000D02*
X124600000Y-76400000D01*
X124600000Y-76400000D02*
X128200000Y-80000000D01*
%TO.N,/C14*%
X263200000Y-41900000D02*
X263200000Y-59150000D01*
%TO.N,/C7*%
X139000000Y-57350000D02*
X142600000Y-60950000D01*
%TO.N,/C12*%
X228100000Y-57350001D02*
X231699999Y-60950000D01*
%TO.N,/C8*%
X157000000Y-41900000D02*
X157000000Y-57350000D01*
%TO.N,/C7*%
X142600000Y-76400000D02*
X146200000Y-80000000D01*
%TO.N,/C11*%
X211000000Y-41900000D02*
X211000000Y-57350000D01*
%TO.N,/C6*%
X121000000Y-41900000D02*
X121000000Y-57350000D01*
%TO.N,/C13*%
X244300000Y-41900000D02*
X244300000Y-57350001D01*
%TO.N,/C4*%
X85000000Y-57350000D02*
X88600000Y-60950000D01*
%TO.N,/C11*%
X211000000Y-57350000D02*
X214600000Y-60950000D01*
%TO.N,/C8*%
X157000000Y-41900000D02*
X157000000Y-57350000D01*
%TO.N,/C13*%
X247899999Y-70099999D02*
X257800000Y-80000000D01*
%TO.N,/C8*%
X160600000Y-60950000D02*
X160600000Y-76400000D01*
%TO.N,/C1*%
X31000000Y-41900000D02*
X31000000Y-59150000D01*
X31000000Y-59150000D02*
X32800000Y-60950000D01*
%TO.N,/C6*%
X124600000Y-60950000D02*
X124600000Y-76400000D01*
%TO.N,/C12*%
X231699999Y-60950000D02*
X231699999Y-78199999D01*
%TO.N,/C2*%
X49000000Y-41900000D02*
X49000000Y-57350000D01*
%TO.N,/C9*%
X175000000Y-57350000D02*
X178600000Y-60950000D01*
%TO.N,/C13*%
X244300000Y-41900000D02*
X244300000Y-57350001D01*
%TO.N,/C5*%
X103000000Y-41900000D02*
X103000000Y-57350000D01*
X103000000Y-57350000D02*
X106600000Y-60950000D01*
X103000000Y-41900000D02*
X103000000Y-57350000D01*
%TO.N,/C8*%
X160600000Y-76400000D02*
X164200000Y-80000000D01*
%TO.N,/C4*%
X103000000Y-99050000D02*
X103000000Y-107300000D01*
%TO.N,/C2*%
X56200000Y-88250000D02*
X67000000Y-99050000D01*
%TO.N,/C3*%
X67000000Y-57350000D02*
X70600000Y-60950000D01*
%TO.N,/C4*%
X88600000Y-76400000D02*
X92200000Y-80000000D01*
%TO.N,/C3*%
X70600000Y-76400000D02*
X74200000Y-80000000D01*
%TO.N,/C2*%
X56200000Y-88250000D02*
X67000000Y-99050000D01*
%TO.N,/C1*%
X34600000Y-80000000D02*
X34600000Y-93650000D01*
%TO.N,/C4*%
X88600000Y-60950000D02*
X88600000Y-76400000D01*
%TO.N,/C11*%
X211000000Y-57350000D02*
X214600000Y-60950000D01*
%TO.N,/C2*%
X49000000Y-57350000D02*
X52600000Y-60950000D01*
%TO.N,/C13*%
X247899999Y-60950000D02*
X247899999Y-70099999D01*
%TO.N,/C3*%
X67000000Y-41900000D02*
X67000000Y-57350000D01*
%TO.N,/C6*%
X121000000Y-57350000D02*
X124600000Y-60950000D01*
%TO.N,/C1*%
X34600000Y-93650000D02*
X40000000Y-99050000D01*
%TO.N,/C11*%
X211000000Y-41900000D02*
X211000000Y-57350000D01*
%TO.N,/C1*%
X32800000Y-78200000D02*
X34600000Y-80000000D01*
%TO.N,/C10*%
X196600000Y-76400000D02*
X200200000Y-80000000D01*
%TO.N,/C4*%
X85000000Y-41900000D02*
X85000000Y-57350000D01*
%TO.N,/C10*%
X196600000Y-60950000D02*
X196600000Y-76400000D01*
%TO.N,/C1*%
X32800000Y-60950000D02*
X32800000Y-78200000D01*
%TO.N,/C3*%
X67000000Y-41900000D02*
X67000000Y-57350000D01*
%TO.N,/C4*%
X85000000Y-41900000D02*
X85000000Y-57350000D01*
X88600000Y-76400000D02*
X92200000Y-80000000D01*
X103000000Y-107300000D02*
X113800000Y-118100000D01*
%TO.N,/C11*%
X214600000Y-60950000D02*
X214600000Y-77300000D01*
%TO.N,/C10*%
X193000000Y-57350000D02*
X196600000Y-60950000D01*
%TO.N,/C2*%
X56200000Y-80000000D02*
X56200000Y-88250000D01*
X49000000Y-57350000D02*
X52600000Y-60950000D01*
%TO.N,/C13*%
X247899999Y-70099999D02*
X257800000Y-80000000D01*
%TO.N,/C3*%
X70600000Y-60950000D02*
X70600000Y-76400000D01*
%TO.N,/C2*%
X52600000Y-76400000D02*
X56200000Y-80000000D01*
%TO.N,/C7*%
X142600000Y-60950000D02*
X142600000Y-76400000D01*
%TO.N,/C5*%
X106600000Y-76400000D02*
X110200000Y-80000000D01*
%TO.N,/C4*%
X85000000Y-57350000D02*
X88600000Y-60950000D01*
%TO.N,/C2*%
X52600000Y-76400000D02*
X56200000Y-80000000D01*
%TO.N,/C12*%
X252550000Y-99050000D02*
X256000000Y-99050000D01*
%TO.N,/C9*%
X178600000Y-76400000D02*
X182200000Y-80000000D01*
%TO.N,/C5*%
X102810000Y-50200000D02*
X102810000Y-65440000D01*
%TO.N,/C9*%
X175000000Y-57350000D02*
X178600000Y-60950000D01*
%TO.N,/C1*%
X31000000Y-41900000D02*
X31000000Y-59150000D01*
%TO.N,/C8*%
X157000000Y-57350000D02*
X160600000Y-60950000D01*
%TO.N,/C3*%
X70600000Y-76400000D02*
X74200000Y-80000000D01*
%TO.N,/C10*%
X193000000Y-41900000D02*
X193000000Y-57350000D01*
%TO.N,/C6*%
X124600000Y-76400000D02*
X128200000Y-80000000D01*
%TO.N,/C13*%
X247899999Y-60950000D02*
X247899999Y-70099999D01*
%TO.N,/C7*%
X139000000Y-57350000D02*
X142600000Y-60950000D01*
%TO.N,/C1*%
X32800000Y-78200000D02*
X34600000Y-80000000D01*
%TO.N,/C12*%
X231699999Y-78199999D02*
X233500000Y-80000000D01*
%TO.N,/C3*%
X67000000Y-57350000D02*
X70600000Y-60950000D01*
%TO.N,/C4*%
X103000000Y-107300000D02*
X113800000Y-118100000D01*
%TO.N,/C6*%
X121000000Y-57350000D02*
X124600000Y-60950000D01*
%TO.N,/C12*%
X231699999Y-78199999D02*
X233500000Y-80000000D01*
%TO.N,/C13*%
X244300000Y-57350001D02*
X247899999Y-60950000D01*
%TO.N,/C6*%
X121000000Y-41900000D02*
X121000000Y-57350000D01*
%TO.N,/C7*%
X139000000Y-41900000D02*
X139000000Y-57350000D01*
%TO.N,/C1*%
X31000000Y-59150000D02*
X32800000Y-60950000D01*
X34600000Y-93650000D02*
X40000000Y-99050000D01*
%TO.N,/C10*%
X196600000Y-76400000D02*
X200200000Y-80000000D01*
%TD*%
M02*
