M48
; DRILL file KiCad 10.0.3 date 2026-07-02T13:18:18
; FORMAT={-:-/ absolute / metric / decimal}
; #@! TF.CreationDate,2026-07-02T13:18:18-07:00
; #@! TF.GenerationSoftware,Kicad,Pcbnew,10.0.3
; #@! TF.FileFunction,NonPlated,1,2,NPTH
FMAT,2
METRIC
; #@! TA.AperFunction,NonPlated,NPTH,ComponentDrill
T1C0.991
; #@! TA.AperFunction,NonPlated,NPTH,ComponentDrill
T2C1.702
; #@! TA.AperFunction,NonPlated,NPTH,ComponentDrill
T3C1.850
; #@! TA.AperFunction,NonPlated,NPTH,ComponentDrill
T4C2.200
; #@! TA.AperFunction,NonPlated,NPTH,ComponentDrill
T5C3.429
%
G90
G05
T1
X41.22Y-33.9
X43.02Y-52.95
X44.82Y-72.0
X46.62Y-110.1
X50.22Y-91.05
X59.22Y-33.9
X62.82Y-52.95
X66.42Y-72.0
X70.02Y-110.1
X77.22Y-33.9
X77.22Y-91.05
X80.82Y-52.95
X84.42Y-72.0
X88.02Y-110.1
X95.22Y-33.9
X95.22Y-91.05
X98.82Y-52.95
X102.42Y-72.0
X113.22Y-33.9
X113.22Y-91.05
X116.82Y-52.95
X120.42Y-72.0
X124.02Y-110.1
X131.22Y-33.9
X131.22Y-91.05
X134.82Y-52.95
X138.42Y-72.0
X149.22Y-33.9
X149.22Y-91.05
X152.82Y-52.95
X154.62Y-110.1
X156.42Y-72.0
X167.22Y-33.9
X167.22Y-91.05
X170.82Y-52.95
X173.52Y-110.1
X174.42Y-72.0
X185.22Y-33.9
X185.22Y-91.05
X188.82Y-52.95
X189.72Y-110.1
X192.42Y-72.0
X203.22Y-33.9
X203.22Y-91.05
X205.92Y-110.1
X206.82Y-52.95
X210.42Y-72.0
X221.22Y-33.9
X221.22Y-91.05
X222.12Y-110.1
X224.82Y-52.95
X227.52Y-72.0
X238.32Y-33.9
X239.22Y-91.05
X241.92Y-52.95
X243.72Y-72.0
X254.52Y-33.9
X258.12Y-52.95
X266.22Y-91.05
X268.02Y-72.0
X273.42Y-33.9
X275.22Y-52.95
T2
X30.5Y-38.1
X32.3Y-57.15
X34.1Y-76.2
X35.9Y-114.3
X39.5Y-95.25
X41.5Y-38.1
X43.3Y-57.15
X45.1Y-76.2
X46.9Y-114.3
X48.5Y-38.1
X50.5Y-95.25
X52.1Y-57.15
X55.7Y-76.2
X59.3Y-114.3
X59.5Y-38.1
X63.1Y-57.15
X66.5Y-38.1
X66.5Y-95.25
X66.7Y-76.2
X70.1Y-57.15
X70.3Y-114.3
X73.7Y-76.2
X77.3Y-114.3
X77.5Y-38.1
X77.5Y-95.25
X81.1Y-57.15
X84.5Y-38.1
X84.5Y-95.25
X84.7Y-76.2
X88.1Y-57.15
X88.3Y-114.3
X91.7Y-76.2
X95.5Y-38.1
X95.5Y-95.25
X99.1Y-57.15
X102.5Y-38.1
X102.5Y-95.25
X102.7Y-76.2
X106.1Y-57.15
X109.7Y-76.2
X113.3Y-114.3
X113.5Y-38.1
X113.5Y-95.25
X117.1Y-57.15
X120.5Y-38.1
X120.5Y-95.25
X120.7Y-76.2
X124.1Y-57.15
X124.3Y-114.3
X127.7Y-76.2
X131.5Y-38.1
X131.5Y-95.25
X135.1Y-57.15
X138.5Y-38.1
X138.5Y-95.25
X138.7Y-76.2
X142.1Y-57.15
X143.9Y-114.3
X145.7Y-76.2
X149.5Y-38.1
X149.5Y-95.25
X153.1Y-57.15
X154.9Y-114.3
X156.5Y-38.1
X156.5Y-95.25
X156.7Y-76.2
X160.1Y-57.15
X162.8Y-114.3
X163.7Y-76.2
X167.5Y-38.1
X167.5Y-95.25
X171.1Y-57.15
X173.8Y-114.3
X174.5Y-38.1
X174.5Y-95.25
X174.7Y-76.2
X178.1Y-57.15
X179.0Y-114.3
X181.7Y-76.2
X185.5Y-38.1
X185.5Y-95.25
X189.1Y-57.15
X190.0Y-114.3
X192.5Y-38.1
X192.5Y-95.25
X192.7Y-76.2
X195.2Y-114.3
X196.1Y-57.15
X199.7Y-76.2
X203.5Y-38.1
X203.5Y-95.25
X206.2Y-114.3
X207.1Y-57.15
X210.5Y-38.1
X210.5Y-95.25
X210.7Y-76.2
X211.4Y-114.3
X214.1Y-57.15
X216.8Y-76.2
X221.5Y-38.1
X221.5Y-95.25
X222.4Y-114.3
X225.1Y-57.15
X227.6Y-38.1
X227.8Y-76.2
X228.5Y-95.25
X231.2Y-57.15
X233.0Y-76.2
X238.6Y-38.1
X239.5Y-95.25
X242.2Y-57.15
X243.8Y-38.1
X244.0Y-76.2
X247.4Y-57.15
X254.8Y-38.1
X255.5Y-95.25
X257.3Y-76.2
X258.4Y-57.15
X262.7Y-38.1
X264.5Y-57.15
X266.5Y-95.25
X268.3Y-76.2
X273.7Y-38.1
X275.5Y-57.15
T3
X273.07Y-115.975
X273.07Y-120.825
T4
X276.1Y-115.675
X276.1Y-121.125
T5
X36.0Y-38.1
X37.8Y-57.15
X39.6Y-76.2
X41.4Y-114.3
X45.0Y-95.25
X54.0Y-38.1
X57.6Y-57.15
X61.2Y-76.2
X64.8Y-114.3
X72.0Y-38.1
X72.0Y-95.25
X75.6Y-57.15
X79.2Y-76.2
X82.8Y-114.3
X90.0Y-38.1
X90.0Y-95.25
X93.6Y-57.15
X97.2Y-76.2
X108.0Y-38.1
X108.0Y-95.25
X111.6Y-57.15
X115.2Y-76.2
X118.8Y-114.3
X126.0Y-38.1
X126.0Y-95.25
X129.6Y-57.15
X133.2Y-76.2
X144.0Y-38.1
X144.0Y-95.25
X147.6Y-57.15
X149.4Y-114.3
X151.2Y-76.2
X162.0Y-38.1
X162.0Y-95.25
X165.6Y-57.15
X168.3Y-114.3
X169.2Y-76.2
X180.0Y-38.1
X180.0Y-95.25
X183.6Y-57.15
X184.5Y-114.3
X187.2Y-76.2
X198.0Y-38.1
X198.0Y-95.25
X200.7Y-114.3
X201.6Y-57.15
X205.2Y-76.2
X216.0Y-38.1
X216.0Y-95.25
X216.9Y-114.3
X219.6Y-57.15
X222.3Y-76.2
X233.1Y-38.1
X234.0Y-95.25
X236.7Y-57.15
X238.5Y-76.2
X249.3Y-38.1
X252.9Y-57.15
X261.0Y-95.25
X262.8Y-76.2
X268.2Y-38.1
X270.0Y-57.15
M30
