%TF.GenerationSoftware,KiCad,Pcbnew,10.0.3*%
%TF.CreationDate,2026-07-02T13:18:22-07:00*%
%TF.ProjectId,keyboardv4,6b657962-6f61-4726-9476-342e6b696361,rev?*%
%TF.SameCoordinates,Original*%
%TF.FileFunction,Soldermask,Top*%
%TF.FilePolarity,Negative*%
%FSLAX46Y46*%
G04 Gerber Fmt 4.6, Leading zero omitted, Abs format (unit mm)*
G04 Created by KiCad (PCBNEW 10.0.3) date 2026-07-02 13:18:22*
%MOMM*%
%LPD*%
G01*
G04 APERTURE LIST*
G04 Aperture macros list*
%AMRoundRect*
0 Rectangle with rounded corners*
0 $1 Rounding radius*
0 $2 $3 $4 $5 $6 $7 $8 $9 X,Y pos of 4 corners*
0 Add a 4 corners polygon primitive as box body*
4,1,4,$2,$3,$4,$5,$6,$7,$8,$9,$2,$3,0*
0 Add four circle primitives for the rounded corners*
1,1,$1+$1,$2,$3*
1,1,$1+$1,$4,$5*
1,1,$1+$1,$6,$7*
1,1,$1+$1,$8,$9*
0 Add four rect primitives between the rounded corners*
20,1,$1+$1,$2,$3,$4,$5,0*
20,1,$1+$1,$4,$5,$6,$7,0*
20,1,$1+$1,$6,$7,$8,$9,0*
20,1,$1+$1,$8,$9,$2,$3,0*%
%AMFreePoly0*
4,1,37,0.603843,0.796157,0.639018,0.796157,0.711114,0.766294,0.766294,0.711114,0.796157,0.639018,0.796157,0.603843,0.800000,0.600000,0.800000,-0.600000,0.796157,-0.603843,0.796157,-0.639018,0.766294,-0.711114,0.711114,-0.766294,0.639018,-0.796157,0.603843,-0.796157,0.600000,-0.800000,0.000000,-0.800000,0.000000,-0.796148,-0.078414,-0.796148,-0.232228,-0.765552,-0.377117,-0.705537,
-0.507515,-0.618408,-0.618408,-0.507515,-0.705537,-0.377117,-0.765552,-0.232228,-0.796148,-0.078414,-0.796148,0.078414,-0.765552,0.232228,-0.705537,0.377117,-0.618408,0.507515,-0.507515,0.618408,-0.377117,0.705537,-0.232228,0.765552,-0.078414,0.796148,0.000000,0.796148,0.000000,0.800000,0.600000,0.800000,0.603843,0.796157,0.603843,0.796157,$1*%
%AMFreePoly1*
4,1,37,0.000000,0.796148,0.078414,0.796148,0.232228,0.765552,0.377117,0.705537,0.507515,0.618408,0.618408,0.507515,0.705537,0.377117,0.765552,0.232228,0.796148,0.078414,0.796148,-0.078414,0.765552,-0.232228,0.705537,-0.377117,0.618408,-0.507515,0.507515,-0.618408,0.377117,-0.705537,0.232228,-0.765552,0.078414,-0.796148,0.000000,-0.796148,0.000000,-0.800000,-0.600000,-0.800000,
-0.603843,-0.796157,-0.639018,-0.796157,-0.711114,-0.766294,-0.766294,-0.711114,-0.796157,-0.639018,-0.796157,-0.603843,-0.800000,-0.600000,-0.800000,0.600000,-0.796157,0.603843,-0.796157,0.639018,-0.766294,0.711114,-0.711114,0.766294,-0.639018,0.796157,-0.603843,0.796157,-0.600000,0.800000,0.000000,0.800000,0.000000,0.796148,0.000000,0.796148,$1*%
G04 Aperture macros list end*
%ADD10C,2.032000*%
%ADD11C,1.701800*%
%ADD12C,0.990600*%
%ADD13C,3.429000*%
%ADD14C,1.600000*%
%ADD15RoundRect,0.250000X0.550000X0.550000X-0.550000X0.550000X-0.550000X-0.550000X0.550000X-0.550000X0*%
%ADD16C,2.200000*%
%ADD17C,1.850000*%
%ADD18RoundRect,0.200000X0.600000X-0.600000X0.600000X0.600000X-0.600000X0.600000X-0.600000X-0.600000X0*%
%ADD19FreePoly0,90.000000*%
%ADD20FreePoly1,90.000000*%
G04 APERTURE END LIST*
D10*
%TO.C,SW57*%
X113800000Y-118100000D03*
X118800000Y-120200000D03*
D11*
X124300000Y-114300000D03*
D12*
X124020000Y-110100000D03*
D13*
X118800000Y-114300000D03*
D11*
X113300000Y-114300000D03*
%TD*%
D10*
%TO.C,SW59*%
X163300000Y-118100000D03*
X168300000Y-120200000D03*
D11*
X173800000Y-114300000D03*
D12*
X173520000Y-110100000D03*
D13*
X168300000Y-114300000D03*
D11*
X162800000Y-114300000D03*
%TD*%
D10*
%TO.C,SW60*%
X179500000Y-118100000D03*
X184500000Y-120200000D03*
D11*
X190000000Y-114300000D03*
D12*
X189720000Y-110100000D03*
D13*
X184500000Y-114300000D03*
D11*
X179000000Y-114300000D03*
%TD*%
D10*
%TO.C,SW62*%
X211899999Y-118100000D03*
X216899999Y-120200000D03*
D11*
X222399999Y-114300000D03*
D12*
X222119999Y-110100000D03*
D13*
X216899999Y-114300000D03*
D11*
X211399999Y-114300000D03*
%TD*%
D10*
%TO.C,SW61*%
X195699999Y-118100000D03*
X200699999Y-120200000D03*
D11*
X206199999Y-114300000D03*
D12*
X205919999Y-110100000D03*
D13*
X200699999Y-114300000D03*
D11*
X195199999Y-114300000D03*
%TD*%
D10*
%TO.C,SW58*%
X144400000Y-118100000D03*
X149400000Y-120200000D03*
D11*
X154900000Y-114300000D03*
D12*
X154620000Y-110100000D03*
D13*
X149400000Y-114300000D03*
D11*
X143900000Y-114300000D03*
%TD*%
D14*
%TO.C,D61*%
X197079999Y-123400000D03*
D15*
X204699999Y-123400000D03*
%TD*%
D14*
%TO.C,D58*%
X145780000Y-123400000D03*
D15*
X153400000Y-123400000D03*
%TD*%
D14*
%TO.C,D60*%
X180880000Y-123400000D03*
D15*
X188500000Y-123400000D03*
%TD*%
D14*
%TO.C,D59*%
X164680000Y-123400000D03*
D15*
X172300000Y-123400000D03*
%TD*%
D14*
%TO.C,D62*%
X213279999Y-123400000D03*
D15*
X220899999Y-123400000D03*
%TD*%
D16*
%TO.C,A1*%
X276100000Y-121125000D03*
D17*
X273070000Y-120825000D03*
X273070000Y-115975000D03*
D16*
X276100000Y-115675000D03*
D18*
X276230000Y-127290000D03*
D14*
X273690000Y-127290000D03*
D19*
X271150000Y-127290000D03*
D14*
X268610000Y-127290000D03*
X266070000Y-127290000D03*
X263530000Y-127290000D03*
X260990000Y-127290000D03*
D19*
X258450000Y-127290000D03*
D14*
X255910000Y-127290000D03*
X253370000Y-127290000D03*
X250830000Y-127290000D03*
X248290000Y-127290000D03*
D19*
X245750000Y-127290000D03*
D14*
X243210000Y-127290000D03*
X240670000Y-127290000D03*
X238130000Y-127290000D03*
X235590000Y-127290000D03*
D19*
X233050000Y-127290000D03*
D14*
X230510000Y-127290000D03*
X227970000Y-127290000D03*
X227970000Y-109510000D03*
X230510000Y-109510000D03*
D20*
X233050000Y-109510000D03*
D14*
X235590000Y-109510000D03*
X238130000Y-109510000D03*
X240670000Y-109510000D03*
X243210000Y-109510000D03*
D20*
X245750000Y-109510000D03*
D14*
X248290000Y-109510000D03*
X250830000Y-109510000D03*
X253370000Y-109510000D03*
X255910000Y-109510000D03*
D20*
X258450000Y-109510000D03*
D14*
X260990000Y-109510000D03*
X263530000Y-109510000D03*
X266070000Y-109510000D03*
X268610000Y-109510000D03*
D20*
X271150000Y-109510000D03*
D14*
X273690000Y-109510000D03*
X276230000Y-109510000D03*
%TD*%
D15*
%TO.C,D2*%
X58000000Y-47100000D03*
D14*
X50380000Y-47100000D03*
%TD*%
D15*
%TO.C,D19*%
X115600000Y-66150000D03*
D14*
X107980000Y-66150000D03*
%TD*%
D11*
%TO.C,SW3*%
X66500000Y-38100000D03*
D13*
X72000000Y-38100000D03*
D12*
X77220000Y-33900000D03*
D11*
X77500000Y-38100000D03*
D10*
X72000000Y-44000000D03*
X67000000Y-41900000D03*
%TD*%
D15*
%TO.C,D22*%
X169600000Y-66150000D03*
D14*
X161980000Y-66150000D03*
%TD*%
D15*
%TO.C,D43*%
X76000000Y-104250000D03*
D14*
X68380000Y-104250000D03*
%TD*%
D15*
%TO.C,D9*%
X184000000Y-47100000D03*
D14*
X176380000Y-47100000D03*
%TD*%
D11*
%TO.C,SW19*%
X106100000Y-57150000D03*
D13*
X111600000Y-57150000D03*
D12*
X116820000Y-52950000D03*
D11*
X117100000Y-57150000D03*
D10*
X111600000Y-63050000D03*
X106600000Y-60950000D03*
%TD*%
D11*
%TO.C,SW31*%
X73700000Y-76200000D03*
D13*
X79200000Y-76200000D03*
D12*
X84420000Y-72000000D03*
D11*
X84700000Y-76200000D03*
D10*
X79200000Y-82100000D03*
X74200000Y-80000000D03*
%TD*%
D11*
%TO.C,SW41*%
X257300000Y-76200000D03*
D13*
X262800000Y-76200000D03*
D12*
X268020000Y-72000000D03*
D11*
X268300000Y-76200000D03*
D10*
X262800000Y-82100000D03*
X257800000Y-80000000D03*
%TD*%
D11*
%TO.C,SW32*%
X91700000Y-76200000D03*
D13*
X97200000Y-76200000D03*
D12*
X102420000Y-72000000D03*
D11*
X102700000Y-76200000D03*
D10*
X97200000Y-82100000D03*
X92200000Y-80000000D03*
%TD*%
D11*
%TO.C,SW8*%
X156500000Y-38100000D03*
D13*
X162000000Y-38100000D03*
D12*
X167220000Y-33900000D03*
D11*
X167500000Y-38100000D03*
D10*
X162000000Y-44000000D03*
X157000000Y-41900000D03*
%TD*%
D11*
%TO.C,SW46*%
X120500000Y-95250000D03*
D13*
X126000000Y-95250000D03*
D12*
X131220000Y-91050000D03*
D11*
X131500000Y-95250000D03*
D10*
X126000000Y-101150000D03*
X121000000Y-99050000D03*
%TD*%
D15*
%TO.C,D35*%
X155200000Y-85200000D03*
D14*
X147580000Y-85200000D03*
%TD*%
D11*
%TO.C,SW40*%
X233000000Y-76200000D03*
D13*
X238500000Y-76200000D03*
D12*
X243720000Y-72000000D03*
D11*
X244000000Y-76200000D03*
D10*
X238500000Y-82100000D03*
X233500000Y-80000000D03*
%TD*%
D11*
%TO.C,SW13*%
X243800000Y-38100000D03*
D13*
X249300000Y-38100000D03*
D12*
X254520000Y-33900000D03*
D11*
X254800000Y-38100000D03*
D10*
X249300000Y-44000000D03*
X244300000Y-41900000D03*
%TD*%
D15*
%TO.C,D1*%
X40000000Y-47100000D03*
D14*
X32380000Y-47100000D03*
%TD*%
D11*
%TO.C,SW12*%
X227600000Y-38100000D03*
D13*
X233100000Y-38100000D03*
D12*
X238320000Y-33900000D03*
D11*
X238600000Y-38100000D03*
D10*
X233100000Y-44000000D03*
X228100000Y-41900000D03*
%TD*%
D11*
%TO.C,SW7*%
X138500000Y-38100000D03*
D13*
X144000000Y-38100000D03*
D12*
X149220000Y-33900000D03*
D11*
X149500000Y-38100000D03*
D10*
X144000000Y-44000000D03*
X139000000Y-41900000D03*
%TD*%
D15*
%TO.C,D40*%
X242500000Y-85200000D03*
D14*
X234880000Y-85200000D03*
%TD*%
D15*
%TO.C,D46*%
X130000000Y-104250000D03*
D14*
X122380000Y-104250000D03*
%TD*%
D15*
%TO.C,D51*%
X220000000Y-104250000D03*
D14*
X212380000Y-104250000D03*
%TD*%
D15*
%TO.C,D45*%
X112000000Y-104250000D03*
D14*
X104380000Y-104250000D03*
%TD*%
D15*
%TO.C,D4*%
X94000000Y-47100000D03*
D14*
X86380000Y-47100000D03*
%TD*%
D15*
%TO.C,D25*%
X223600000Y-66150000D03*
D14*
X215980000Y-66150000D03*
%TD*%
D15*
%TO.C,D38*%
X209200000Y-85200000D03*
D14*
X201580000Y-85200000D03*
%TD*%
D15*
%TO.C,D20*%
X133600000Y-66150000D03*
D14*
X125980000Y-66150000D03*
%TD*%
D11*
%TO.C,SW16*%
X52100000Y-57150000D03*
D13*
X57600000Y-57150000D03*
D12*
X62820000Y-52950000D03*
D11*
X63100000Y-57150000D03*
D10*
X57600000Y-63050000D03*
X52600000Y-60950000D03*
%TD*%
D15*
%TO.C,D27*%
X256899999Y-66150000D03*
D14*
X249279999Y-66150000D03*
%TD*%
D15*
%TO.C,D5*%
X112000000Y-47100000D03*
D14*
X104380000Y-47100000D03*
%TD*%
D15*
%TO.C,D52*%
X238000000Y-104250000D03*
D14*
X230380000Y-104250000D03*
%TD*%
D15*
%TO.C,D31*%
X83200000Y-85200000D03*
D14*
X75580000Y-85200000D03*
%TD*%
D15*
%TO.C,D53*%
X265000000Y-104250000D03*
D14*
X257380000Y-104250000D03*
%TD*%
D11*
%TO.C,SW56*%
X77300000Y-114300000D03*
D13*
X82800000Y-114300000D03*
D12*
X88020000Y-110100000D03*
D11*
X88300000Y-114300000D03*
D10*
X82800000Y-120200000D03*
X77800000Y-118100000D03*
%TD*%
D15*
%TO.C,D3*%
X76000000Y-47100000D03*
D14*
X68380000Y-47100000D03*
%TD*%
D15*
%TO.C,D47*%
X148000000Y-104250000D03*
D14*
X140380000Y-104250000D03*
%TD*%
D15*
%TO.C,D29*%
X43600000Y-85200000D03*
D14*
X35980000Y-85200000D03*
%TD*%
D11*
%TO.C,SW49*%
X174500000Y-95250000D03*
D13*
X180000000Y-95250000D03*
D12*
X185220000Y-91050000D03*
D11*
X185500000Y-95250000D03*
D10*
X180000000Y-101150000D03*
X175000000Y-99050000D03*
%TD*%
D11*
%TO.C,SW54*%
X35900000Y-114300000D03*
D13*
X41400000Y-114300000D03*
D12*
X46620000Y-110100000D03*
D11*
X46900000Y-114300000D03*
D10*
X41400000Y-120200000D03*
X36400000Y-118100000D03*
%TD*%
D11*
%TO.C,SW20*%
X124100000Y-57150000D03*
D13*
X129600000Y-57150000D03*
D12*
X134820000Y-52950000D03*
D11*
X135100000Y-57150000D03*
D10*
X129600000Y-63050000D03*
X124600000Y-60950000D03*
%TD*%
D11*
%TO.C,SW44*%
X84500000Y-95250000D03*
D13*
X90000000Y-95250000D03*
D12*
X95220000Y-91050000D03*
D11*
X95500000Y-95250000D03*
D10*
X90000000Y-101150000D03*
X85000000Y-99050000D03*
%TD*%
D15*
%TO.C,D33*%
X119200000Y-85200000D03*
D14*
X111580000Y-85200000D03*
%TD*%
D11*
%TO.C,SW1*%
X30500000Y-38100000D03*
D13*
X36000000Y-38100000D03*
D12*
X41220000Y-33900000D03*
D11*
X41500000Y-38100000D03*
D10*
X36000000Y-44000000D03*
X31000000Y-41900000D03*
%TD*%
D15*
%TO.C,D16*%
X61600000Y-66150000D03*
D14*
X53980000Y-66150000D03*
%TD*%
D15*
%TO.C,D23*%
X187600000Y-66150000D03*
D14*
X179980000Y-66150000D03*
%TD*%
D11*
%TO.C,SW50*%
X192500000Y-95250000D03*
D13*
X198000000Y-95250000D03*
D12*
X203220000Y-91050000D03*
D11*
X203500000Y-95250000D03*
D10*
X198000000Y-101150000D03*
X193000000Y-99050000D03*
%TD*%
D15*
%TO.C,D18*%
X97600000Y-66150000D03*
D14*
X89980000Y-66150000D03*
%TD*%
D15*
%TO.C,D56*%
X86800000Y-123300000D03*
D14*
X79180000Y-123300000D03*
%TD*%
D11*
%TO.C,SW28*%
X264500000Y-57150000D03*
D13*
X270000000Y-57150000D03*
D12*
X275220000Y-52950000D03*
D11*
X275500000Y-57150000D03*
D10*
X270000000Y-63050000D03*
X265000000Y-60950000D03*
%TD*%
D11*
%TO.C,SW43*%
X66500000Y-95250000D03*
D13*
X72000000Y-95250000D03*
D12*
X77220000Y-91050000D03*
D11*
X77500000Y-95250000D03*
D10*
X72000000Y-101150000D03*
X67000000Y-99050000D03*
%TD*%
D15*
%TO.C,D21*%
X151600000Y-66150000D03*
D14*
X143980000Y-66150000D03*
%TD*%
D11*
%TO.C,SW37*%
X181700000Y-76200000D03*
D13*
X187200000Y-76200000D03*
D12*
X192420000Y-72000000D03*
D11*
X192700000Y-76200000D03*
D10*
X187200000Y-82100000D03*
X182200000Y-80000000D03*
%TD*%
D11*
%TO.C,SW5*%
X102500000Y-38100000D03*
D13*
X108000000Y-38100000D03*
D12*
X113220000Y-33900000D03*
D11*
X113500000Y-38100000D03*
D10*
X108000000Y-44000000D03*
X103000000Y-41900000D03*
%TD*%
D15*
%TO.C,D6*%
X130000000Y-47100000D03*
D14*
X122380000Y-47100000D03*
%TD*%
D11*
%TO.C,SW30*%
X55700000Y-76200000D03*
D13*
X61200000Y-76200000D03*
D12*
X66420000Y-72000000D03*
D11*
X66700000Y-76200000D03*
D10*
X61200000Y-82100000D03*
X56200000Y-80000000D03*
%TD*%
D11*
%TO.C,SW4*%
X84500000Y-38100000D03*
D13*
X90000000Y-38100000D03*
D12*
X95220000Y-33900000D03*
D11*
X95500000Y-38100000D03*
D10*
X90000000Y-44000000D03*
X85000000Y-41900000D03*
%TD*%
D11*
%TO.C,SW14*%
X262700000Y-38100000D03*
D13*
X268200000Y-38100000D03*
D12*
X273420000Y-33900000D03*
D11*
X273700000Y-38100000D03*
D10*
X268200000Y-44000000D03*
X263200000Y-41900000D03*
%TD*%
D15*
%TO.C,D7*%
X148000000Y-47100000D03*
D14*
X140380000Y-47100000D03*
%TD*%
D11*
%TO.C,SW10*%
X192500000Y-38100000D03*
D13*
X198000000Y-38100000D03*
D12*
X203220000Y-33900000D03*
D11*
X203500000Y-38100000D03*
D10*
X198000000Y-44000000D03*
X193000000Y-41900000D03*
%TD*%
D15*
%TO.C,D8*%
X166000000Y-47100000D03*
D14*
X158380000Y-47100000D03*
%TD*%
D11*
%TO.C,SW52*%
X228500000Y-95250000D03*
D13*
X234000000Y-95250000D03*
D12*
X239220000Y-91050000D03*
D11*
X239500000Y-95250000D03*
D10*
X234000000Y-101150000D03*
X229000000Y-99050000D03*
%TD*%
D15*
%TO.C,D57*%
X122800000Y-123300000D03*
D14*
X115180000Y-123300000D03*
%TD*%
D11*
%TO.C,SW38*%
X199700000Y-76200000D03*
D13*
X205200000Y-76200000D03*
D12*
X210420000Y-72000000D03*
D11*
X210700000Y-76200000D03*
D10*
X205200000Y-82100000D03*
X200200000Y-80000000D03*
%TD*%
D11*
%TO.C,SW35*%
X145700000Y-76200000D03*
D13*
X151200000Y-76200000D03*
D12*
X156420000Y-72000000D03*
D11*
X156700000Y-76200000D03*
D10*
X151200000Y-82100000D03*
X146200000Y-80000000D03*
%TD*%
D11*
%TO.C,SW51*%
X210500000Y-95250000D03*
D13*
X216000000Y-95250000D03*
D12*
X221220000Y-91050000D03*
D11*
X221500000Y-95250000D03*
D10*
X216000000Y-101150000D03*
X211000000Y-99050000D03*
%TD*%
D15*
%TO.C,D10*%
X202000000Y-47100000D03*
D14*
X194380000Y-47100000D03*
%TD*%
D15*
%TO.C,D15*%
X41800000Y-66150000D03*
D14*
X34180000Y-66150000D03*
%TD*%
D15*
%TO.C,D50*%
X202000000Y-104250000D03*
D14*
X194380000Y-104250000D03*
%TD*%
D15*
%TO.C,D26*%
X240699999Y-66150000D03*
D14*
X233079999Y-66150000D03*
%TD*%
D11*
%TO.C,SW53*%
X255500000Y-95250000D03*
D13*
X261000000Y-95250000D03*
D12*
X266220000Y-91050000D03*
D11*
X266500000Y-95250000D03*
D10*
X261000000Y-101150000D03*
X256000000Y-99050000D03*
%TD*%
D11*
%TO.C,SW48*%
X156500000Y-95250000D03*
D13*
X162000000Y-95250000D03*
D12*
X167220000Y-91050000D03*
D11*
X167500000Y-95250000D03*
D10*
X162000000Y-101150000D03*
X157000000Y-99050000D03*
%TD*%
D15*
%TO.C,D41*%
X266800000Y-85200000D03*
D14*
X259180000Y-85200000D03*
%TD*%
D11*
%TO.C,SW34*%
X127700000Y-76200000D03*
D13*
X133200000Y-76200000D03*
D12*
X138420000Y-72000000D03*
D11*
X138700000Y-76200000D03*
D10*
X133200000Y-82100000D03*
X128200000Y-80000000D03*
%TD*%
D15*
%TO.C,D28*%
X274000000Y-66150000D03*
D14*
X266380000Y-66150000D03*
%TD*%
D15*
%TO.C,D37*%
X191200000Y-85200000D03*
D14*
X183580000Y-85200000D03*
%TD*%
D15*
%TO.C,D34*%
X137200000Y-85200000D03*
D14*
X129580000Y-85200000D03*
%TD*%
D15*
%TO.C,D14*%
X272200000Y-47100000D03*
D14*
X264580000Y-47100000D03*
%TD*%
D15*
%TO.C,D30*%
X65200000Y-85200000D03*
D14*
X57580000Y-85200000D03*
%TD*%
D11*
%TO.C,SW15*%
X32300000Y-57150000D03*
D13*
X37800000Y-57150000D03*
D12*
X43020000Y-52950000D03*
D11*
X43300000Y-57150000D03*
D10*
X37800000Y-63050000D03*
X32800000Y-60950000D03*
%TD*%
D15*
%TO.C,D39*%
X226300000Y-85200000D03*
D14*
X218680000Y-85200000D03*
%TD*%
D11*
%TO.C,SW39*%
X216800000Y-76200000D03*
D13*
X222300000Y-76200000D03*
D12*
X227520000Y-72000000D03*
D11*
X227800000Y-76200000D03*
D10*
X222300000Y-82100000D03*
X217300000Y-80000000D03*
%TD*%
D15*
%TO.C,D12*%
X237100000Y-47100000D03*
D14*
X229480000Y-47100000D03*
%TD*%
D11*
%TO.C,SW55*%
X59300000Y-114300000D03*
D13*
X64800000Y-114300000D03*
D12*
X70020000Y-110100000D03*
D11*
X70300000Y-114300000D03*
D10*
X64800000Y-120200000D03*
X59800000Y-118100000D03*
%TD*%
D15*
%TO.C,D17*%
X79600000Y-66150000D03*
D14*
X71980000Y-66150000D03*
%TD*%
D11*
%TO.C,SW27*%
X247399999Y-57150000D03*
D13*
X252899999Y-57150000D03*
D12*
X258119999Y-52950000D03*
D11*
X258399999Y-57150000D03*
D10*
X252899999Y-63050000D03*
X247899999Y-60950000D03*
%TD*%
D11*
%TO.C,SW9*%
X174500000Y-38100000D03*
D13*
X180000000Y-38100000D03*
D12*
X185220000Y-33900000D03*
D11*
X185500000Y-38100000D03*
D10*
X180000000Y-44000000D03*
X175000000Y-41900000D03*
%TD*%
D15*
%TO.C,D11*%
X220000000Y-47100000D03*
D14*
X212380000Y-47100000D03*
%TD*%
D15*
%TO.C,D48*%
X166000000Y-104250000D03*
D14*
X158380000Y-104250000D03*
%TD*%
D11*
%TO.C,SW25*%
X214100000Y-57150000D03*
D13*
X219600000Y-57150000D03*
D12*
X224820000Y-52950000D03*
D11*
X225100000Y-57150000D03*
D10*
X219600000Y-63050000D03*
X214600000Y-60950000D03*
%TD*%
D15*
%TO.C,D36*%
X173200000Y-85200000D03*
D14*
X165580000Y-85200000D03*
%TD*%
D11*
%TO.C,SW26*%
X231199999Y-57150000D03*
D13*
X236699999Y-57150000D03*
D12*
X241919999Y-52950000D03*
D11*
X242199999Y-57150000D03*
D10*
X236699999Y-63050000D03*
X231699999Y-60950000D03*
%TD*%
D15*
%TO.C,D49*%
X184000000Y-104250000D03*
D14*
X176380000Y-104250000D03*
%TD*%
D11*
%TO.C,SW42*%
X39500000Y-95250000D03*
D13*
X45000000Y-95250000D03*
D12*
X50220000Y-91050000D03*
D11*
X50500000Y-95250000D03*
D10*
X45000000Y-101150000D03*
X40000000Y-99050000D03*
%TD*%
D15*
%TO.C,D32*%
X101200000Y-85200000D03*
D14*
X93580000Y-85200000D03*
%TD*%
D11*
%TO.C,SW21*%
X142100000Y-57150000D03*
D13*
X147600000Y-57150000D03*
D12*
X152820000Y-52950000D03*
D11*
X153100000Y-57150000D03*
D10*
X147600000Y-63050000D03*
X142600000Y-60950000D03*
%TD*%
D11*
%TO.C,SW23*%
X178100000Y-57150000D03*
D13*
X183600000Y-57150000D03*
D12*
X188820000Y-52950000D03*
D11*
X189100000Y-57150000D03*
D10*
X183600000Y-63050000D03*
X178600000Y-60950000D03*
%TD*%
D11*
%TO.C,SW36*%
X163700000Y-76200000D03*
D13*
X169200000Y-76200000D03*
D12*
X174420000Y-72000000D03*
D11*
X174700000Y-76200000D03*
D10*
X169200000Y-82100000D03*
X164200000Y-80000000D03*
%TD*%
D15*
%TO.C,D24*%
X205600000Y-66150000D03*
D14*
X197980000Y-66150000D03*
%TD*%
D11*
%TO.C,SW6*%
X120500000Y-38100000D03*
D13*
X126000000Y-38100000D03*
D12*
X131220000Y-33900000D03*
D11*
X131500000Y-38100000D03*
D10*
X126000000Y-44000000D03*
X121000000Y-41900000D03*
%TD*%
D15*
%TO.C,D42*%
X49000000Y-104250000D03*
D14*
X41380000Y-104250000D03*
%TD*%
D11*
%TO.C,SW17*%
X70100000Y-57150000D03*
D13*
X75600000Y-57150000D03*
D12*
X80820000Y-52950000D03*
D11*
X81100000Y-57150000D03*
D10*
X75600000Y-63050000D03*
X70600000Y-60950000D03*
%TD*%
D11*
%TO.C,SW29*%
X34100000Y-76200000D03*
D13*
X39600000Y-76200000D03*
D12*
X44820000Y-72000000D03*
D11*
X45100000Y-76200000D03*
D10*
X39600000Y-82100000D03*
X34600000Y-80000000D03*
%TD*%
D11*
%TO.C,SW2*%
X48500000Y-38100000D03*
D13*
X54000000Y-38100000D03*
D12*
X59220000Y-33900000D03*
D11*
X59500000Y-38100000D03*
D10*
X54000000Y-44000000D03*
X49000000Y-41900000D03*
%TD*%
D15*
%TO.C,D44*%
X94000000Y-104250000D03*
D14*
X86380000Y-104250000D03*
%TD*%
D15*
%TO.C,D54*%
X45400000Y-123300000D03*
D14*
X37780000Y-123300000D03*
%TD*%
D11*
%TO.C,SW11*%
X210500000Y-38100000D03*
D13*
X216000000Y-38100000D03*
D12*
X221220000Y-33900000D03*
D11*
X221500000Y-38100000D03*
D10*
X216000000Y-44000000D03*
X211000000Y-41900000D03*
%TD*%
D11*
%TO.C,SW33*%
X109700000Y-76200000D03*
D13*
X115200000Y-76200000D03*
D12*
X120420000Y-72000000D03*
D11*
X120700000Y-76200000D03*
D10*
X115200000Y-82100000D03*
X110200000Y-80000000D03*
%TD*%
D15*
%TO.C,D55*%
X68800000Y-123300000D03*
D14*
X61180000Y-123300000D03*
%TD*%
D11*
%TO.C,SW24*%
X196100000Y-57150000D03*
D13*
X201600000Y-57150000D03*
D12*
X206820000Y-52950000D03*
D11*
X207100000Y-57150000D03*
D10*
X201600000Y-63050000D03*
X196600000Y-60950000D03*
%TD*%
D15*
%TO.C,D13*%
X253300000Y-47100000D03*
D14*
X245680000Y-47100000D03*
%TD*%
D11*
%TO.C,SW45*%
X102500000Y-95250000D03*
D13*
X108000000Y-95250000D03*
D12*
X113220000Y-91050000D03*
D11*
X113500000Y-95250000D03*
D10*
X108000000Y-101150000D03*
X103000000Y-99050000D03*
%TD*%
D11*
%TO.C,SW47*%
X138500000Y-95250000D03*
D13*
X144000000Y-95250000D03*
D12*
X149220000Y-91050000D03*
D11*
X149500000Y-95250000D03*
D10*
X144000000Y-101150000D03*
X139000000Y-99050000D03*
%TD*%
D11*
%TO.C,SW22*%
X160100000Y-57150000D03*
D13*
X165600000Y-57150000D03*
D12*
X170820000Y-52950000D03*
D11*
X171100000Y-57150000D03*
D10*
X165600000Y-63050000D03*
X160600000Y-60950000D03*
%TD*%
D11*
%TO.C,SW18*%
X88100000Y-57150000D03*
D13*
X93600000Y-57150000D03*
D12*
X98820000Y-52950000D03*
D11*
X99100000Y-57150000D03*
D10*
X93600000Y-63050000D03*
X88600000Y-60950000D03*
%TD*%
M02*
