%TF.GenerationSoftware,KiCad,Pcbnew,10.0.3*%
%TF.CreationDate,2026-07-02T13:18:21-07:00*%
%TF.ProjectId,keyboardv4,6b657962-6f61-4726-9476-342e6b696361,rev?*%
%TF.SameCoordinates,Original*%
%TF.FileFunction,Legend,Top*%
%TF.FilePolarity,Positive*%
%FSLAX46Y46*%
G04 Gerber Fmt 4.6, Leading zero omitted, Abs format (unit mm)*
G04 Created by KiCad (PCBNEW 10.0.3) date 2026-07-02 13:18:21*
%MOMM*%
%LPD*%
G01*
G04 APERTURE LIST*
%ADD10C,0.150000*%
G04 APERTURE END LIST*
D10*
X116990476Y-110207200D02*
X117133333Y-110254819D01*
X117133333Y-110254819D02*
X117371428Y-110254819D01*
X117371428Y-110254819D02*
X117466666Y-110207200D01*
X117466666Y-110207200D02*
X117514285Y-110159580D01*
X117514285Y-110159580D02*
X117561904Y-110064342D01*
X117561904Y-110064342D02*
X117561904Y-109969104D01*
X117561904Y-109969104D02*
X117514285Y-109873866D01*
X117514285Y-109873866D02*
X117466666Y-109826247D01*
X117466666Y-109826247D02*
X117371428Y-109778628D01*
X117371428Y-109778628D02*
X117180952Y-109731009D01*
X117180952Y-109731009D02*
X117085714Y-109683390D01*
X117085714Y-109683390D02*
X117038095Y-109635771D01*
X117038095Y-109635771D02*
X116990476Y-109540533D01*
X116990476Y-109540533D02*
X116990476Y-109445295D01*
X116990476Y-109445295D02*
X117038095Y-109350057D01*
X117038095Y-109350057D02*
X117085714Y-109302438D01*
X117085714Y-109302438D02*
X117180952Y-109254819D01*
X117180952Y-109254819D02*
X117419047Y-109254819D01*
X117419047Y-109254819D02*
X117561904Y-109302438D01*
X117895238Y-109254819D02*
X118133333Y-110254819D01*
X118133333Y-110254819D02*
X118323809Y-109540533D01*
X118323809Y-109540533D02*
X118514285Y-110254819D01*
X118514285Y-110254819D02*
X118752381Y-109254819D01*
X119609523Y-109254819D02*
X119133333Y-109254819D01*
X119133333Y-109254819D02*
X119085714Y-109731009D01*
X119085714Y-109731009D02*
X119133333Y-109683390D01*
X119133333Y-109683390D02*
X119228571Y-109635771D01*
X119228571Y-109635771D02*
X119466666Y-109635771D01*
X119466666Y-109635771D02*
X119561904Y-109683390D01*
X119561904Y-109683390D02*
X119609523Y-109731009D01*
X119609523Y-109731009D02*
X119657142Y-109826247D01*
X119657142Y-109826247D02*
X119657142Y-110064342D01*
X119657142Y-110064342D02*
X119609523Y-110159580D01*
X119609523Y-110159580D02*
X119561904Y-110207200D01*
X119561904Y-110207200D02*
X119466666Y-110254819D01*
X119466666Y-110254819D02*
X119228571Y-110254819D01*
X119228571Y-110254819D02*
X119133333Y-110207200D01*
X119133333Y-110207200D02*
X119085714Y-110159580D01*
X119990476Y-109254819D02*
X120657142Y-109254819D01*
X120657142Y-109254819D02*
X120228571Y-110254819D01*
X166490476Y-110207200D02*
X166633333Y-110254819D01*
X166633333Y-110254819D02*
X166871428Y-110254819D01*
X166871428Y-110254819D02*
X166966666Y-110207200D01*
X166966666Y-110207200D02*
X167014285Y-110159580D01*
X167014285Y-110159580D02*
X167061904Y-110064342D01*
X167061904Y-110064342D02*
X167061904Y-109969104D01*
X167061904Y-109969104D02*
X167014285Y-109873866D01*
X167014285Y-109873866D02*
X166966666Y-109826247D01*
X166966666Y-109826247D02*
X166871428Y-109778628D01*
X166871428Y-109778628D02*
X166680952Y-109731009D01*
X166680952Y-109731009D02*
X166585714Y-109683390D01*
X166585714Y-109683390D02*
X166538095Y-109635771D01*
X166538095Y-109635771D02*
X166490476Y-109540533D01*
X166490476Y-109540533D02*
X166490476Y-109445295D01*
X166490476Y-109445295D02*
X166538095Y-109350057D01*
X166538095Y-109350057D02*
X166585714Y-109302438D01*
X166585714Y-109302438D02*
X166680952Y-109254819D01*
X166680952Y-109254819D02*
X166919047Y-109254819D01*
X166919047Y-109254819D02*
X167061904Y-109302438D01*
X167395238Y-109254819D02*
X167633333Y-110254819D01*
X167633333Y-110254819D02*
X167823809Y-109540533D01*
X167823809Y-109540533D02*
X168014285Y-110254819D01*
X168014285Y-110254819D02*
X168252381Y-109254819D01*
X169109523Y-109254819D02*
X168633333Y-109254819D01*
X168633333Y-109254819D02*
X168585714Y-109731009D01*
X168585714Y-109731009D02*
X168633333Y-109683390D01*
X168633333Y-109683390D02*
X168728571Y-109635771D01*
X168728571Y-109635771D02*
X168966666Y-109635771D01*
X168966666Y-109635771D02*
X169061904Y-109683390D01*
X169061904Y-109683390D02*
X169109523Y-109731009D01*
X169109523Y-109731009D02*
X169157142Y-109826247D01*
X169157142Y-109826247D02*
X169157142Y-110064342D01*
X169157142Y-110064342D02*
X169109523Y-110159580D01*
X169109523Y-110159580D02*
X169061904Y-110207200D01*
X169061904Y-110207200D02*
X168966666Y-110254819D01*
X168966666Y-110254819D02*
X168728571Y-110254819D01*
X168728571Y-110254819D02*
X168633333Y-110207200D01*
X168633333Y-110207200D02*
X168585714Y-110159580D01*
X169633333Y-110254819D02*
X169823809Y-110254819D01*
X169823809Y-110254819D02*
X169919047Y-110207200D01*
X169919047Y-110207200D02*
X169966666Y-110159580D01*
X169966666Y-110159580D02*
X170061904Y-110016723D01*
X170061904Y-110016723D02*
X170109523Y-109826247D01*
X170109523Y-109826247D02*
X170109523Y-109445295D01*
X170109523Y-109445295D02*
X170061904Y-109350057D01*
X170061904Y-109350057D02*
X170014285Y-109302438D01*
X170014285Y-109302438D02*
X169919047Y-109254819D01*
X169919047Y-109254819D02*
X169728571Y-109254819D01*
X169728571Y-109254819D02*
X169633333Y-109302438D01*
X169633333Y-109302438D02*
X169585714Y-109350057D01*
X169585714Y-109350057D02*
X169538095Y-109445295D01*
X169538095Y-109445295D02*
X169538095Y-109683390D01*
X169538095Y-109683390D02*
X169585714Y-109778628D01*
X169585714Y-109778628D02*
X169633333Y-109826247D01*
X169633333Y-109826247D02*
X169728571Y-109873866D01*
X169728571Y-109873866D02*
X169919047Y-109873866D01*
X169919047Y-109873866D02*
X170014285Y-109826247D01*
X170014285Y-109826247D02*
X170061904Y-109778628D01*
X170061904Y-109778628D02*
X170109523Y-109683390D01*
X182690476Y-110207200D02*
X182833333Y-110254819D01*
X182833333Y-110254819D02*
X183071428Y-110254819D01*
X183071428Y-110254819D02*
X183166666Y-110207200D01*
X183166666Y-110207200D02*
X183214285Y-110159580D01*
X183214285Y-110159580D02*
X183261904Y-110064342D01*
X183261904Y-110064342D02*
X183261904Y-109969104D01*
X183261904Y-109969104D02*
X183214285Y-109873866D01*
X183214285Y-109873866D02*
X183166666Y-109826247D01*
X183166666Y-109826247D02*
X183071428Y-109778628D01*
X183071428Y-109778628D02*
X182880952Y-109731009D01*
X182880952Y-109731009D02*
X182785714Y-109683390D01*
X182785714Y-109683390D02*
X182738095Y-109635771D01*
X182738095Y-109635771D02*
X182690476Y-109540533D01*
X182690476Y-109540533D02*
X182690476Y-109445295D01*
X182690476Y-109445295D02*
X182738095Y-109350057D01*
X182738095Y-109350057D02*
X182785714Y-109302438D01*
X182785714Y-109302438D02*
X182880952Y-109254819D01*
X182880952Y-109254819D02*
X183119047Y-109254819D01*
X183119047Y-109254819D02*
X183261904Y-109302438D01*
X183595238Y-109254819D02*
X183833333Y-110254819D01*
X183833333Y-110254819D02*
X184023809Y-109540533D01*
X184023809Y-109540533D02*
X184214285Y-110254819D01*
X184214285Y-110254819D02*
X184452381Y-109254819D01*
X185261904Y-109254819D02*
X185071428Y-109254819D01*
X185071428Y-109254819D02*
X184976190Y-109302438D01*
X184976190Y-109302438D02*
X184928571Y-109350057D01*
X184928571Y-109350057D02*
X184833333Y-109492914D01*
X184833333Y-109492914D02*
X184785714Y-109683390D01*
X184785714Y-109683390D02*
X184785714Y-110064342D01*
X184785714Y-110064342D02*
X184833333Y-110159580D01*
X184833333Y-110159580D02*
X184880952Y-110207200D01*
X184880952Y-110207200D02*
X184976190Y-110254819D01*
X184976190Y-110254819D02*
X185166666Y-110254819D01*
X185166666Y-110254819D02*
X185261904Y-110207200D01*
X185261904Y-110207200D02*
X185309523Y-110159580D01*
X185309523Y-110159580D02*
X185357142Y-110064342D01*
X185357142Y-110064342D02*
X185357142Y-109826247D01*
X185357142Y-109826247D02*
X185309523Y-109731009D01*
X185309523Y-109731009D02*
X185261904Y-109683390D01*
X185261904Y-109683390D02*
X185166666Y-109635771D01*
X185166666Y-109635771D02*
X184976190Y-109635771D01*
X184976190Y-109635771D02*
X184880952Y-109683390D01*
X184880952Y-109683390D02*
X184833333Y-109731009D01*
X184833333Y-109731009D02*
X184785714Y-109826247D01*
X185976190Y-109254819D02*
X186071428Y-109254819D01*
X186071428Y-109254819D02*
X186166666Y-109302438D01*
X186166666Y-109302438D02*
X186214285Y-109350057D01*
X186214285Y-109350057D02*
X186261904Y-109445295D01*
X186261904Y-109445295D02*
X186309523Y-109635771D01*
X186309523Y-109635771D02*
X186309523Y-109873866D01*
X186309523Y-109873866D02*
X186261904Y-110064342D01*
X186261904Y-110064342D02*
X186214285Y-110159580D01*
X186214285Y-110159580D02*
X186166666Y-110207200D01*
X186166666Y-110207200D02*
X186071428Y-110254819D01*
X186071428Y-110254819D02*
X185976190Y-110254819D01*
X185976190Y-110254819D02*
X185880952Y-110207200D01*
X185880952Y-110207200D02*
X185833333Y-110159580D01*
X185833333Y-110159580D02*
X185785714Y-110064342D01*
X185785714Y-110064342D02*
X185738095Y-109873866D01*
X185738095Y-109873866D02*
X185738095Y-109635771D01*
X185738095Y-109635771D02*
X185785714Y-109445295D01*
X185785714Y-109445295D02*
X185833333Y-109350057D01*
X185833333Y-109350057D02*
X185880952Y-109302438D01*
X185880952Y-109302438D02*
X185976190Y-109254819D01*
X215090475Y-110207200D02*
X215233332Y-110254819D01*
X215233332Y-110254819D02*
X215471427Y-110254819D01*
X215471427Y-110254819D02*
X215566665Y-110207200D01*
X215566665Y-110207200D02*
X215614284Y-110159580D01*
X215614284Y-110159580D02*
X215661903Y-110064342D01*
X215661903Y-110064342D02*
X215661903Y-109969104D01*
X215661903Y-109969104D02*
X215614284Y-109873866D01*
X215614284Y-109873866D02*
X215566665Y-109826247D01*
X215566665Y-109826247D02*
X215471427Y-109778628D01*
X215471427Y-109778628D02*
X215280951Y-109731009D01*
X215280951Y-109731009D02*
X215185713Y-109683390D01*
X215185713Y-109683390D02*
X215138094Y-109635771D01*
X215138094Y-109635771D02*
X215090475Y-109540533D01*
X215090475Y-109540533D02*
X215090475Y-109445295D01*
X215090475Y-109445295D02*
X215138094Y-109350057D01*
X215138094Y-109350057D02*
X215185713Y-109302438D01*
X215185713Y-109302438D02*
X215280951Y-109254819D01*
X215280951Y-109254819D02*
X215519046Y-109254819D01*
X215519046Y-109254819D02*
X215661903Y-109302438D01*
X215995237Y-109254819D02*
X216233332Y-110254819D01*
X216233332Y-110254819D02*
X216423808Y-109540533D01*
X216423808Y-109540533D02*
X216614284Y-110254819D01*
X216614284Y-110254819D02*
X216852380Y-109254819D01*
X217661903Y-109254819D02*
X217471427Y-109254819D01*
X217471427Y-109254819D02*
X217376189Y-109302438D01*
X217376189Y-109302438D02*
X217328570Y-109350057D01*
X217328570Y-109350057D02*
X217233332Y-109492914D01*
X217233332Y-109492914D02*
X217185713Y-109683390D01*
X217185713Y-109683390D02*
X217185713Y-110064342D01*
X217185713Y-110064342D02*
X217233332Y-110159580D01*
X217233332Y-110159580D02*
X217280951Y-110207200D01*
X217280951Y-110207200D02*
X217376189Y-110254819D01*
X217376189Y-110254819D02*
X217566665Y-110254819D01*
X217566665Y-110254819D02*
X217661903Y-110207200D01*
X217661903Y-110207200D02*
X217709522Y-110159580D01*
X217709522Y-110159580D02*
X217757141Y-110064342D01*
X217757141Y-110064342D02*
X217757141Y-109826247D01*
X217757141Y-109826247D02*
X217709522Y-109731009D01*
X217709522Y-109731009D02*
X217661903Y-109683390D01*
X217661903Y-109683390D02*
X217566665Y-109635771D01*
X217566665Y-109635771D02*
X217376189Y-109635771D01*
X217376189Y-109635771D02*
X217280951Y-109683390D01*
X217280951Y-109683390D02*
X217233332Y-109731009D01*
X217233332Y-109731009D02*
X217185713Y-109826247D01*
X218138094Y-109350057D02*
X218185713Y-109302438D01*
X218185713Y-109302438D02*
X218280951Y-109254819D01*
X218280951Y-109254819D02*
X218519046Y-109254819D01*
X218519046Y-109254819D02*
X218614284Y-109302438D01*
X218614284Y-109302438D02*
X218661903Y-109350057D01*
X218661903Y-109350057D02*
X218709522Y-109445295D01*
X218709522Y-109445295D02*
X218709522Y-109540533D01*
X218709522Y-109540533D02*
X218661903Y-109683390D01*
X218661903Y-109683390D02*
X218090475Y-110254819D01*
X218090475Y-110254819D02*
X218709522Y-110254819D01*
X198890475Y-110207200D02*
X199033332Y-110254819D01*
X199033332Y-110254819D02*
X199271427Y-110254819D01*
X199271427Y-110254819D02*
X199366665Y-110207200D01*
X199366665Y-110207200D02*
X199414284Y-110159580D01*
X199414284Y-110159580D02*
X199461903Y-110064342D01*
X199461903Y-110064342D02*
X199461903Y-109969104D01*
X199461903Y-109969104D02*
X199414284Y-109873866D01*
X199414284Y-109873866D02*
X199366665Y-109826247D01*
X199366665Y-109826247D02*
X199271427Y-109778628D01*
X199271427Y-109778628D02*
X199080951Y-109731009D01*
X199080951Y-109731009D02*
X198985713Y-109683390D01*
X198985713Y-109683390D02*
X198938094Y-109635771D01*
X198938094Y-109635771D02*
X198890475Y-109540533D01*
X198890475Y-109540533D02*
X198890475Y-109445295D01*
X198890475Y-109445295D02*
X198938094Y-109350057D01*
X198938094Y-109350057D02*
X198985713Y-109302438D01*
X198985713Y-109302438D02*
X199080951Y-109254819D01*
X199080951Y-109254819D02*
X199319046Y-109254819D01*
X199319046Y-109254819D02*
X199461903Y-109302438D01*
X199795237Y-109254819D02*
X200033332Y-110254819D01*
X200033332Y-110254819D02*
X200223808Y-109540533D01*
X200223808Y-109540533D02*
X200414284Y-110254819D01*
X200414284Y-110254819D02*
X200652380Y-109254819D01*
X201461903Y-109254819D02*
X201271427Y-109254819D01*
X201271427Y-109254819D02*
X201176189Y-109302438D01*
X201176189Y-109302438D02*
X201128570Y-109350057D01*
X201128570Y-109350057D02*
X201033332Y-109492914D01*
X201033332Y-109492914D02*
X200985713Y-109683390D01*
X200985713Y-109683390D02*
X200985713Y-110064342D01*
X200985713Y-110064342D02*
X201033332Y-110159580D01*
X201033332Y-110159580D02*
X201080951Y-110207200D01*
X201080951Y-110207200D02*
X201176189Y-110254819D01*
X201176189Y-110254819D02*
X201366665Y-110254819D01*
X201366665Y-110254819D02*
X201461903Y-110207200D01*
X201461903Y-110207200D02*
X201509522Y-110159580D01*
X201509522Y-110159580D02*
X201557141Y-110064342D01*
X201557141Y-110064342D02*
X201557141Y-109826247D01*
X201557141Y-109826247D02*
X201509522Y-109731009D01*
X201509522Y-109731009D02*
X201461903Y-109683390D01*
X201461903Y-109683390D02*
X201366665Y-109635771D01*
X201366665Y-109635771D02*
X201176189Y-109635771D01*
X201176189Y-109635771D02*
X201080951Y-109683390D01*
X201080951Y-109683390D02*
X201033332Y-109731009D01*
X201033332Y-109731009D02*
X200985713Y-109826247D01*
X202509522Y-110254819D02*
X201938094Y-110254819D01*
X202223808Y-110254819D02*
X202223808Y-109254819D01*
X202223808Y-109254819D02*
X202128570Y-109397676D01*
X202128570Y-109397676D02*
X202033332Y-109492914D01*
X202033332Y-109492914D02*
X201938094Y-109540533D01*
X147590476Y-110207200D02*
X147733333Y-110254819D01*
X147733333Y-110254819D02*
X147971428Y-110254819D01*
X147971428Y-110254819D02*
X148066666Y-110207200D01*
X148066666Y-110207200D02*
X148114285Y-110159580D01*
X148114285Y-110159580D02*
X148161904Y-110064342D01*
X148161904Y-110064342D02*
X148161904Y-109969104D01*
X148161904Y-109969104D02*
X148114285Y-109873866D01*
X148114285Y-109873866D02*
X148066666Y-109826247D01*
X148066666Y-109826247D02*
X147971428Y-109778628D01*
X147971428Y-109778628D02*
X147780952Y-109731009D01*
X147780952Y-109731009D02*
X147685714Y-109683390D01*
X147685714Y-109683390D02*
X147638095Y-109635771D01*
X147638095Y-109635771D02*
X147590476Y-109540533D01*
X147590476Y-109540533D02*
X147590476Y-109445295D01*
X147590476Y-109445295D02*
X147638095Y-109350057D01*
X147638095Y-109350057D02*
X147685714Y-109302438D01*
X147685714Y-109302438D02*
X147780952Y-109254819D01*
X147780952Y-109254819D02*
X148019047Y-109254819D01*
X148019047Y-109254819D02*
X148161904Y-109302438D01*
X148495238Y-109254819D02*
X148733333Y-110254819D01*
X148733333Y-110254819D02*
X148923809Y-109540533D01*
X148923809Y-109540533D02*
X149114285Y-110254819D01*
X149114285Y-110254819D02*
X149352381Y-109254819D01*
X150209523Y-109254819D02*
X149733333Y-109254819D01*
X149733333Y-109254819D02*
X149685714Y-109731009D01*
X149685714Y-109731009D02*
X149733333Y-109683390D01*
X149733333Y-109683390D02*
X149828571Y-109635771D01*
X149828571Y-109635771D02*
X150066666Y-109635771D01*
X150066666Y-109635771D02*
X150161904Y-109683390D01*
X150161904Y-109683390D02*
X150209523Y-109731009D01*
X150209523Y-109731009D02*
X150257142Y-109826247D01*
X150257142Y-109826247D02*
X150257142Y-110064342D01*
X150257142Y-110064342D02*
X150209523Y-110159580D01*
X150209523Y-110159580D02*
X150161904Y-110207200D01*
X150161904Y-110207200D02*
X150066666Y-110254819D01*
X150066666Y-110254819D02*
X149828571Y-110254819D01*
X149828571Y-110254819D02*
X149733333Y-110207200D01*
X149733333Y-110207200D02*
X149685714Y-110159580D01*
X150828571Y-109683390D02*
X150733333Y-109635771D01*
X150733333Y-109635771D02*
X150685714Y-109588152D01*
X150685714Y-109588152D02*
X150638095Y-109492914D01*
X150638095Y-109492914D02*
X150638095Y-109445295D01*
X150638095Y-109445295D02*
X150685714Y-109350057D01*
X150685714Y-109350057D02*
X150733333Y-109302438D01*
X150733333Y-109302438D02*
X150828571Y-109254819D01*
X150828571Y-109254819D02*
X151019047Y-109254819D01*
X151019047Y-109254819D02*
X151114285Y-109302438D01*
X151114285Y-109302438D02*
X151161904Y-109350057D01*
X151161904Y-109350057D02*
X151209523Y-109445295D01*
X151209523Y-109445295D02*
X151209523Y-109492914D01*
X151209523Y-109492914D02*
X151161904Y-109588152D01*
X151161904Y-109588152D02*
X151114285Y-109635771D01*
X151114285Y-109635771D02*
X151019047Y-109683390D01*
X151019047Y-109683390D02*
X150828571Y-109683390D01*
X150828571Y-109683390D02*
X150733333Y-109731009D01*
X150733333Y-109731009D02*
X150685714Y-109778628D01*
X150685714Y-109778628D02*
X150638095Y-109873866D01*
X150638095Y-109873866D02*
X150638095Y-110064342D01*
X150638095Y-110064342D02*
X150685714Y-110159580D01*
X150685714Y-110159580D02*
X150733333Y-110207200D01*
X150733333Y-110207200D02*
X150828571Y-110254819D01*
X150828571Y-110254819D02*
X151019047Y-110254819D01*
X151019047Y-110254819D02*
X151114285Y-110207200D01*
X151114285Y-110207200D02*
X151161904Y-110159580D01*
X151161904Y-110159580D02*
X151209523Y-110064342D01*
X151209523Y-110064342D02*
X151209523Y-109873866D01*
X151209523Y-109873866D02*
X151161904Y-109778628D01*
X151161904Y-109778628D02*
X151114285Y-109731009D01*
X151114285Y-109731009D02*
X151019047Y-109683390D01*
X70666667Y-34007200D02*
X70809524Y-34054819D01*
X70809524Y-34054819D02*
X71047619Y-34054819D01*
X71047619Y-34054819D02*
X71142857Y-34007200D01*
X71142857Y-34007200D02*
X71190476Y-33959580D01*
X71190476Y-33959580D02*
X71238095Y-33864342D01*
X71238095Y-33864342D02*
X71238095Y-33769104D01*
X71238095Y-33769104D02*
X71190476Y-33673866D01*
X71190476Y-33673866D02*
X71142857Y-33626247D01*
X71142857Y-33626247D02*
X71047619Y-33578628D01*
X71047619Y-33578628D02*
X70857143Y-33531009D01*
X70857143Y-33531009D02*
X70761905Y-33483390D01*
X70761905Y-33483390D02*
X70714286Y-33435771D01*
X70714286Y-33435771D02*
X70666667Y-33340533D01*
X70666667Y-33340533D02*
X70666667Y-33245295D01*
X70666667Y-33245295D02*
X70714286Y-33150057D01*
X70714286Y-33150057D02*
X70761905Y-33102438D01*
X70761905Y-33102438D02*
X70857143Y-33054819D01*
X70857143Y-33054819D02*
X71095238Y-33054819D01*
X71095238Y-33054819D02*
X71238095Y-33102438D01*
X71571429Y-33054819D02*
X71809524Y-34054819D01*
X71809524Y-34054819D02*
X72000000Y-33340533D01*
X72000000Y-33340533D02*
X72190476Y-34054819D01*
X72190476Y-34054819D02*
X72428572Y-33054819D01*
X72714286Y-33054819D02*
X73333333Y-33054819D01*
X73333333Y-33054819D02*
X73000000Y-33435771D01*
X73000000Y-33435771D02*
X73142857Y-33435771D01*
X73142857Y-33435771D02*
X73238095Y-33483390D01*
X73238095Y-33483390D02*
X73285714Y-33531009D01*
X73285714Y-33531009D02*
X73333333Y-33626247D01*
X73333333Y-33626247D02*
X73333333Y-33864342D01*
X73333333Y-33864342D02*
X73285714Y-33959580D01*
X73285714Y-33959580D02*
X73238095Y-34007200D01*
X73238095Y-34007200D02*
X73142857Y-34054819D01*
X73142857Y-34054819D02*
X72857143Y-34054819D01*
X72857143Y-34054819D02*
X72761905Y-34007200D01*
X72761905Y-34007200D02*
X72714286Y-33959580D01*
X109790476Y-53057200D02*
X109933333Y-53104819D01*
X109933333Y-53104819D02*
X110171428Y-53104819D01*
X110171428Y-53104819D02*
X110266666Y-53057200D01*
X110266666Y-53057200D02*
X110314285Y-53009580D01*
X110314285Y-53009580D02*
X110361904Y-52914342D01*
X110361904Y-52914342D02*
X110361904Y-52819104D01*
X110361904Y-52819104D02*
X110314285Y-52723866D01*
X110314285Y-52723866D02*
X110266666Y-52676247D01*
X110266666Y-52676247D02*
X110171428Y-52628628D01*
X110171428Y-52628628D02*
X109980952Y-52581009D01*
X109980952Y-52581009D02*
X109885714Y-52533390D01*
X109885714Y-52533390D02*
X109838095Y-52485771D01*
X109838095Y-52485771D02*
X109790476Y-52390533D01*
X109790476Y-52390533D02*
X109790476Y-52295295D01*
X109790476Y-52295295D02*
X109838095Y-52200057D01*
X109838095Y-52200057D02*
X109885714Y-52152438D01*
X109885714Y-52152438D02*
X109980952Y-52104819D01*
X109980952Y-52104819D02*
X110219047Y-52104819D01*
X110219047Y-52104819D02*
X110361904Y-52152438D01*
X110695238Y-52104819D02*
X110933333Y-53104819D01*
X110933333Y-53104819D02*
X111123809Y-52390533D01*
X111123809Y-52390533D02*
X111314285Y-53104819D01*
X111314285Y-53104819D02*
X111552381Y-52104819D01*
X112457142Y-53104819D02*
X111885714Y-53104819D01*
X112171428Y-53104819D02*
X112171428Y-52104819D01*
X112171428Y-52104819D02*
X112076190Y-52247676D01*
X112076190Y-52247676D02*
X111980952Y-52342914D01*
X111980952Y-52342914D02*
X111885714Y-52390533D01*
X112933333Y-53104819D02*
X113123809Y-53104819D01*
X113123809Y-53104819D02*
X113219047Y-53057200D01*
X113219047Y-53057200D02*
X113266666Y-53009580D01*
X113266666Y-53009580D02*
X113361904Y-52866723D01*
X113361904Y-52866723D02*
X113409523Y-52676247D01*
X113409523Y-52676247D02*
X113409523Y-52295295D01*
X113409523Y-52295295D02*
X113361904Y-52200057D01*
X113361904Y-52200057D02*
X113314285Y-52152438D01*
X113314285Y-52152438D02*
X113219047Y-52104819D01*
X113219047Y-52104819D02*
X113028571Y-52104819D01*
X113028571Y-52104819D02*
X112933333Y-52152438D01*
X112933333Y-52152438D02*
X112885714Y-52200057D01*
X112885714Y-52200057D02*
X112838095Y-52295295D01*
X112838095Y-52295295D02*
X112838095Y-52533390D01*
X112838095Y-52533390D02*
X112885714Y-52628628D01*
X112885714Y-52628628D02*
X112933333Y-52676247D01*
X112933333Y-52676247D02*
X113028571Y-52723866D01*
X113028571Y-52723866D02*
X113219047Y-52723866D01*
X113219047Y-52723866D02*
X113314285Y-52676247D01*
X113314285Y-52676247D02*
X113361904Y-52628628D01*
X113361904Y-52628628D02*
X113409523Y-52533390D01*
X77390476Y-72107200D02*
X77533333Y-72154819D01*
X77533333Y-72154819D02*
X77771428Y-72154819D01*
X77771428Y-72154819D02*
X77866666Y-72107200D01*
X77866666Y-72107200D02*
X77914285Y-72059580D01*
X77914285Y-72059580D02*
X77961904Y-71964342D01*
X77961904Y-71964342D02*
X77961904Y-71869104D01*
X77961904Y-71869104D02*
X77914285Y-71773866D01*
X77914285Y-71773866D02*
X77866666Y-71726247D01*
X77866666Y-71726247D02*
X77771428Y-71678628D01*
X77771428Y-71678628D02*
X77580952Y-71631009D01*
X77580952Y-71631009D02*
X77485714Y-71583390D01*
X77485714Y-71583390D02*
X77438095Y-71535771D01*
X77438095Y-71535771D02*
X77390476Y-71440533D01*
X77390476Y-71440533D02*
X77390476Y-71345295D01*
X77390476Y-71345295D02*
X77438095Y-71250057D01*
X77438095Y-71250057D02*
X77485714Y-71202438D01*
X77485714Y-71202438D02*
X77580952Y-71154819D01*
X77580952Y-71154819D02*
X77819047Y-71154819D01*
X77819047Y-71154819D02*
X77961904Y-71202438D01*
X78295238Y-71154819D02*
X78533333Y-72154819D01*
X78533333Y-72154819D02*
X78723809Y-71440533D01*
X78723809Y-71440533D02*
X78914285Y-72154819D01*
X78914285Y-72154819D02*
X79152381Y-71154819D01*
X79438095Y-71154819D02*
X80057142Y-71154819D01*
X80057142Y-71154819D02*
X79723809Y-71535771D01*
X79723809Y-71535771D02*
X79866666Y-71535771D01*
X79866666Y-71535771D02*
X79961904Y-71583390D01*
X79961904Y-71583390D02*
X80009523Y-71631009D01*
X80009523Y-71631009D02*
X80057142Y-71726247D01*
X80057142Y-71726247D02*
X80057142Y-71964342D01*
X80057142Y-71964342D02*
X80009523Y-72059580D01*
X80009523Y-72059580D02*
X79961904Y-72107200D01*
X79961904Y-72107200D02*
X79866666Y-72154819D01*
X79866666Y-72154819D02*
X79580952Y-72154819D01*
X79580952Y-72154819D02*
X79485714Y-72107200D01*
X79485714Y-72107200D02*
X79438095Y-72059580D01*
X81009523Y-72154819D02*
X80438095Y-72154819D01*
X80723809Y-72154819D02*
X80723809Y-71154819D01*
X80723809Y-71154819D02*
X80628571Y-71297676D01*
X80628571Y-71297676D02*
X80533333Y-71392914D01*
X80533333Y-71392914D02*
X80438095Y-71440533D01*
X260990476Y-72107200D02*
X261133333Y-72154819D01*
X261133333Y-72154819D02*
X261371428Y-72154819D01*
X261371428Y-72154819D02*
X261466666Y-72107200D01*
X261466666Y-72107200D02*
X261514285Y-72059580D01*
X261514285Y-72059580D02*
X261561904Y-71964342D01*
X261561904Y-71964342D02*
X261561904Y-71869104D01*
X261561904Y-71869104D02*
X261514285Y-71773866D01*
X261514285Y-71773866D02*
X261466666Y-71726247D01*
X261466666Y-71726247D02*
X261371428Y-71678628D01*
X261371428Y-71678628D02*
X261180952Y-71631009D01*
X261180952Y-71631009D02*
X261085714Y-71583390D01*
X261085714Y-71583390D02*
X261038095Y-71535771D01*
X261038095Y-71535771D02*
X260990476Y-71440533D01*
X260990476Y-71440533D02*
X260990476Y-71345295D01*
X260990476Y-71345295D02*
X261038095Y-71250057D01*
X261038095Y-71250057D02*
X261085714Y-71202438D01*
X261085714Y-71202438D02*
X261180952Y-71154819D01*
X261180952Y-71154819D02*
X261419047Y-71154819D01*
X261419047Y-71154819D02*
X261561904Y-71202438D01*
X261895238Y-71154819D02*
X262133333Y-72154819D01*
X262133333Y-72154819D02*
X262323809Y-71440533D01*
X262323809Y-71440533D02*
X262514285Y-72154819D01*
X262514285Y-72154819D02*
X262752381Y-71154819D01*
X263561904Y-71488152D02*
X263561904Y-72154819D01*
X263323809Y-71107200D02*
X263085714Y-71821485D01*
X263085714Y-71821485D02*
X263704761Y-71821485D01*
X264609523Y-72154819D02*
X264038095Y-72154819D01*
X264323809Y-72154819D02*
X264323809Y-71154819D01*
X264323809Y-71154819D02*
X264228571Y-71297676D01*
X264228571Y-71297676D02*
X264133333Y-71392914D01*
X264133333Y-71392914D02*
X264038095Y-71440533D01*
X95390476Y-72107200D02*
X95533333Y-72154819D01*
X95533333Y-72154819D02*
X95771428Y-72154819D01*
X95771428Y-72154819D02*
X95866666Y-72107200D01*
X95866666Y-72107200D02*
X95914285Y-72059580D01*
X95914285Y-72059580D02*
X95961904Y-71964342D01*
X95961904Y-71964342D02*
X95961904Y-71869104D01*
X95961904Y-71869104D02*
X95914285Y-71773866D01*
X95914285Y-71773866D02*
X95866666Y-71726247D01*
X95866666Y-71726247D02*
X95771428Y-71678628D01*
X95771428Y-71678628D02*
X95580952Y-71631009D01*
X95580952Y-71631009D02*
X95485714Y-71583390D01*
X95485714Y-71583390D02*
X95438095Y-71535771D01*
X95438095Y-71535771D02*
X95390476Y-71440533D01*
X95390476Y-71440533D02*
X95390476Y-71345295D01*
X95390476Y-71345295D02*
X95438095Y-71250057D01*
X95438095Y-71250057D02*
X95485714Y-71202438D01*
X95485714Y-71202438D02*
X95580952Y-71154819D01*
X95580952Y-71154819D02*
X95819047Y-71154819D01*
X95819047Y-71154819D02*
X95961904Y-71202438D01*
X96295238Y-71154819D02*
X96533333Y-72154819D01*
X96533333Y-72154819D02*
X96723809Y-71440533D01*
X96723809Y-71440533D02*
X96914285Y-72154819D01*
X96914285Y-72154819D02*
X97152381Y-71154819D01*
X97438095Y-71154819D02*
X98057142Y-71154819D01*
X98057142Y-71154819D02*
X97723809Y-71535771D01*
X97723809Y-71535771D02*
X97866666Y-71535771D01*
X97866666Y-71535771D02*
X97961904Y-71583390D01*
X97961904Y-71583390D02*
X98009523Y-71631009D01*
X98009523Y-71631009D02*
X98057142Y-71726247D01*
X98057142Y-71726247D02*
X98057142Y-71964342D01*
X98057142Y-71964342D02*
X98009523Y-72059580D01*
X98009523Y-72059580D02*
X97961904Y-72107200D01*
X97961904Y-72107200D02*
X97866666Y-72154819D01*
X97866666Y-72154819D02*
X97580952Y-72154819D01*
X97580952Y-72154819D02*
X97485714Y-72107200D01*
X97485714Y-72107200D02*
X97438095Y-72059580D01*
X98438095Y-71250057D02*
X98485714Y-71202438D01*
X98485714Y-71202438D02*
X98580952Y-71154819D01*
X98580952Y-71154819D02*
X98819047Y-71154819D01*
X98819047Y-71154819D02*
X98914285Y-71202438D01*
X98914285Y-71202438D02*
X98961904Y-71250057D01*
X98961904Y-71250057D02*
X99009523Y-71345295D01*
X99009523Y-71345295D02*
X99009523Y-71440533D01*
X99009523Y-71440533D02*
X98961904Y-71583390D01*
X98961904Y-71583390D02*
X98390476Y-72154819D01*
X98390476Y-72154819D02*
X99009523Y-72154819D01*
X160666667Y-34007200D02*
X160809524Y-34054819D01*
X160809524Y-34054819D02*
X161047619Y-34054819D01*
X161047619Y-34054819D02*
X161142857Y-34007200D01*
X161142857Y-34007200D02*
X161190476Y-33959580D01*
X161190476Y-33959580D02*
X161238095Y-33864342D01*
X161238095Y-33864342D02*
X161238095Y-33769104D01*
X161238095Y-33769104D02*
X161190476Y-33673866D01*
X161190476Y-33673866D02*
X161142857Y-33626247D01*
X161142857Y-33626247D02*
X161047619Y-33578628D01*
X161047619Y-33578628D02*
X160857143Y-33531009D01*
X160857143Y-33531009D02*
X160761905Y-33483390D01*
X160761905Y-33483390D02*
X160714286Y-33435771D01*
X160714286Y-33435771D02*
X160666667Y-33340533D01*
X160666667Y-33340533D02*
X160666667Y-33245295D01*
X160666667Y-33245295D02*
X160714286Y-33150057D01*
X160714286Y-33150057D02*
X160761905Y-33102438D01*
X160761905Y-33102438D02*
X160857143Y-33054819D01*
X160857143Y-33054819D02*
X161095238Y-33054819D01*
X161095238Y-33054819D02*
X161238095Y-33102438D01*
X161571429Y-33054819D02*
X161809524Y-34054819D01*
X161809524Y-34054819D02*
X162000000Y-33340533D01*
X162000000Y-33340533D02*
X162190476Y-34054819D01*
X162190476Y-34054819D02*
X162428572Y-33054819D01*
X162952381Y-33483390D02*
X162857143Y-33435771D01*
X162857143Y-33435771D02*
X162809524Y-33388152D01*
X162809524Y-33388152D02*
X162761905Y-33292914D01*
X162761905Y-33292914D02*
X162761905Y-33245295D01*
X162761905Y-33245295D02*
X162809524Y-33150057D01*
X162809524Y-33150057D02*
X162857143Y-33102438D01*
X162857143Y-33102438D02*
X162952381Y-33054819D01*
X162952381Y-33054819D02*
X163142857Y-33054819D01*
X163142857Y-33054819D02*
X163238095Y-33102438D01*
X163238095Y-33102438D02*
X163285714Y-33150057D01*
X163285714Y-33150057D02*
X163333333Y-33245295D01*
X163333333Y-33245295D02*
X163333333Y-33292914D01*
X163333333Y-33292914D02*
X163285714Y-33388152D01*
X163285714Y-33388152D02*
X163238095Y-33435771D01*
X163238095Y-33435771D02*
X163142857Y-33483390D01*
X163142857Y-33483390D02*
X162952381Y-33483390D01*
X162952381Y-33483390D02*
X162857143Y-33531009D01*
X162857143Y-33531009D02*
X162809524Y-33578628D01*
X162809524Y-33578628D02*
X162761905Y-33673866D01*
X162761905Y-33673866D02*
X162761905Y-33864342D01*
X162761905Y-33864342D02*
X162809524Y-33959580D01*
X162809524Y-33959580D02*
X162857143Y-34007200D01*
X162857143Y-34007200D02*
X162952381Y-34054819D01*
X162952381Y-34054819D02*
X163142857Y-34054819D01*
X163142857Y-34054819D02*
X163238095Y-34007200D01*
X163238095Y-34007200D02*
X163285714Y-33959580D01*
X163285714Y-33959580D02*
X163333333Y-33864342D01*
X163333333Y-33864342D02*
X163333333Y-33673866D01*
X163333333Y-33673866D02*
X163285714Y-33578628D01*
X163285714Y-33578628D02*
X163238095Y-33531009D01*
X163238095Y-33531009D02*
X163142857Y-33483390D01*
X124190476Y-91157200D02*
X124333333Y-91204819D01*
X124333333Y-91204819D02*
X124571428Y-91204819D01*
X124571428Y-91204819D02*
X124666666Y-91157200D01*
X124666666Y-91157200D02*
X124714285Y-91109580D01*
X124714285Y-91109580D02*
X124761904Y-91014342D01*
X124761904Y-91014342D02*
X124761904Y-90919104D01*
X124761904Y-90919104D02*
X124714285Y-90823866D01*
X124714285Y-90823866D02*
X124666666Y-90776247D01*
X124666666Y-90776247D02*
X124571428Y-90728628D01*
X124571428Y-90728628D02*
X124380952Y-90681009D01*
X124380952Y-90681009D02*
X124285714Y-90633390D01*
X124285714Y-90633390D02*
X124238095Y-90585771D01*
X124238095Y-90585771D02*
X124190476Y-90490533D01*
X124190476Y-90490533D02*
X124190476Y-90395295D01*
X124190476Y-90395295D02*
X124238095Y-90300057D01*
X124238095Y-90300057D02*
X124285714Y-90252438D01*
X124285714Y-90252438D02*
X124380952Y-90204819D01*
X124380952Y-90204819D02*
X124619047Y-90204819D01*
X124619047Y-90204819D02*
X124761904Y-90252438D01*
X125095238Y-90204819D02*
X125333333Y-91204819D01*
X125333333Y-91204819D02*
X125523809Y-90490533D01*
X125523809Y-90490533D02*
X125714285Y-91204819D01*
X125714285Y-91204819D02*
X125952381Y-90204819D01*
X126761904Y-90538152D02*
X126761904Y-91204819D01*
X126523809Y-90157200D02*
X126285714Y-90871485D01*
X126285714Y-90871485D02*
X126904761Y-90871485D01*
X127714285Y-90204819D02*
X127523809Y-90204819D01*
X127523809Y-90204819D02*
X127428571Y-90252438D01*
X127428571Y-90252438D02*
X127380952Y-90300057D01*
X127380952Y-90300057D02*
X127285714Y-90442914D01*
X127285714Y-90442914D02*
X127238095Y-90633390D01*
X127238095Y-90633390D02*
X127238095Y-91014342D01*
X127238095Y-91014342D02*
X127285714Y-91109580D01*
X127285714Y-91109580D02*
X127333333Y-91157200D01*
X127333333Y-91157200D02*
X127428571Y-91204819D01*
X127428571Y-91204819D02*
X127619047Y-91204819D01*
X127619047Y-91204819D02*
X127714285Y-91157200D01*
X127714285Y-91157200D02*
X127761904Y-91109580D01*
X127761904Y-91109580D02*
X127809523Y-91014342D01*
X127809523Y-91014342D02*
X127809523Y-90776247D01*
X127809523Y-90776247D02*
X127761904Y-90681009D01*
X127761904Y-90681009D02*
X127714285Y-90633390D01*
X127714285Y-90633390D02*
X127619047Y-90585771D01*
X127619047Y-90585771D02*
X127428571Y-90585771D01*
X127428571Y-90585771D02*
X127333333Y-90633390D01*
X127333333Y-90633390D02*
X127285714Y-90681009D01*
X127285714Y-90681009D02*
X127238095Y-90776247D01*
X236690476Y-72107200D02*
X236833333Y-72154819D01*
X236833333Y-72154819D02*
X237071428Y-72154819D01*
X237071428Y-72154819D02*
X237166666Y-72107200D01*
X237166666Y-72107200D02*
X237214285Y-72059580D01*
X237214285Y-72059580D02*
X237261904Y-71964342D01*
X237261904Y-71964342D02*
X237261904Y-71869104D01*
X237261904Y-71869104D02*
X237214285Y-71773866D01*
X237214285Y-71773866D02*
X237166666Y-71726247D01*
X237166666Y-71726247D02*
X237071428Y-71678628D01*
X237071428Y-71678628D02*
X236880952Y-71631009D01*
X236880952Y-71631009D02*
X236785714Y-71583390D01*
X236785714Y-71583390D02*
X236738095Y-71535771D01*
X236738095Y-71535771D02*
X236690476Y-71440533D01*
X236690476Y-71440533D02*
X236690476Y-71345295D01*
X236690476Y-71345295D02*
X236738095Y-71250057D01*
X236738095Y-71250057D02*
X236785714Y-71202438D01*
X236785714Y-71202438D02*
X236880952Y-71154819D01*
X236880952Y-71154819D02*
X237119047Y-71154819D01*
X237119047Y-71154819D02*
X237261904Y-71202438D01*
X237595238Y-71154819D02*
X237833333Y-72154819D01*
X237833333Y-72154819D02*
X238023809Y-71440533D01*
X238023809Y-71440533D02*
X238214285Y-72154819D01*
X238214285Y-72154819D02*
X238452381Y-71154819D01*
X239261904Y-71488152D02*
X239261904Y-72154819D01*
X239023809Y-71107200D02*
X238785714Y-71821485D01*
X238785714Y-71821485D02*
X239404761Y-71821485D01*
X239976190Y-71154819D02*
X240071428Y-71154819D01*
X240071428Y-71154819D02*
X240166666Y-71202438D01*
X240166666Y-71202438D02*
X240214285Y-71250057D01*
X240214285Y-71250057D02*
X240261904Y-71345295D01*
X240261904Y-71345295D02*
X240309523Y-71535771D01*
X240309523Y-71535771D02*
X240309523Y-71773866D01*
X240309523Y-71773866D02*
X240261904Y-71964342D01*
X240261904Y-71964342D02*
X240214285Y-72059580D01*
X240214285Y-72059580D02*
X240166666Y-72107200D01*
X240166666Y-72107200D02*
X240071428Y-72154819D01*
X240071428Y-72154819D02*
X239976190Y-72154819D01*
X239976190Y-72154819D02*
X239880952Y-72107200D01*
X239880952Y-72107200D02*
X239833333Y-72059580D01*
X239833333Y-72059580D02*
X239785714Y-71964342D01*
X239785714Y-71964342D02*
X239738095Y-71773866D01*
X239738095Y-71773866D02*
X239738095Y-71535771D01*
X239738095Y-71535771D02*
X239785714Y-71345295D01*
X239785714Y-71345295D02*
X239833333Y-71250057D01*
X239833333Y-71250057D02*
X239880952Y-71202438D01*
X239880952Y-71202438D02*
X239976190Y-71154819D01*
X247490476Y-34007200D02*
X247633333Y-34054819D01*
X247633333Y-34054819D02*
X247871428Y-34054819D01*
X247871428Y-34054819D02*
X247966666Y-34007200D01*
X247966666Y-34007200D02*
X248014285Y-33959580D01*
X248014285Y-33959580D02*
X248061904Y-33864342D01*
X248061904Y-33864342D02*
X248061904Y-33769104D01*
X248061904Y-33769104D02*
X248014285Y-33673866D01*
X248014285Y-33673866D02*
X247966666Y-33626247D01*
X247966666Y-33626247D02*
X247871428Y-33578628D01*
X247871428Y-33578628D02*
X247680952Y-33531009D01*
X247680952Y-33531009D02*
X247585714Y-33483390D01*
X247585714Y-33483390D02*
X247538095Y-33435771D01*
X247538095Y-33435771D02*
X247490476Y-33340533D01*
X247490476Y-33340533D02*
X247490476Y-33245295D01*
X247490476Y-33245295D02*
X247538095Y-33150057D01*
X247538095Y-33150057D02*
X247585714Y-33102438D01*
X247585714Y-33102438D02*
X247680952Y-33054819D01*
X247680952Y-33054819D02*
X247919047Y-33054819D01*
X247919047Y-33054819D02*
X248061904Y-33102438D01*
X248395238Y-33054819D02*
X248633333Y-34054819D01*
X248633333Y-34054819D02*
X248823809Y-33340533D01*
X248823809Y-33340533D02*
X249014285Y-34054819D01*
X249014285Y-34054819D02*
X249252381Y-33054819D01*
X250157142Y-34054819D02*
X249585714Y-34054819D01*
X249871428Y-34054819D02*
X249871428Y-33054819D01*
X249871428Y-33054819D02*
X249776190Y-33197676D01*
X249776190Y-33197676D02*
X249680952Y-33292914D01*
X249680952Y-33292914D02*
X249585714Y-33340533D01*
X250490476Y-33054819D02*
X251109523Y-33054819D01*
X251109523Y-33054819D02*
X250776190Y-33435771D01*
X250776190Y-33435771D02*
X250919047Y-33435771D01*
X250919047Y-33435771D02*
X251014285Y-33483390D01*
X251014285Y-33483390D02*
X251061904Y-33531009D01*
X251061904Y-33531009D02*
X251109523Y-33626247D01*
X251109523Y-33626247D02*
X251109523Y-33864342D01*
X251109523Y-33864342D02*
X251061904Y-33959580D01*
X251061904Y-33959580D02*
X251014285Y-34007200D01*
X251014285Y-34007200D02*
X250919047Y-34054819D01*
X250919047Y-34054819D02*
X250633333Y-34054819D01*
X250633333Y-34054819D02*
X250538095Y-34007200D01*
X250538095Y-34007200D02*
X250490476Y-33959580D01*
X231290476Y-34007200D02*
X231433333Y-34054819D01*
X231433333Y-34054819D02*
X231671428Y-34054819D01*
X231671428Y-34054819D02*
X231766666Y-34007200D01*
X231766666Y-34007200D02*
X231814285Y-33959580D01*
X231814285Y-33959580D02*
X231861904Y-33864342D01*
X231861904Y-33864342D02*
X231861904Y-33769104D01*
X231861904Y-33769104D02*
X231814285Y-33673866D01*
X231814285Y-33673866D02*
X231766666Y-33626247D01*
X231766666Y-33626247D02*
X231671428Y-33578628D01*
X231671428Y-33578628D02*
X231480952Y-33531009D01*
X231480952Y-33531009D02*
X231385714Y-33483390D01*
X231385714Y-33483390D02*
X231338095Y-33435771D01*
X231338095Y-33435771D02*
X231290476Y-33340533D01*
X231290476Y-33340533D02*
X231290476Y-33245295D01*
X231290476Y-33245295D02*
X231338095Y-33150057D01*
X231338095Y-33150057D02*
X231385714Y-33102438D01*
X231385714Y-33102438D02*
X231480952Y-33054819D01*
X231480952Y-33054819D02*
X231719047Y-33054819D01*
X231719047Y-33054819D02*
X231861904Y-33102438D01*
X232195238Y-33054819D02*
X232433333Y-34054819D01*
X232433333Y-34054819D02*
X232623809Y-33340533D01*
X232623809Y-33340533D02*
X232814285Y-34054819D01*
X232814285Y-34054819D02*
X233052381Y-33054819D01*
X233957142Y-34054819D02*
X233385714Y-34054819D01*
X233671428Y-34054819D02*
X233671428Y-33054819D01*
X233671428Y-33054819D02*
X233576190Y-33197676D01*
X233576190Y-33197676D02*
X233480952Y-33292914D01*
X233480952Y-33292914D02*
X233385714Y-33340533D01*
X234338095Y-33150057D02*
X234385714Y-33102438D01*
X234385714Y-33102438D02*
X234480952Y-33054819D01*
X234480952Y-33054819D02*
X234719047Y-33054819D01*
X234719047Y-33054819D02*
X234814285Y-33102438D01*
X234814285Y-33102438D02*
X234861904Y-33150057D01*
X234861904Y-33150057D02*
X234909523Y-33245295D01*
X234909523Y-33245295D02*
X234909523Y-33340533D01*
X234909523Y-33340533D02*
X234861904Y-33483390D01*
X234861904Y-33483390D02*
X234290476Y-34054819D01*
X234290476Y-34054819D02*
X234909523Y-34054819D01*
X142666667Y-34007200D02*
X142809524Y-34054819D01*
X142809524Y-34054819D02*
X143047619Y-34054819D01*
X143047619Y-34054819D02*
X143142857Y-34007200D01*
X143142857Y-34007200D02*
X143190476Y-33959580D01*
X143190476Y-33959580D02*
X143238095Y-33864342D01*
X143238095Y-33864342D02*
X143238095Y-33769104D01*
X143238095Y-33769104D02*
X143190476Y-33673866D01*
X143190476Y-33673866D02*
X143142857Y-33626247D01*
X143142857Y-33626247D02*
X143047619Y-33578628D01*
X143047619Y-33578628D02*
X142857143Y-33531009D01*
X142857143Y-33531009D02*
X142761905Y-33483390D01*
X142761905Y-33483390D02*
X142714286Y-33435771D01*
X142714286Y-33435771D02*
X142666667Y-33340533D01*
X142666667Y-33340533D02*
X142666667Y-33245295D01*
X142666667Y-33245295D02*
X142714286Y-33150057D01*
X142714286Y-33150057D02*
X142761905Y-33102438D01*
X142761905Y-33102438D02*
X142857143Y-33054819D01*
X142857143Y-33054819D02*
X143095238Y-33054819D01*
X143095238Y-33054819D02*
X143238095Y-33102438D01*
X143571429Y-33054819D02*
X143809524Y-34054819D01*
X143809524Y-34054819D02*
X144000000Y-33340533D01*
X144000000Y-33340533D02*
X144190476Y-34054819D01*
X144190476Y-34054819D02*
X144428572Y-33054819D01*
X144714286Y-33054819D02*
X145380952Y-33054819D01*
X145380952Y-33054819D02*
X144952381Y-34054819D01*
X55790476Y-53057200D02*
X55933333Y-53104819D01*
X55933333Y-53104819D02*
X56171428Y-53104819D01*
X56171428Y-53104819D02*
X56266666Y-53057200D01*
X56266666Y-53057200D02*
X56314285Y-53009580D01*
X56314285Y-53009580D02*
X56361904Y-52914342D01*
X56361904Y-52914342D02*
X56361904Y-52819104D01*
X56361904Y-52819104D02*
X56314285Y-52723866D01*
X56314285Y-52723866D02*
X56266666Y-52676247D01*
X56266666Y-52676247D02*
X56171428Y-52628628D01*
X56171428Y-52628628D02*
X55980952Y-52581009D01*
X55980952Y-52581009D02*
X55885714Y-52533390D01*
X55885714Y-52533390D02*
X55838095Y-52485771D01*
X55838095Y-52485771D02*
X55790476Y-52390533D01*
X55790476Y-52390533D02*
X55790476Y-52295295D01*
X55790476Y-52295295D02*
X55838095Y-52200057D01*
X55838095Y-52200057D02*
X55885714Y-52152438D01*
X55885714Y-52152438D02*
X55980952Y-52104819D01*
X55980952Y-52104819D02*
X56219047Y-52104819D01*
X56219047Y-52104819D02*
X56361904Y-52152438D01*
X56695238Y-52104819D02*
X56933333Y-53104819D01*
X56933333Y-53104819D02*
X57123809Y-52390533D01*
X57123809Y-52390533D02*
X57314285Y-53104819D01*
X57314285Y-53104819D02*
X57552381Y-52104819D01*
X58457142Y-53104819D02*
X57885714Y-53104819D01*
X58171428Y-53104819D02*
X58171428Y-52104819D01*
X58171428Y-52104819D02*
X58076190Y-52247676D01*
X58076190Y-52247676D02*
X57980952Y-52342914D01*
X57980952Y-52342914D02*
X57885714Y-52390533D01*
X59314285Y-52104819D02*
X59123809Y-52104819D01*
X59123809Y-52104819D02*
X59028571Y-52152438D01*
X59028571Y-52152438D02*
X58980952Y-52200057D01*
X58980952Y-52200057D02*
X58885714Y-52342914D01*
X58885714Y-52342914D02*
X58838095Y-52533390D01*
X58838095Y-52533390D02*
X58838095Y-52914342D01*
X58838095Y-52914342D02*
X58885714Y-53009580D01*
X58885714Y-53009580D02*
X58933333Y-53057200D01*
X58933333Y-53057200D02*
X59028571Y-53104819D01*
X59028571Y-53104819D02*
X59219047Y-53104819D01*
X59219047Y-53104819D02*
X59314285Y-53057200D01*
X59314285Y-53057200D02*
X59361904Y-53009580D01*
X59361904Y-53009580D02*
X59409523Y-52914342D01*
X59409523Y-52914342D02*
X59409523Y-52676247D01*
X59409523Y-52676247D02*
X59361904Y-52581009D01*
X59361904Y-52581009D02*
X59314285Y-52533390D01*
X59314285Y-52533390D02*
X59219047Y-52485771D01*
X59219047Y-52485771D02*
X59028571Y-52485771D01*
X59028571Y-52485771D02*
X58933333Y-52533390D01*
X58933333Y-52533390D02*
X58885714Y-52581009D01*
X58885714Y-52581009D02*
X58838095Y-52676247D01*
X80990476Y-110207200D02*
X81133333Y-110254819D01*
X81133333Y-110254819D02*
X81371428Y-110254819D01*
X81371428Y-110254819D02*
X81466666Y-110207200D01*
X81466666Y-110207200D02*
X81514285Y-110159580D01*
X81514285Y-110159580D02*
X81561904Y-110064342D01*
X81561904Y-110064342D02*
X81561904Y-109969104D01*
X81561904Y-109969104D02*
X81514285Y-109873866D01*
X81514285Y-109873866D02*
X81466666Y-109826247D01*
X81466666Y-109826247D02*
X81371428Y-109778628D01*
X81371428Y-109778628D02*
X81180952Y-109731009D01*
X81180952Y-109731009D02*
X81085714Y-109683390D01*
X81085714Y-109683390D02*
X81038095Y-109635771D01*
X81038095Y-109635771D02*
X80990476Y-109540533D01*
X80990476Y-109540533D02*
X80990476Y-109445295D01*
X80990476Y-109445295D02*
X81038095Y-109350057D01*
X81038095Y-109350057D02*
X81085714Y-109302438D01*
X81085714Y-109302438D02*
X81180952Y-109254819D01*
X81180952Y-109254819D02*
X81419047Y-109254819D01*
X81419047Y-109254819D02*
X81561904Y-109302438D01*
X81895238Y-109254819D02*
X82133333Y-110254819D01*
X82133333Y-110254819D02*
X82323809Y-109540533D01*
X82323809Y-109540533D02*
X82514285Y-110254819D01*
X82514285Y-110254819D02*
X82752381Y-109254819D01*
X83609523Y-109254819D02*
X83133333Y-109254819D01*
X83133333Y-109254819D02*
X83085714Y-109731009D01*
X83085714Y-109731009D02*
X83133333Y-109683390D01*
X83133333Y-109683390D02*
X83228571Y-109635771D01*
X83228571Y-109635771D02*
X83466666Y-109635771D01*
X83466666Y-109635771D02*
X83561904Y-109683390D01*
X83561904Y-109683390D02*
X83609523Y-109731009D01*
X83609523Y-109731009D02*
X83657142Y-109826247D01*
X83657142Y-109826247D02*
X83657142Y-110064342D01*
X83657142Y-110064342D02*
X83609523Y-110159580D01*
X83609523Y-110159580D02*
X83561904Y-110207200D01*
X83561904Y-110207200D02*
X83466666Y-110254819D01*
X83466666Y-110254819D02*
X83228571Y-110254819D01*
X83228571Y-110254819D02*
X83133333Y-110207200D01*
X83133333Y-110207200D02*
X83085714Y-110159580D01*
X84514285Y-109254819D02*
X84323809Y-109254819D01*
X84323809Y-109254819D02*
X84228571Y-109302438D01*
X84228571Y-109302438D02*
X84180952Y-109350057D01*
X84180952Y-109350057D02*
X84085714Y-109492914D01*
X84085714Y-109492914D02*
X84038095Y-109683390D01*
X84038095Y-109683390D02*
X84038095Y-110064342D01*
X84038095Y-110064342D02*
X84085714Y-110159580D01*
X84085714Y-110159580D02*
X84133333Y-110207200D01*
X84133333Y-110207200D02*
X84228571Y-110254819D01*
X84228571Y-110254819D02*
X84419047Y-110254819D01*
X84419047Y-110254819D02*
X84514285Y-110207200D01*
X84514285Y-110207200D02*
X84561904Y-110159580D01*
X84561904Y-110159580D02*
X84609523Y-110064342D01*
X84609523Y-110064342D02*
X84609523Y-109826247D01*
X84609523Y-109826247D02*
X84561904Y-109731009D01*
X84561904Y-109731009D02*
X84514285Y-109683390D01*
X84514285Y-109683390D02*
X84419047Y-109635771D01*
X84419047Y-109635771D02*
X84228571Y-109635771D01*
X84228571Y-109635771D02*
X84133333Y-109683390D01*
X84133333Y-109683390D02*
X84085714Y-109731009D01*
X84085714Y-109731009D02*
X84038095Y-109826247D01*
X178190476Y-91157200D02*
X178333333Y-91204819D01*
X178333333Y-91204819D02*
X178571428Y-91204819D01*
X178571428Y-91204819D02*
X178666666Y-91157200D01*
X178666666Y-91157200D02*
X178714285Y-91109580D01*
X178714285Y-91109580D02*
X178761904Y-91014342D01*
X178761904Y-91014342D02*
X178761904Y-90919104D01*
X178761904Y-90919104D02*
X178714285Y-90823866D01*
X178714285Y-90823866D02*
X178666666Y-90776247D01*
X178666666Y-90776247D02*
X178571428Y-90728628D01*
X178571428Y-90728628D02*
X178380952Y-90681009D01*
X178380952Y-90681009D02*
X178285714Y-90633390D01*
X178285714Y-90633390D02*
X178238095Y-90585771D01*
X178238095Y-90585771D02*
X178190476Y-90490533D01*
X178190476Y-90490533D02*
X178190476Y-90395295D01*
X178190476Y-90395295D02*
X178238095Y-90300057D01*
X178238095Y-90300057D02*
X178285714Y-90252438D01*
X178285714Y-90252438D02*
X178380952Y-90204819D01*
X178380952Y-90204819D02*
X178619047Y-90204819D01*
X178619047Y-90204819D02*
X178761904Y-90252438D01*
X179095238Y-90204819D02*
X179333333Y-91204819D01*
X179333333Y-91204819D02*
X179523809Y-90490533D01*
X179523809Y-90490533D02*
X179714285Y-91204819D01*
X179714285Y-91204819D02*
X179952381Y-90204819D01*
X180761904Y-90538152D02*
X180761904Y-91204819D01*
X180523809Y-90157200D02*
X180285714Y-90871485D01*
X180285714Y-90871485D02*
X180904761Y-90871485D01*
X181333333Y-91204819D02*
X181523809Y-91204819D01*
X181523809Y-91204819D02*
X181619047Y-91157200D01*
X181619047Y-91157200D02*
X181666666Y-91109580D01*
X181666666Y-91109580D02*
X181761904Y-90966723D01*
X181761904Y-90966723D02*
X181809523Y-90776247D01*
X181809523Y-90776247D02*
X181809523Y-90395295D01*
X181809523Y-90395295D02*
X181761904Y-90300057D01*
X181761904Y-90300057D02*
X181714285Y-90252438D01*
X181714285Y-90252438D02*
X181619047Y-90204819D01*
X181619047Y-90204819D02*
X181428571Y-90204819D01*
X181428571Y-90204819D02*
X181333333Y-90252438D01*
X181333333Y-90252438D02*
X181285714Y-90300057D01*
X181285714Y-90300057D02*
X181238095Y-90395295D01*
X181238095Y-90395295D02*
X181238095Y-90633390D01*
X181238095Y-90633390D02*
X181285714Y-90728628D01*
X181285714Y-90728628D02*
X181333333Y-90776247D01*
X181333333Y-90776247D02*
X181428571Y-90823866D01*
X181428571Y-90823866D02*
X181619047Y-90823866D01*
X181619047Y-90823866D02*
X181714285Y-90776247D01*
X181714285Y-90776247D02*
X181761904Y-90728628D01*
X181761904Y-90728628D02*
X181809523Y-90633390D01*
X39590476Y-110207200D02*
X39733333Y-110254819D01*
X39733333Y-110254819D02*
X39971428Y-110254819D01*
X39971428Y-110254819D02*
X40066666Y-110207200D01*
X40066666Y-110207200D02*
X40114285Y-110159580D01*
X40114285Y-110159580D02*
X40161904Y-110064342D01*
X40161904Y-110064342D02*
X40161904Y-109969104D01*
X40161904Y-109969104D02*
X40114285Y-109873866D01*
X40114285Y-109873866D02*
X40066666Y-109826247D01*
X40066666Y-109826247D02*
X39971428Y-109778628D01*
X39971428Y-109778628D02*
X39780952Y-109731009D01*
X39780952Y-109731009D02*
X39685714Y-109683390D01*
X39685714Y-109683390D02*
X39638095Y-109635771D01*
X39638095Y-109635771D02*
X39590476Y-109540533D01*
X39590476Y-109540533D02*
X39590476Y-109445295D01*
X39590476Y-109445295D02*
X39638095Y-109350057D01*
X39638095Y-109350057D02*
X39685714Y-109302438D01*
X39685714Y-109302438D02*
X39780952Y-109254819D01*
X39780952Y-109254819D02*
X40019047Y-109254819D01*
X40019047Y-109254819D02*
X40161904Y-109302438D01*
X40495238Y-109254819D02*
X40733333Y-110254819D01*
X40733333Y-110254819D02*
X40923809Y-109540533D01*
X40923809Y-109540533D02*
X41114285Y-110254819D01*
X41114285Y-110254819D02*
X41352381Y-109254819D01*
X42209523Y-109254819D02*
X41733333Y-109254819D01*
X41733333Y-109254819D02*
X41685714Y-109731009D01*
X41685714Y-109731009D02*
X41733333Y-109683390D01*
X41733333Y-109683390D02*
X41828571Y-109635771D01*
X41828571Y-109635771D02*
X42066666Y-109635771D01*
X42066666Y-109635771D02*
X42161904Y-109683390D01*
X42161904Y-109683390D02*
X42209523Y-109731009D01*
X42209523Y-109731009D02*
X42257142Y-109826247D01*
X42257142Y-109826247D02*
X42257142Y-110064342D01*
X42257142Y-110064342D02*
X42209523Y-110159580D01*
X42209523Y-110159580D02*
X42161904Y-110207200D01*
X42161904Y-110207200D02*
X42066666Y-110254819D01*
X42066666Y-110254819D02*
X41828571Y-110254819D01*
X41828571Y-110254819D02*
X41733333Y-110207200D01*
X41733333Y-110207200D02*
X41685714Y-110159580D01*
X43114285Y-109588152D02*
X43114285Y-110254819D01*
X42876190Y-109207200D02*
X42638095Y-109921485D01*
X42638095Y-109921485D02*
X43257142Y-109921485D01*
X127790476Y-53057200D02*
X127933333Y-53104819D01*
X127933333Y-53104819D02*
X128171428Y-53104819D01*
X128171428Y-53104819D02*
X128266666Y-53057200D01*
X128266666Y-53057200D02*
X128314285Y-53009580D01*
X128314285Y-53009580D02*
X128361904Y-52914342D01*
X128361904Y-52914342D02*
X128361904Y-52819104D01*
X128361904Y-52819104D02*
X128314285Y-52723866D01*
X128314285Y-52723866D02*
X128266666Y-52676247D01*
X128266666Y-52676247D02*
X128171428Y-52628628D01*
X128171428Y-52628628D02*
X127980952Y-52581009D01*
X127980952Y-52581009D02*
X127885714Y-52533390D01*
X127885714Y-52533390D02*
X127838095Y-52485771D01*
X127838095Y-52485771D02*
X127790476Y-52390533D01*
X127790476Y-52390533D02*
X127790476Y-52295295D01*
X127790476Y-52295295D02*
X127838095Y-52200057D01*
X127838095Y-52200057D02*
X127885714Y-52152438D01*
X127885714Y-52152438D02*
X127980952Y-52104819D01*
X127980952Y-52104819D02*
X128219047Y-52104819D01*
X128219047Y-52104819D02*
X128361904Y-52152438D01*
X128695238Y-52104819D02*
X128933333Y-53104819D01*
X128933333Y-53104819D02*
X129123809Y-52390533D01*
X129123809Y-52390533D02*
X129314285Y-53104819D01*
X129314285Y-53104819D02*
X129552381Y-52104819D01*
X129885714Y-52200057D02*
X129933333Y-52152438D01*
X129933333Y-52152438D02*
X130028571Y-52104819D01*
X130028571Y-52104819D02*
X130266666Y-52104819D01*
X130266666Y-52104819D02*
X130361904Y-52152438D01*
X130361904Y-52152438D02*
X130409523Y-52200057D01*
X130409523Y-52200057D02*
X130457142Y-52295295D01*
X130457142Y-52295295D02*
X130457142Y-52390533D01*
X130457142Y-52390533D02*
X130409523Y-52533390D01*
X130409523Y-52533390D02*
X129838095Y-53104819D01*
X129838095Y-53104819D02*
X130457142Y-53104819D01*
X131076190Y-52104819D02*
X131171428Y-52104819D01*
X131171428Y-52104819D02*
X131266666Y-52152438D01*
X131266666Y-52152438D02*
X131314285Y-52200057D01*
X131314285Y-52200057D02*
X131361904Y-52295295D01*
X131361904Y-52295295D02*
X131409523Y-52485771D01*
X131409523Y-52485771D02*
X131409523Y-52723866D01*
X131409523Y-52723866D02*
X131361904Y-52914342D01*
X131361904Y-52914342D02*
X131314285Y-53009580D01*
X131314285Y-53009580D02*
X131266666Y-53057200D01*
X131266666Y-53057200D02*
X131171428Y-53104819D01*
X131171428Y-53104819D02*
X131076190Y-53104819D01*
X131076190Y-53104819D02*
X130980952Y-53057200D01*
X130980952Y-53057200D02*
X130933333Y-53009580D01*
X130933333Y-53009580D02*
X130885714Y-52914342D01*
X130885714Y-52914342D02*
X130838095Y-52723866D01*
X130838095Y-52723866D02*
X130838095Y-52485771D01*
X130838095Y-52485771D02*
X130885714Y-52295295D01*
X130885714Y-52295295D02*
X130933333Y-52200057D01*
X130933333Y-52200057D02*
X130980952Y-52152438D01*
X130980952Y-52152438D02*
X131076190Y-52104819D01*
X88190476Y-91157200D02*
X88333333Y-91204819D01*
X88333333Y-91204819D02*
X88571428Y-91204819D01*
X88571428Y-91204819D02*
X88666666Y-91157200D01*
X88666666Y-91157200D02*
X88714285Y-91109580D01*
X88714285Y-91109580D02*
X88761904Y-91014342D01*
X88761904Y-91014342D02*
X88761904Y-90919104D01*
X88761904Y-90919104D02*
X88714285Y-90823866D01*
X88714285Y-90823866D02*
X88666666Y-90776247D01*
X88666666Y-90776247D02*
X88571428Y-90728628D01*
X88571428Y-90728628D02*
X88380952Y-90681009D01*
X88380952Y-90681009D02*
X88285714Y-90633390D01*
X88285714Y-90633390D02*
X88238095Y-90585771D01*
X88238095Y-90585771D02*
X88190476Y-90490533D01*
X88190476Y-90490533D02*
X88190476Y-90395295D01*
X88190476Y-90395295D02*
X88238095Y-90300057D01*
X88238095Y-90300057D02*
X88285714Y-90252438D01*
X88285714Y-90252438D02*
X88380952Y-90204819D01*
X88380952Y-90204819D02*
X88619047Y-90204819D01*
X88619047Y-90204819D02*
X88761904Y-90252438D01*
X89095238Y-90204819D02*
X89333333Y-91204819D01*
X89333333Y-91204819D02*
X89523809Y-90490533D01*
X89523809Y-90490533D02*
X89714285Y-91204819D01*
X89714285Y-91204819D02*
X89952381Y-90204819D01*
X90761904Y-90538152D02*
X90761904Y-91204819D01*
X90523809Y-90157200D02*
X90285714Y-90871485D01*
X90285714Y-90871485D02*
X90904761Y-90871485D01*
X91714285Y-90538152D02*
X91714285Y-91204819D01*
X91476190Y-90157200D02*
X91238095Y-90871485D01*
X91238095Y-90871485D02*
X91857142Y-90871485D01*
X34666667Y-34007200D02*
X34809524Y-34054819D01*
X34809524Y-34054819D02*
X35047619Y-34054819D01*
X35047619Y-34054819D02*
X35142857Y-34007200D01*
X35142857Y-34007200D02*
X35190476Y-33959580D01*
X35190476Y-33959580D02*
X35238095Y-33864342D01*
X35238095Y-33864342D02*
X35238095Y-33769104D01*
X35238095Y-33769104D02*
X35190476Y-33673866D01*
X35190476Y-33673866D02*
X35142857Y-33626247D01*
X35142857Y-33626247D02*
X35047619Y-33578628D01*
X35047619Y-33578628D02*
X34857143Y-33531009D01*
X34857143Y-33531009D02*
X34761905Y-33483390D01*
X34761905Y-33483390D02*
X34714286Y-33435771D01*
X34714286Y-33435771D02*
X34666667Y-33340533D01*
X34666667Y-33340533D02*
X34666667Y-33245295D01*
X34666667Y-33245295D02*
X34714286Y-33150057D01*
X34714286Y-33150057D02*
X34761905Y-33102438D01*
X34761905Y-33102438D02*
X34857143Y-33054819D01*
X34857143Y-33054819D02*
X35095238Y-33054819D01*
X35095238Y-33054819D02*
X35238095Y-33102438D01*
X35571429Y-33054819D02*
X35809524Y-34054819D01*
X35809524Y-34054819D02*
X36000000Y-33340533D01*
X36000000Y-33340533D02*
X36190476Y-34054819D01*
X36190476Y-34054819D02*
X36428572Y-33054819D01*
X37333333Y-34054819D02*
X36761905Y-34054819D01*
X37047619Y-34054819D02*
X37047619Y-33054819D01*
X37047619Y-33054819D02*
X36952381Y-33197676D01*
X36952381Y-33197676D02*
X36857143Y-33292914D01*
X36857143Y-33292914D02*
X36761905Y-33340533D01*
X196190476Y-91157200D02*
X196333333Y-91204819D01*
X196333333Y-91204819D02*
X196571428Y-91204819D01*
X196571428Y-91204819D02*
X196666666Y-91157200D01*
X196666666Y-91157200D02*
X196714285Y-91109580D01*
X196714285Y-91109580D02*
X196761904Y-91014342D01*
X196761904Y-91014342D02*
X196761904Y-90919104D01*
X196761904Y-90919104D02*
X196714285Y-90823866D01*
X196714285Y-90823866D02*
X196666666Y-90776247D01*
X196666666Y-90776247D02*
X196571428Y-90728628D01*
X196571428Y-90728628D02*
X196380952Y-90681009D01*
X196380952Y-90681009D02*
X196285714Y-90633390D01*
X196285714Y-90633390D02*
X196238095Y-90585771D01*
X196238095Y-90585771D02*
X196190476Y-90490533D01*
X196190476Y-90490533D02*
X196190476Y-90395295D01*
X196190476Y-90395295D02*
X196238095Y-90300057D01*
X196238095Y-90300057D02*
X196285714Y-90252438D01*
X196285714Y-90252438D02*
X196380952Y-90204819D01*
X196380952Y-90204819D02*
X196619047Y-90204819D01*
X196619047Y-90204819D02*
X196761904Y-90252438D01*
X197095238Y-90204819D02*
X197333333Y-91204819D01*
X197333333Y-91204819D02*
X197523809Y-90490533D01*
X197523809Y-90490533D02*
X197714285Y-91204819D01*
X197714285Y-91204819D02*
X197952381Y-90204819D01*
X198809523Y-90204819D02*
X198333333Y-90204819D01*
X198333333Y-90204819D02*
X198285714Y-90681009D01*
X198285714Y-90681009D02*
X198333333Y-90633390D01*
X198333333Y-90633390D02*
X198428571Y-90585771D01*
X198428571Y-90585771D02*
X198666666Y-90585771D01*
X198666666Y-90585771D02*
X198761904Y-90633390D01*
X198761904Y-90633390D02*
X198809523Y-90681009D01*
X198809523Y-90681009D02*
X198857142Y-90776247D01*
X198857142Y-90776247D02*
X198857142Y-91014342D01*
X198857142Y-91014342D02*
X198809523Y-91109580D01*
X198809523Y-91109580D02*
X198761904Y-91157200D01*
X198761904Y-91157200D02*
X198666666Y-91204819D01*
X198666666Y-91204819D02*
X198428571Y-91204819D01*
X198428571Y-91204819D02*
X198333333Y-91157200D01*
X198333333Y-91157200D02*
X198285714Y-91109580D01*
X199476190Y-90204819D02*
X199571428Y-90204819D01*
X199571428Y-90204819D02*
X199666666Y-90252438D01*
X199666666Y-90252438D02*
X199714285Y-90300057D01*
X199714285Y-90300057D02*
X199761904Y-90395295D01*
X199761904Y-90395295D02*
X199809523Y-90585771D01*
X199809523Y-90585771D02*
X199809523Y-90823866D01*
X199809523Y-90823866D02*
X199761904Y-91014342D01*
X199761904Y-91014342D02*
X199714285Y-91109580D01*
X199714285Y-91109580D02*
X199666666Y-91157200D01*
X199666666Y-91157200D02*
X199571428Y-91204819D01*
X199571428Y-91204819D02*
X199476190Y-91204819D01*
X199476190Y-91204819D02*
X199380952Y-91157200D01*
X199380952Y-91157200D02*
X199333333Y-91109580D01*
X199333333Y-91109580D02*
X199285714Y-91014342D01*
X199285714Y-91014342D02*
X199238095Y-90823866D01*
X199238095Y-90823866D02*
X199238095Y-90585771D01*
X199238095Y-90585771D02*
X199285714Y-90395295D01*
X199285714Y-90395295D02*
X199333333Y-90300057D01*
X199333333Y-90300057D02*
X199380952Y-90252438D01*
X199380952Y-90252438D02*
X199476190Y-90204819D01*
X268190476Y-53057200D02*
X268333333Y-53104819D01*
X268333333Y-53104819D02*
X268571428Y-53104819D01*
X268571428Y-53104819D02*
X268666666Y-53057200D01*
X268666666Y-53057200D02*
X268714285Y-53009580D01*
X268714285Y-53009580D02*
X268761904Y-52914342D01*
X268761904Y-52914342D02*
X268761904Y-52819104D01*
X268761904Y-52819104D02*
X268714285Y-52723866D01*
X268714285Y-52723866D02*
X268666666Y-52676247D01*
X268666666Y-52676247D02*
X268571428Y-52628628D01*
X268571428Y-52628628D02*
X268380952Y-52581009D01*
X268380952Y-52581009D02*
X268285714Y-52533390D01*
X268285714Y-52533390D02*
X268238095Y-52485771D01*
X268238095Y-52485771D02*
X268190476Y-52390533D01*
X268190476Y-52390533D02*
X268190476Y-52295295D01*
X268190476Y-52295295D02*
X268238095Y-52200057D01*
X268238095Y-52200057D02*
X268285714Y-52152438D01*
X268285714Y-52152438D02*
X268380952Y-52104819D01*
X268380952Y-52104819D02*
X268619047Y-52104819D01*
X268619047Y-52104819D02*
X268761904Y-52152438D01*
X269095238Y-52104819D02*
X269333333Y-53104819D01*
X269333333Y-53104819D02*
X269523809Y-52390533D01*
X269523809Y-52390533D02*
X269714285Y-53104819D01*
X269714285Y-53104819D02*
X269952381Y-52104819D01*
X270285714Y-52200057D02*
X270333333Y-52152438D01*
X270333333Y-52152438D02*
X270428571Y-52104819D01*
X270428571Y-52104819D02*
X270666666Y-52104819D01*
X270666666Y-52104819D02*
X270761904Y-52152438D01*
X270761904Y-52152438D02*
X270809523Y-52200057D01*
X270809523Y-52200057D02*
X270857142Y-52295295D01*
X270857142Y-52295295D02*
X270857142Y-52390533D01*
X270857142Y-52390533D02*
X270809523Y-52533390D01*
X270809523Y-52533390D02*
X270238095Y-53104819D01*
X270238095Y-53104819D02*
X270857142Y-53104819D01*
X271428571Y-52533390D02*
X271333333Y-52485771D01*
X271333333Y-52485771D02*
X271285714Y-52438152D01*
X271285714Y-52438152D02*
X271238095Y-52342914D01*
X271238095Y-52342914D02*
X271238095Y-52295295D01*
X271238095Y-52295295D02*
X271285714Y-52200057D01*
X271285714Y-52200057D02*
X271333333Y-52152438D01*
X271333333Y-52152438D02*
X271428571Y-52104819D01*
X271428571Y-52104819D02*
X271619047Y-52104819D01*
X271619047Y-52104819D02*
X271714285Y-52152438D01*
X271714285Y-52152438D02*
X271761904Y-52200057D01*
X271761904Y-52200057D02*
X271809523Y-52295295D01*
X271809523Y-52295295D02*
X271809523Y-52342914D01*
X271809523Y-52342914D02*
X271761904Y-52438152D01*
X271761904Y-52438152D02*
X271714285Y-52485771D01*
X271714285Y-52485771D02*
X271619047Y-52533390D01*
X271619047Y-52533390D02*
X271428571Y-52533390D01*
X271428571Y-52533390D02*
X271333333Y-52581009D01*
X271333333Y-52581009D02*
X271285714Y-52628628D01*
X271285714Y-52628628D02*
X271238095Y-52723866D01*
X271238095Y-52723866D02*
X271238095Y-52914342D01*
X271238095Y-52914342D02*
X271285714Y-53009580D01*
X271285714Y-53009580D02*
X271333333Y-53057200D01*
X271333333Y-53057200D02*
X271428571Y-53104819D01*
X271428571Y-53104819D02*
X271619047Y-53104819D01*
X271619047Y-53104819D02*
X271714285Y-53057200D01*
X271714285Y-53057200D02*
X271761904Y-53009580D01*
X271761904Y-53009580D02*
X271809523Y-52914342D01*
X271809523Y-52914342D02*
X271809523Y-52723866D01*
X271809523Y-52723866D02*
X271761904Y-52628628D01*
X271761904Y-52628628D02*
X271714285Y-52581009D01*
X271714285Y-52581009D02*
X271619047Y-52533390D01*
X70190476Y-91157200D02*
X70333333Y-91204819D01*
X70333333Y-91204819D02*
X70571428Y-91204819D01*
X70571428Y-91204819D02*
X70666666Y-91157200D01*
X70666666Y-91157200D02*
X70714285Y-91109580D01*
X70714285Y-91109580D02*
X70761904Y-91014342D01*
X70761904Y-91014342D02*
X70761904Y-90919104D01*
X70761904Y-90919104D02*
X70714285Y-90823866D01*
X70714285Y-90823866D02*
X70666666Y-90776247D01*
X70666666Y-90776247D02*
X70571428Y-90728628D01*
X70571428Y-90728628D02*
X70380952Y-90681009D01*
X70380952Y-90681009D02*
X70285714Y-90633390D01*
X70285714Y-90633390D02*
X70238095Y-90585771D01*
X70238095Y-90585771D02*
X70190476Y-90490533D01*
X70190476Y-90490533D02*
X70190476Y-90395295D01*
X70190476Y-90395295D02*
X70238095Y-90300057D01*
X70238095Y-90300057D02*
X70285714Y-90252438D01*
X70285714Y-90252438D02*
X70380952Y-90204819D01*
X70380952Y-90204819D02*
X70619047Y-90204819D01*
X70619047Y-90204819D02*
X70761904Y-90252438D01*
X71095238Y-90204819D02*
X71333333Y-91204819D01*
X71333333Y-91204819D02*
X71523809Y-90490533D01*
X71523809Y-90490533D02*
X71714285Y-91204819D01*
X71714285Y-91204819D02*
X71952381Y-90204819D01*
X72761904Y-90538152D02*
X72761904Y-91204819D01*
X72523809Y-90157200D02*
X72285714Y-90871485D01*
X72285714Y-90871485D02*
X72904761Y-90871485D01*
X73190476Y-90204819D02*
X73809523Y-90204819D01*
X73809523Y-90204819D02*
X73476190Y-90585771D01*
X73476190Y-90585771D02*
X73619047Y-90585771D01*
X73619047Y-90585771D02*
X73714285Y-90633390D01*
X73714285Y-90633390D02*
X73761904Y-90681009D01*
X73761904Y-90681009D02*
X73809523Y-90776247D01*
X73809523Y-90776247D02*
X73809523Y-91014342D01*
X73809523Y-91014342D02*
X73761904Y-91109580D01*
X73761904Y-91109580D02*
X73714285Y-91157200D01*
X73714285Y-91157200D02*
X73619047Y-91204819D01*
X73619047Y-91204819D02*
X73333333Y-91204819D01*
X73333333Y-91204819D02*
X73238095Y-91157200D01*
X73238095Y-91157200D02*
X73190476Y-91109580D01*
X185390476Y-72107200D02*
X185533333Y-72154819D01*
X185533333Y-72154819D02*
X185771428Y-72154819D01*
X185771428Y-72154819D02*
X185866666Y-72107200D01*
X185866666Y-72107200D02*
X185914285Y-72059580D01*
X185914285Y-72059580D02*
X185961904Y-71964342D01*
X185961904Y-71964342D02*
X185961904Y-71869104D01*
X185961904Y-71869104D02*
X185914285Y-71773866D01*
X185914285Y-71773866D02*
X185866666Y-71726247D01*
X185866666Y-71726247D02*
X185771428Y-71678628D01*
X185771428Y-71678628D02*
X185580952Y-71631009D01*
X185580952Y-71631009D02*
X185485714Y-71583390D01*
X185485714Y-71583390D02*
X185438095Y-71535771D01*
X185438095Y-71535771D02*
X185390476Y-71440533D01*
X185390476Y-71440533D02*
X185390476Y-71345295D01*
X185390476Y-71345295D02*
X185438095Y-71250057D01*
X185438095Y-71250057D02*
X185485714Y-71202438D01*
X185485714Y-71202438D02*
X185580952Y-71154819D01*
X185580952Y-71154819D02*
X185819047Y-71154819D01*
X185819047Y-71154819D02*
X185961904Y-71202438D01*
X186295238Y-71154819D02*
X186533333Y-72154819D01*
X186533333Y-72154819D02*
X186723809Y-71440533D01*
X186723809Y-71440533D02*
X186914285Y-72154819D01*
X186914285Y-72154819D02*
X187152381Y-71154819D01*
X187438095Y-71154819D02*
X188057142Y-71154819D01*
X188057142Y-71154819D02*
X187723809Y-71535771D01*
X187723809Y-71535771D02*
X187866666Y-71535771D01*
X187866666Y-71535771D02*
X187961904Y-71583390D01*
X187961904Y-71583390D02*
X188009523Y-71631009D01*
X188009523Y-71631009D02*
X188057142Y-71726247D01*
X188057142Y-71726247D02*
X188057142Y-71964342D01*
X188057142Y-71964342D02*
X188009523Y-72059580D01*
X188009523Y-72059580D02*
X187961904Y-72107200D01*
X187961904Y-72107200D02*
X187866666Y-72154819D01*
X187866666Y-72154819D02*
X187580952Y-72154819D01*
X187580952Y-72154819D02*
X187485714Y-72107200D01*
X187485714Y-72107200D02*
X187438095Y-72059580D01*
X188390476Y-71154819D02*
X189057142Y-71154819D01*
X189057142Y-71154819D02*
X188628571Y-72154819D01*
X106666667Y-34007200D02*
X106809524Y-34054819D01*
X106809524Y-34054819D02*
X107047619Y-34054819D01*
X107047619Y-34054819D02*
X107142857Y-34007200D01*
X107142857Y-34007200D02*
X107190476Y-33959580D01*
X107190476Y-33959580D02*
X107238095Y-33864342D01*
X107238095Y-33864342D02*
X107238095Y-33769104D01*
X107238095Y-33769104D02*
X107190476Y-33673866D01*
X107190476Y-33673866D02*
X107142857Y-33626247D01*
X107142857Y-33626247D02*
X107047619Y-33578628D01*
X107047619Y-33578628D02*
X106857143Y-33531009D01*
X106857143Y-33531009D02*
X106761905Y-33483390D01*
X106761905Y-33483390D02*
X106714286Y-33435771D01*
X106714286Y-33435771D02*
X106666667Y-33340533D01*
X106666667Y-33340533D02*
X106666667Y-33245295D01*
X106666667Y-33245295D02*
X106714286Y-33150057D01*
X106714286Y-33150057D02*
X106761905Y-33102438D01*
X106761905Y-33102438D02*
X106857143Y-33054819D01*
X106857143Y-33054819D02*
X107095238Y-33054819D01*
X107095238Y-33054819D02*
X107238095Y-33102438D01*
X107571429Y-33054819D02*
X107809524Y-34054819D01*
X107809524Y-34054819D02*
X108000000Y-33340533D01*
X108000000Y-33340533D02*
X108190476Y-34054819D01*
X108190476Y-34054819D02*
X108428572Y-33054819D01*
X109285714Y-33054819D02*
X108809524Y-33054819D01*
X108809524Y-33054819D02*
X108761905Y-33531009D01*
X108761905Y-33531009D02*
X108809524Y-33483390D01*
X108809524Y-33483390D02*
X108904762Y-33435771D01*
X108904762Y-33435771D02*
X109142857Y-33435771D01*
X109142857Y-33435771D02*
X109238095Y-33483390D01*
X109238095Y-33483390D02*
X109285714Y-33531009D01*
X109285714Y-33531009D02*
X109333333Y-33626247D01*
X109333333Y-33626247D02*
X109333333Y-33864342D01*
X109333333Y-33864342D02*
X109285714Y-33959580D01*
X109285714Y-33959580D02*
X109238095Y-34007200D01*
X109238095Y-34007200D02*
X109142857Y-34054819D01*
X109142857Y-34054819D02*
X108904762Y-34054819D01*
X108904762Y-34054819D02*
X108809524Y-34007200D01*
X108809524Y-34007200D02*
X108761905Y-33959580D01*
X59390476Y-72107200D02*
X59533333Y-72154819D01*
X59533333Y-72154819D02*
X59771428Y-72154819D01*
X59771428Y-72154819D02*
X59866666Y-72107200D01*
X59866666Y-72107200D02*
X59914285Y-72059580D01*
X59914285Y-72059580D02*
X59961904Y-71964342D01*
X59961904Y-71964342D02*
X59961904Y-71869104D01*
X59961904Y-71869104D02*
X59914285Y-71773866D01*
X59914285Y-71773866D02*
X59866666Y-71726247D01*
X59866666Y-71726247D02*
X59771428Y-71678628D01*
X59771428Y-71678628D02*
X59580952Y-71631009D01*
X59580952Y-71631009D02*
X59485714Y-71583390D01*
X59485714Y-71583390D02*
X59438095Y-71535771D01*
X59438095Y-71535771D02*
X59390476Y-71440533D01*
X59390476Y-71440533D02*
X59390476Y-71345295D01*
X59390476Y-71345295D02*
X59438095Y-71250057D01*
X59438095Y-71250057D02*
X59485714Y-71202438D01*
X59485714Y-71202438D02*
X59580952Y-71154819D01*
X59580952Y-71154819D02*
X59819047Y-71154819D01*
X59819047Y-71154819D02*
X59961904Y-71202438D01*
X60295238Y-71154819D02*
X60533333Y-72154819D01*
X60533333Y-72154819D02*
X60723809Y-71440533D01*
X60723809Y-71440533D02*
X60914285Y-72154819D01*
X60914285Y-72154819D02*
X61152381Y-71154819D01*
X61438095Y-71154819D02*
X62057142Y-71154819D01*
X62057142Y-71154819D02*
X61723809Y-71535771D01*
X61723809Y-71535771D02*
X61866666Y-71535771D01*
X61866666Y-71535771D02*
X61961904Y-71583390D01*
X61961904Y-71583390D02*
X62009523Y-71631009D01*
X62009523Y-71631009D02*
X62057142Y-71726247D01*
X62057142Y-71726247D02*
X62057142Y-71964342D01*
X62057142Y-71964342D02*
X62009523Y-72059580D01*
X62009523Y-72059580D02*
X61961904Y-72107200D01*
X61961904Y-72107200D02*
X61866666Y-72154819D01*
X61866666Y-72154819D02*
X61580952Y-72154819D01*
X61580952Y-72154819D02*
X61485714Y-72107200D01*
X61485714Y-72107200D02*
X61438095Y-72059580D01*
X62676190Y-71154819D02*
X62771428Y-71154819D01*
X62771428Y-71154819D02*
X62866666Y-71202438D01*
X62866666Y-71202438D02*
X62914285Y-71250057D01*
X62914285Y-71250057D02*
X62961904Y-71345295D01*
X62961904Y-71345295D02*
X63009523Y-71535771D01*
X63009523Y-71535771D02*
X63009523Y-71773866D01*
X63009523Y-71773866D02*
X62961904Y-71964342D01*
X62961904Y-71964342D02*
X62914285Y-72059580D01*
X62914285Y-72059580D02*
X62866666Y-72107200D01*
X62866666Y-72107200D02*
X62771428Y-72154819D01*
X62771428Y-72154819D02*
X62676190Y-72154819D01*
X62676190Y-72154819D02*
X62580952Y-72107200D01*
X62580952Y-72107200D02*
X62533333Y-72059580D01*
X62533333Y-72059580D02*
X62485714Y-71964342D01*
X62485714Y-71964342D02*
X62438095Y-71773866D01*
X62438095Y-71773866D02*
X62438095Y-71535771D01*
X62438095Y-71535771D02*
X62485714Y-71345295D01*
X62485714Y-71345295D02*
X62533333Y-71250057D01*
X62533333Y-71250057D02*
X62580952Y-71202438D01*
X62580952Y-71202438D02*
X62676190Y-71154819D01*
X88666667Y-34007200D02*
X88809524Y-34054819D01*
X88809524Y-34054819D02*
X89047619Y-34054819D01*
X89047619Y-34054819D02*
X89142857Y-34007200D01*
X89142857Y-34007200D02*
X89190476Y-33959580D01*
X89190476Y-33959580D02*
X89238095Y-33864342D01*
X89238095Y-33864342D02*
X89238095Y-33769104D01*
X89238095Y-33769104D02*
X89190476Y-33673866D01*
X89190476Y-33673866D02*
X89142857Y-33626247D01*
X89142857Y-33626247D02*
X89047619Y-33578628D01*
X89047619Y-33578628D02*
X88857143Y-33531009D01*
X88857143Y-33531009D02*
X88761905Y-33483390D01*
X88761905Y-33483390D02*
X88714286Y-33435771D01*
X88714286Y-33435771D02*
X88666667Y-33340533D01*
X88666667Y-33340533D02*
X88666667Y-33245295D01*
X88666667Y-33245295D02*
X88714286Y-33150057D01*
X88714286Y-33150057D02*
X88761905Y-33102438D01*
X88761905Y-33102438D02*
X88857143Y-33054819D01*
X88857143Y-33054819D02*
X89095238Y-33054819D01*
X89095238Y-33054819D02*
X89238095Y-33102438D01*
X89571429Y-33054819D02*
X89809524Y-34054819D01*
X89809524Y-34054819D02*
X90000000Y-33340533D01*
X90000000Y-33340533D02*
X90190476Y-34054819D01*
X90190476Y-34054819D02*
X90428572Y-33054819D01*
X91238095Y-33388152D02*
X91238095Y-34054819D01*
X91000000Y-33007200D02*
X90761905Y-33721485D01*
X90761905Y-33721485D02*
X91380952Y-33721485D01*
X266390476Y-34007200D02*
X266533333Y-34054819D01*
X266533333Y-34054819D02*
X266771428Y-34054819D01*
X266771428Y-34054819D02*
X266866666Y-34007200D01*
X266866666Y-34007200D02*
X266914285Y-33959580D01*
X266914285Y-33959580D02*
X266961904Y-33864342D01*
X266961904Y-33864342D02*
X266961904Y-33769104D01*
X266961904Y-33769104D02*
X266914285Y-33673866D01*
X266914285Y-33673866D02*
X266866666Y-33626247D01*
X266866666Y-33626247D02*
X266771428Y-33578628D01*
X266771428Y-33578628D02*
X266580952Y-33531009D01*
X266580952Y-33531009D02*
X266485714Y-33483390D01*
X266485714Y-33483390D02*
X266438095Y-33435771D01*
X266438095Y-33435771D02*
X266390476Y-33340533D01*
X266390476Y-33340533D02*
X266390476Y-33245295D01*
X266390476Y-33245295D02*
X266438095Y-33150057D01*
X266438095Y-33150057D02*
X266485714Y-33102438D01*
X266485714Y-33102438D02*
X266580952Y-33054819D01*
X266580952Y-33054819D02*
X266819047Y-33054819D01*
X266819047Y-33054819D02*
X266961904Y-33102438D01*
X267295238Y-33054819D02*
X267533333Y-34054819D01*
X267533333Y-34054819D02*
X267723809Y-33340533D01*
X267723809Y-33340533D02*
X267914285Y-34054819D01*
X267914285Y-34054819D02*
X268152381Y-33054819D01*
X269057142Y-34054819D02*
X268485714Y-34054819D01*
X268771428Y-34054819D02*
X268771428Y-33054819D01*
X268771428Y-33054819D02*
X268676190Y-33197676D01*
X268676190Y-33197676D02*
X268580952Y-33292914D01*
X268580952Y-33292914D02*
X268485714Y-33340533D01*
X269914285Y-33388152D02*
X269914285Y-34054819D01*
X269676190Y-33007200D02*
X269438095Y-33721485D01*
X269438095Y-33721485D02*
X270057142Y-33721485D01*
X196190476Y-34007200D02*
X196333333Y-34054819D01*
X196333333Y-34054819D02*
X196571428Y-34054819D01*
X196571428Y-34054819D02*
X196666666Y-34007200D01*
X196666666Y-34007200D02*
X196714285Y-33959580D01*
X196714285Y-33959580D02*
X196761904Y-33864342D01*
X196761904Y-33864342D02*
X196761904Y-33769104D01*
X196761904Y-33769104D02*
X196714285Y-33673866D01*
X196714285Y-33673866D02*
X196666666Y-33626247D01*
X196666666Y-33626247D02*
X196571428Y-33578628D01*
X196571428Y-33578628D02*
X196380952Y-33531009D01*
X196380952Y-33531009D02*
X196285714Y-33483390D01*
X196285714Y-33483390D02*
X196238095Y-33435771D01*
X196238095Y-33435771D02*
X196190476Y-33340533D01*
X196190476Y-33340533D02*
X196190476Y-33245295D01*
X196190476Y-33245295D02*
X196238095Y-33150057D01*
X196238095Y-33150057D02*
X196285714Y-33102438D01*
X196285714Y-33102438D02*
X196380952Y-33054819D01*
X196380952Y-33054819D02*
X196619047Y-33054819D01*
X196619047Y-33054819D02*
X196761904Y-33102438D01*
X197095238Y-33054819D02*
X197333333Y-34054819D01*
X197333333Y-34054819D02*
X197523809Y-33340533D01*
X197523809Y-33340533D02*
X197714285Y-34054819D01*
X197714285Y-34054819D02*
X197952381Y-33054819D01*
X198857142Y-34054819D02*
X198285714Y-34054819D01*
X198571428Y-34054819D02*
X198571428Y-33054819D01*
X198571428Y-33054819D02*
X198476190Y-33197676D01*
X198476190Y-33197676D02*
X198380952Y-33292914D01*
X198380952Y-33292914D02*
X198285714Y-33340533D01*
X199476190Y-33054819D02*
X199571428Y-33054819D01*
X199571428Y-33054819D02*
X199666666Y-33102438D01*
X199666666Y-33102438D02*
X199714285Y-33150057D01*
X199714285Y-33150057D02*
X199761904Y-33245295D01*
X199761904Y-33245295D02*
X199809523Y-33435771D01*
X199809523Y-33435771D02*
X199809523Y-33673866D01*
X199809523Y-33673866D02*
X199761904Y-33864342D01*
X199761904Y-33864342D02*
X199714285Y-33959580D01*
X199714285Y-33959580D02*
X199666666Y-34007200D01*
X199666666Y-34007200D02*
X199571428Y-34054819D01*
X199571428Y-34054819D02*
X199476190Y-34054819D01*
X199476190Y-34054819D02*
X199380952Y-34007200D01*
X199380952Y-34007200D02*
X199333333Y-33959580D01*
X199333333Y-33959580D02*
X199285714Y-33864342D01*
X199285714Y-33864342D02*
X199238095Y-33673866D01*
X199238095Y-33673866D02*
X199238095Y-33435771D01*
X199238095Y-33435771D02*
X199285714Y-33245295D01*
X199285714Y-33245295D02*
X199333333Y-33150057D01*
X199333333Y-33150057D02*
X199380952Y-33102438D01*
X199380952Y-33102438D02*
X199476190Y-33054819D01*
X232190476Y-91157200D02*
X232333333Y-91204819D01*
X232333333Y-91204819D02*
X232571428Y-91204819D01*
X232571428Y-91204819D02*
X232666666Y-91157200D01*
X232666666Y-91157200D02*
X232714285Y-91109580D01*
X232714285Y-91109580D02*
X232761904Y-91014342D01*
X232761904Y-91014342D02*
X232761904Y-90919104D01*
X232761904Y-90919104D02*
X232714285Y-90823866D01*
X232714285Y-90823866D02*
X232666666Y-90776247D01*
X232666666Y-90776247D02*
X232571428Y-90728628D01*
X232571428Y-90728628D02*
X232380952Y-90681009D01*
X232380952Y-90681009D02*
X232285714Y-90633390D01*
X232285714Y-90633390D02*
X232238095Y-90585771D01*
X232238095Y-90585771D02*
X232190476Y-90490533D01*
X232190476Y-90490533D02*
X232190476Y-90395295D01*
X232190476Y-90395295D02*
X232238095Y-90300057D01*
X232238095Y-90300057D02*
X232285714Y-90252438D01*
X232285714Y-90252438D02*
X232380952Y-90204819D01*
X232380952Y-90204819D02*
X232619047Y-90204819D01*
X232619047Y-90204819D02*
X232761904Y-90252438D01*
X233095238Y-90204819D02*
X233333333Y-91204819D01*
X233333333Y-91204819D02*
X233523809Y-90490533D01*
X233523809Y-90490533D02*
X233714285Y-91204819D01*
X233714285Y-91204819D02*
X233952381Y-90204819D01*
X234809523Y-90204819D02*
X234333333Y-90204819D01*
X234333333Y-90204819D02*
X234285714Y-90681009D01*
X234285714Y-90681009D02*
X234333333Y-90633390D01*
X234333333Y-90633390D02*
X234428571Y-90585771D01*
X234428571Y-90585771D02*
X234666666Y-90585771D01*
X234666666Y-90585771D02*
X234761904Y-90633390D01*
X234761904Y-90633390D02*
X234809523Y-90681009D01*
X234809523Y-90681009D02*
X234857142Y-90776247D01*
X234857142Y-90776247D02*
X234857142Y-91014342D01*
X234857142Y-91014342D02*
X234809523Y-91109580D01*
X234809523Y-91109580D02*
X234761904Y-91157200D01*
X234761904Y-91157200D02*
X234666666Y-91204819D01*
X234666666Y-91204819D02*
X234428571Y-91204819D01*
X234428571Y-91204819D02*
X234333333Y-91157200D01*
X234333333Y-91157200D02*
X234285714Y-91109580D01*
X235238095Y-90300057D02*
X235285714Y-90252438D01*
X235285714Y-90252438D02*
X235380952Y-90204819D01*
X235380952Y-90204819D02*
X235619047Y-90204819D01*
X235619047Y-90204819D02*
X235714285Y-90252438D01*
X235714285Y-90252438D02*
X235761904Y-90300057D01*
X235761904Y-90300057D02*
X235809523Y-90395295D01*
X235809523Y-90395295D02*
X235809523Y-90490533D01*
X235809523Y-90490533D02*
X235761904Y-90633390D01*
X235761904Y-90633390D02*
X235190476Y-91204819D01*
X235190476Y-91204819D02*
X235809523Y-91204819D01*
X203390476Y-72107200D02*
X203533333Y-72154819D01*
X203533333Y-72154819D02*
X203771428Y-72154819D01*
X203771428Y-72154819D02*
X203866666Y-72107200D01*
X203866666Y-72107200D02*
X203914285Y-72059580D01*
X203914285Y-72059580D02*
X203961904Y-71964342D01*
X203961904Y-71964342D02*
X203961904Y-71869104D01*
X203961904Y-71869104D02*
X203914285Y-71773866D01*
X203914285Y-71773866D02*
X203866666Y-71726247D01*
X203866666Y-71726247D02*
X203771428Y-71678628D01*
X203771428Y-71678628D02*
X203580952Y-71631009D01*
X203580952Y-71631009D02*
X203485714Y-71583390D01*
X203485714Y-71583390D02*
X203438095Y-71535771D01*
X203438095Y-71535771D02*
X203390476Y-71440533D01*
X203390476Y-71440533D02*
X203390476Y-71345295D01*
X203390476Y-71345295D02*
X203438095Y-71250057D01*
X203438095Y-71250057D02*
X203485714Y-71202438D01*
X203485714Y-71202438D02*
X203580952Y-71154819D01*
X203580952Y-71154819D02*
X203819047Y-71154819D01*
X203819047Y-71154819D02*
X203961904Y-71202438D01*
X204295238Y-71154819D02*
X204533333Y-72154819D01*
X204533333Y-72154819D02*
X204723809Y-71440533D01*
X204723809Y-71440533D02*
X204914285Y-72154819D01*
X204914285Y-72154819D02*
X205152381Y-71154819D01*
X205438095Y-71154819D02*
X206057142Y-71154819D01*
X206057142Y-71154819D02*
X205723809Y-71535771D01*
X205723809Y-71535771D02*
X205866666Y-71535771D01*
X205866666Y-71535771D02*
X205961904Y-71583390D01*
X205961904Y-71583390D02*
X206009523Y-71631009D01*
X206009523Y-71631009D02*
X206057142Y-71726247D01*
X206057142Y-71726247D02*
X206057142Y-71964342D01*
X206057142Y-71964342D02*
X206009523Y-72059580D01*
X206009523Y-72059580D02*
X205961904Y-72107200D01*
X205961904Y-72107200D02*
X205866666Y-72154819D01*
X205866666Y-72154819D02*
X205580952Y-72154819D01*
X205580952Y-72154819D02*
X205485714Y-72107200D01*
X205485714Y-72107200D02*
X205438095Y-72059580D01*
X206628571Y-71583390D02*
X206533333Y-71535771D01*
X206533333Y-71535771D02*
X206485714Y-71488152D01*
X206485714Y-71488152D02*
X206438095Y-71392914D01*
X206438095Y-71392914D02*
X206438095Y-71345295D01*
X206438095Y-71345295D02*
X206485714Y-71250057D01*
X206485714Y-71250057D02*
X206533333Y-71202438D01*
X206533333Y-71202438D02*
X206628571Y-71154819D01*
X206628571Y-71154819D02*
X206819047Y-71154819D01*
X206819047Y-71154819D02*
X206914285Y-71202438D01*
X206914285Y-71202438D02*
X206961904Y-71250057D01*
X206961904Y-71250057D02*
X207009523Y-71345295D01*
X207009523Y-71345295D02*
X207009523Y-71392914D01*
X207009523Y-71392914D02*
X206961904Y-71488152D01*
X206961904Y-71488152D02*
X206914285Y-71535771D01*
X206914285Y-71535771D02*
X206819047Y-71583390D01*
X206819047Y-71583390D02*
X206628571Y-71583390D01*
X206628571Y-71583390D02*
X206533333Y-71631009D01*
X206533333Y-71631009D02*
X206485714Y-71678628D01*
X206485714Y-71678628D02*
X206438095Y-71773866D01*
X206438095Y-71773866D02*
X206438095Y-71964342D01*
X206438095Y-71964342D02*
X206485714Y-72059580D01*
X206485714Y-72059580D02*
X206533333Y-72107200D01*
X206533333Y-72107200D02*
X206628571Y-72154819D01*
X206628571Y-72154819D02*
X206819047Y-72154819D01*
X206819047Y-72154819D02*
X206914285Y-72107200D01*
X206914285Y-72107200D02*
X206961904Y-72059580D01*
X206961904Y-72059580D02*
X207009523Y-71964342D01*
X207009523Y-71964342D02*
X207009523Y-71773866D01*
X207009523Y-71773866D02*
X206961904Y-71678628D01*
X206961904Y-71678628D02*
X206914285Y-71631009D01*
X206914285Y-71631009D02*
X206819047Y-71583390D01*
X149390476Y-72107200D02*
X149533333Y-72154819D01*
X149533333Y-72154819D02*
X149771428Y-72154819D01*
X149771428Y-72154819D02*
X149866666Y-72107200D01*
X149866666Y-72107200D02*
X149914285Y-72059580D01*
X149914285Y-72059580D02*
X149961904Y-71964342D01*
X149961904Y-71964342D02*
X149961904Y-71869104D01*
X149961904Y-71869104D02*
X149914285Y-71773866D01*
X149914285Y-71773866D02*
X149866666Y-71726247D01*
X149866666Y-71726247D02*
X149771428Y-71678628D01*
X149771428Y-71678628D02*
X149580952Y-71631009D01*
X149580952Y-71631009D02*
X149485714Y-71583390D01*
X149485714Y-71583390D02*
X149438095Y-71535771D01*
X149438095Y-71535771D02*
X149390476Y-71440533D01*
X149390476Y-71440533D02*
X149390476Y-71345295D01*
X149390476Y-71345295D02*
X149438095Y-71250057D01*
X149438095Y-71250057D02*
X149485714Y-71202438D01*
X149485714Y-71202438D02*
X149580952Y-71154819D01*
X149580952Y-71154819D02*
X149819047Y-71154819D01*
X149819047Y-71154819D02*
X149961904Y-71202438D01*
X150295238Y-71154819D02*
X150533333Y-72154819D01*
X150533333Y-72154819D02*
X150723809Y-71440533D01*
X150723809Y-71440533D02*
X150914285Y-72154819D01*
X150914285Y-72154819D02*
X151152381Y-71154819D01*
X151438095Y-71154819D02*
X152057142Y-71154819D01*
X152057142Y-71154819D02*
X151723809Y-71535771D01*
X151723809Y-71535771D02*
X151866666Y-71535771D01*
X151866666Y-71535771D02*
X151961904Y-71583390D01*
X151961904Y-71583390D02*
X152009523Y-71631009D01*
X152009523Y-71631009D02*
X152057142Y-71726247D01*
X152057142Y-71726247D02*
X152057142Y-71964342D01*
X152057142Y-71964342D02*
X152009523Y-72059580D01*
X152009523Y-72059580D02*
X151961904Y-72107200D01*
X151961904Y-72107200D02*
X151866666Y-72154819D01*
X151866666Y-72154819D02*
X151580952Y-72154819D01*
X151580952Y-72154819D02*
X151485714Y-72107200D01*
X151485714Y-72107200D02*
X151438095Y-72059580D01*
X152961904Y-71154819D02*
X152485714Y-71154819D01*
X152485714Y-71154819D02*
X152438095Y-71631009D01*
X152438095Y-71631009D02*
X152485714Y-71583390D01*
X152485714Y-71583390D02*
X152580952Y-71535771D01*
X152580952Y-71535771D02*
X152819047Y-71535771D01*
X152819047Y-71535771D02*
X152914285Y-71583390D01*
X152914285Y-71583390D02*
X152961904Y-71631009D01*
X152961904Y-71631009D02*
X153009523Y-71726247D01*
X153009523Y-71726247D02*
X153009523Y-71964342D01*
X153009523Y-71964342D02*
X152961904Y-72059580D01*
X152961904Y-72059580D02*
X152914285Y-72107200D01*
X152914285Y-72107200D02*
X152819047Y-72154819D01*
X152819047Y-72154819D02*
X152580952Y-72154819D01*
X152580952Y-72154819D02*
X152485714Y-72107200D01*
X152485714Y-72107200D02*
X152438095Y-72059580D01*
X214190476Y-91157200D02*
X214333333Y-91204819D01*
X214333333Y-91204819D02*
X214571428Y-91204819D01*
X214571428Y-91204819D02*
X214666666Y-91157200D01*
X214666666Y-91157200D02*
X214714285Y-91109580D01*
X214714285Y-91109580D02*
X214761904Y-91014342D01*
X214761904Y-91014342D02*
X214761904Y-90919104D01*
X214761904Y-90919104D02*
X214714285Y-90823866D01*
X214714285Y-90823866D02*
X214666666Y-90776247D01*
X214666666Y-90776247D02*
X214571428Y-90728628D01*
X214571428Y-90728628D02*
X214380952Y-90681009D01*
X214380952Y-90681009D02*
X214285714Y-90633390D01*
X214285714Y-90633390D02*
X214238095Y-90585771D01*
X214238095Y-90585771D02*
X214190476Y-90490533D01*
X214190476Y-90490533D02*
X214190476Y-90395295D01*
X214190476Y-90395295D02*
X214238095Y-90300057D01*
X214238095Y-90300057D02*
X214285714Y-90252438D01*
X214285714Y-90252438D02*
X214380952Y-90204819D01*
X214380952Y-90204819D02*
X214619047Y-90204819D01*
X214619047Y-90204819D02*
X214761904Y-90252438D01*
X215095238Y-90204819D02*
X215333333Y-91204819D01*
X215333333Y-91204819D02*
X215523809Y-90490533D01*
X215523809Y-90490533D02*
X215714285Y-91204819D01*
X215714285Y-91204819D02*
X215952381Y-90204819D01*
X216809523Y-90204819D02*
X216333333Y-90204819D01*
X216333333Y-90204819D02*
X216285714Y-90681009D01*
X216285714Y-90681009D02*
X216333333Y-90633390D01*
X216333333Y-90633390D02*
X216428571Y-90585771D01*
X216428571Y-90585771D02*
X216666666Y-90585771D01*
X216666666Y-90585771D02*
X216761904Y-90633390D01*
X216761904Y-90633390D02*
X216809523Y-90681009D01*
X216809523Y-90681009D02*
X216857142Y-90776247D01*
X216857142Y-90776247D02*
X216857142Y-91014342D01*
X216857142Y-91014342D02*
X216809523Y-91109580D01*
X216809523Y-91109580D02*
X216761904Y-91157200D01*
X216761904Y-91157200D02*
X216666666Y-91204819D01*
X216666666Y-91204819D02*
X216428571Y-91204819D01*
X216428571Y-91204819D02*
X216333333Y-91157200D01*
X216333333Y-91157200D02*
X216285714Y-91109580D01*
X217809523Y-91204819D02*
X217238095Y-91204819D01*
X217523809Y-91204819D02*
X217523809Y-90204819D01*
X217523809Y-90204819D02*
X217428571Y-90347676D01*
X217428571Y-90347676D02*
X217333333Y-90442914D01*
X217333333Y-90442914D02*
X217238095Y-90490533D01*
X259190476Y-91157200D02*
X259333333Y-91204819D01*
X259333333Y-91204819D02*
X259571428Y-91204819D01*
X259571428Y-91204819D02*
X259666666Y-91157200D01*
X259666666Y-91157200D02*
X259714285Y-91109580D01*
X259714285Y-91109580D02*
X259761904Y-91014342D01*
X259761904Y-91014342D02*
X259761904Y-90919104D01*
X259761904Y-90919104D02*
X259714285Y-90823866D01*
X259714285Y-90823866D02*
X259666666Y-90776247D01*
X259666666Y-90776247D02*
X259571428Y-90728628D01*
X259571428Y-90728628D02*
X259380952Y-90681009D01*
X259380952Y-90681009D02*
X259285714Y-90633390D01*
X259285714Y-90633390D02*
X259238095Y-90585771D01*
X259238095Y-90585771D02*
X259190476Y-90490533D01*
X259190476Y-90490533D02*
X259190476Y-90395295D01*
X259190476Y-90395295D02*
X259238095Y-90300057D01*
X259238095Y-90300057D02*
X259285714Y-90252438D01*
X259285714Y-90252438D02*
X259380952Y-90204819D01*
X259380952Y-90204819D02*
X259619047Y-90204819D01*
X259619047Y-90204819D02*
X259761904Y-90252438D01*
X260095238Y-90204819D02*
X260333333Y-91204819D01*
X260333333Y-91204819D02*
X260523809Y-90490533D01*
X260523809Y-90490533D02*
X260714285Y-91204819D01*
X260714285Y-91204819D02*
X260952381Y-90204819D01*
X261809523Y-90204819D02*
X261333333Y-90204819D01*
X261333333Y-90204819D02*
X261285714Y-90681009D01*
X261285714Y-90681009D02*
X261333333Y-90633390D01*
X261333333Y-90633390D02*
X261428571Y-90585771D01*
X261428571Y-90585771D02*
X261666666Y-90585771D01*
X261666666Y-90585771D02*
X261761904Y-90633390D01*
X261761904Y-90633390D02*
X261809523Y-90681009D01*
X261809523Y-90681009D02*
X261857142Y-90776247D01*
X261857142Y-90776247D02*
X261857142Y-91014342D01*
X261857142Y-91014342D02*
X261809523Y-91109580D01*
X261809523Y-91109580D02*
X261761904Y-91157200D01*
X261761904Y-91157200D02*
X261666666Y-91204819D01*
X261666666Y-91204819D02*
X261428571Y-91204819D01*
X261428571Y-91204819D02*
X261333333Y-91157200D01*
X261333333Y-91157200D02*
X261285714Y-91109580D01*
X262190476Y-90204819D02*
X262809523Y-90204819D01*
X262809523Y-90204819D02*
X262476190Y-90585771D01*
X262476190Y-90585771D02*
X262619047Y-90585771D01*
X262619047Y-90585771D02*
X262714285Y-90633390D01*
X262714285Y-90633390D02*
X262761904Y-90681009D01*
X262761904Y-90681009D02*
X262809523Y-90776247D01*
X262809523Y-90776247D02*
X262809523Y-91014342D01*
X262809523Y-91014342D02*
X262761904Y-91109580D01*
X262761904Y-91109580D02*
X262714285Y-91157200D01*
X262714285Y-91157200D02*
X262619047Y-91204819D01*
X262619047Y-91204819D02*
X262333333Y-91204819D01*
X262333333Y-91204819D02*
X262238095Y-91157200D01*
X262238095Y-91157200D02*
X262190476Y-91109580D01*
X160190476Y-91157200D02*
X160333333Y-91204819D01*
X160333333Y-91204819D02*
X160571428Y-91204819D01*
X160571428Y-91204819D02*
X160666666Y-91157200D01*
X160666666Y-91157200D02*
X160714285Y-91109580D01*
X160714285Y-91109580D02*
X160761904Y-91014342D01*
X160761904Y-91014342D02*
X160761904Y-90919104D01*
X160761904Y-90919104D02*
X160714285Y-90823866D01*
X160714285Y-90823866D02*
X160666666Y-90776247D01*
X160666666Y-90776247D02*
X160571428Y-90728628D01*
X160571428Y-90728628D02*
X160380952Y-90681009D01*
X160380952Y-90681009D02*
X160285714Y-90633390D01*
X160285714Y-90633390D02*
X160238095Y-90585771D01*
X160238095Y-90585771D02*
X160190476Y-90490533D01*
X160190476Y-90490533D02*
X160190476Y-90395295D01*
X160190476Y-90395295D02*
X160238095Y-90300057D01*
X160238095Y-90300057D02*
X160285714Y-90252438D01*
X160285714Y-90252438D02*
X160380952Y-90204819D01*
X160380952Y-90204819D02*
X160619047Y-90204819D01*
X160619047Y-90204819D02*
X160761904Y-90252438D01*
X161095238Y-90204819D02*
X161333333Y-91204819D01*
X161333333Y-91204819D02*
X161523809Y-90490533D01*
X161523809Y-90490533D02*
X161714285Y-91204819D01*
X161714285Y-91204819D02*
X161952381Y-90204819D01*
X162761904Y-90538152D02*
X162761904Y-91204819D01*
X162523809Y-90157200D02*
X162285714Y-90871485D01*
X162285714Y-90871485D02*
X162904761Y-90871485D01*
X163428571Y-90633390D02*
X163333333Y-90585771D01*
X163333333Y-90585771D02*
X163285714Y-90538152D01*
X163285714Y-90538152D02*
X163238095Y-90442914D01*
X163238095Y-90442914D02*
X163238095Y-90395295D01*
X163238095Y-90395295D02*
X163285714Y-90300057D01*
X163285714Y-90300057D02*
X163333333Y-90252438D01*
X163333333Y-90252438D02*
X163428571Y-90204819D01*
X163428571Y-90204819D02*
X163619047Y-90204819D01*
X163619047Y-90204819D02*
X163714285Y-90252438D01*
X163714285Y-90252438D02*
X163761904Y-90300057D01*
X163761904Y-90300057D02*
X163809523Y-90395295D01*
X163809523Y-90395295D02*
X163809523Y-90442914D01*
X163809523Y-90442914D02*
X163761904Y-90538152D01*
X163761904Y-90538152D02*
X163714285Y-90585771D01*
X163714285Y-90585771D02*
X163619047Y-90633390D01*
X163619047Y-90633390D02*
X163428571Y-90633390D01*
X163428571Y-90633390D02*
X163333333Y-90681009D01*
X163333333Y-90681009D02*
X163285714Y-90728628D01*
X163285714Y-90728628D02*
X163238095Y-90823866D01*
X163238095Y-90823866D02*
X163238095Y-91014342D01*
X163238095Y-91014342D02*
X163285714Y-91109580D01*
X163285714Y-91109580D02*
X163333333Y-91157200D01*
X163333333Y-91157200D02*
X163428571Y-91204819D01*
X163428571Y-91204819D02*
X163619047Y-91204819D01*
X163619047Y-91204819D02*
X163714285Y-91157200D01*
X163714285Y-91157200D02*
X163761904Y-91109580D01*
X163761904Y-91109580D02*
X163809523Y-91014342D01*
X163809523Y-91014342D02*
X163809523Y-90823866D01*
X163809523Y-90823866D02*
X163761904Y-90728628D01*
X163761904Y-90728628D02*
X163714285Y-90681009D01*
X163714285Y-90681009D02*
X163619047Y-90633390D01*
X131390476Y-72107200D02*
X131533333Y-72154819D01*
X131533333Y-72154819D02*
X131771428Y-72154819D01*
X131771428Y-72154819D02*
X131866666Y-72107200D01*
X131866666Y-72107200D02*
X131914285Y-72059580D01*
X131914285Y-72059580D02*
X131961904Y-71964342D01*
X131961904Y-71964342D02*
X131961904Y-71869104D01*
X131961904Y-71869104D02*
X131914285Y-71773866D01*
X131914285Y-71773866D02*
X131866666Y-71726247D01*
X131866666Y-71726247D02*
X131771428Y-71678628D01*
X131771428Y-71678628D02*
X131580952Y-71631009D01*
X131580952Y-71631009D02*
X131485714Y-71583390D01*
X131485714Y-71583390D02*
X131438095Y-71535771D01*
X131438095Y-71535771D02*
X131390476Y-71440533D01*
X131390476Y-71440533D02*
X131390476Y-71345295D01*
X131390476Y-71345295D02*
X131438095Y-71250057D01*
X131438095Y-71250057D02*
X131485714Y-71202438D01*
X131485714Y-71202438D02*
X131580952Y-71154819D01*
X131580952Y-71154819D02*
X131819047Y-71154819D01*
X131819047Y-71154819D02*
X131961904Y-71202438D01*
X132295238Y-71154819D02*
X132533333Y-72154819D01*
X132533333Y-72154819D02*
X132723809Y-71440533D01*
X132723809Y-71440533D02*
X132914285Y-72154819D01*
X132914285Y-72154819D02*
X133152381Y-71154819D01*
X133438095Y-71154819D02*
X134057142Y-71154819D01*
X134057142Y-71154819D02*
X133723809Y-71535771D01*
X133723809Y-71535771D02*
X133866666Y-71535771D01*
X133866666Y-71535771D02*
X133961904Y-71583390D01*
X133961904Y-71583390D02*
X134009523Y-71631009D01*
X134009523Y-71631009D02*
X134057142Y-71726247D01*
X134057142Y-71726247D02*
X134057142Y-71964342D01*
X134057142Y-71964342D02*
X134009523Y-72059580D01*
X134009523Y-72059580D02*
X133961904Y-72107200D01*
X133961904Y-72107200D02*
X133866666Y-72154819D01*
X133866666Y-72154819D02*
X133580952Y-72154819D01*
X133580952Y-72154819D02*
X133485714Y-72107200D01*
X133485714Y-72107200D02*
X133438095Y-72059580D01*
X134914285Y-71488152D02*
X134914285Y-72154819D01*
X134676190Y-71107200D02*
X134438095Y-71821485D01*
X134438095Y-71821485D02*
X135057142Y-71821485D01*
X35990476Y-53057200D02*
X36133333Y-53104819D01*
X36133333Y-53104819D02*
X36371428Y-53104819D01*
X36371428Y-53104819D02*
X36466666Y-53057200D01*
X36466666Y-53057200D02*
X36514285Y-53009580D01*
X36514285Y-53009580D02*
X36561904Y-52914342D01*
X36561904Y-52914342D02*
X36561904Y-52819104D01*
X36561904Y-52819104D02*
X36514285Y-52723866D01*
X36514285Y-52723866D02*
X36466666Y-52676247D01*
X36466666Y-52676247D02*
X36371428Y-52628628D01*
X36371428Y-52628628D02*
X36180952Y-52581009D01*
X36180952Y-52581009D02*
X36085714Y-52533390D01*
X36085714Y-52533390D02*
X36038095Y-52485771D01*
X36038095Y-52485771D02*
X35990476Y-52390533D01*
X35990476Y-52390533D02*
X35990476Y-52295295D01*
X35990476Y-52295295D02*
X36038095Y-52200057D01*
X36038095Y-52200057D02*
X36085714Y-52152438D01*
X36085714Y-52152438D02*
X36180952Y-52104819D01*
X36180952Y-52104819D02*
X36419047Y-52104819D01*
X36419047Y-52104819D02*
X36561904Y-52152438D01*
X36895238Y-52104819D02*
X37133333Y-53104819D01*
X37133333Y-53104819D02*
X37323809Y-52390533D01*
X37323809Y-52390533D02*
X37514285Y-53104819D01*
X37514285Y-53104819D02*
X37752381Y-52104819D01*
X38657142Y-53104819D02*
X38085714Y-53104819D01*
X38371428Y-53104819D02*
X38371428Y-52104819D01*
X38371428Y-52104819D02*
X38276190Y-52247676D01*
X38276190Y-52247676D02*
X38180952Y-52342914D01*
X38180952Y-52342914D02*
X38085714Y-52390533D01*
X39561904Y-52104819D02*
X39085714Y-52104819D01*
X39085714Y-52104819D02*
X39038095Y-52581009D01*
X39038095Y-52581009D02*
X39085714Y-52533390D01*
X39085714Y-52533390D02*
X39180952Y-52485771D01*
X39180952Y-52485771D02*
X39419047Y-52485771D01*
X39419047Y-52485771D02*
X39514285Y-52533390D01*
X39514285Y-52533390D02*
X39561904Y-52581009D01*
X39561904Y-52581009D02*
X39609523Y-52676247D01*
X39609523Y-52676247D02*
X39609523Y-52914342D01*
X39609523Y-52914342D02*
X39561904Y-53009580D01*
X39561904Y-53009580D02*
X39514285Y-53057200D01*
X39514285Y-53057200D02*
X39419047Y-53104819D01*
X39419047Y-53104819D02*
X39180952Y-53104819D01*
X39180952Y-53104819D02*
X39085714Y-53057200D01*
X39085714Y-53057200D02*
X39038095Y-53009580D01*
X220490476Y-72107200D02*
X220633333Y-72154819D01*
X220633333Y-72154819D02*
X220871428Y-72154819D01*
X220871428Y-72154819D02*
X220966666Y-72107200D01*
X220966666Y-72107200D02*
X221014285Y-72059580D01*
X221014285Y-72059580D02*
X221061904Y-71964342D01*
X221061904Y-71964342D02*
X221061904Y-71869104D01*
X221061904Y-71869104D02*
X221014285Y-71773866D01*
X221014285Y-71773866D02*
X220966666Y-71726247D01*
X220966666Y-71726247D02*
X220871428Y-71678628D01*
X220871428Y-71678628D02*
X220680952Y-71631009D01*
X220680952Y-71631009D02*
X220585714Y-71583390D01*
X220585714Y-71583390D02*
X220538095Y-71535771D01*
X220538095Y-71535771D02*
X220490476Y-71440533D01*
X220490476Y-71440533D02*
X220490476Y-71345295D01*
X220490476Y-71345295D02*
X220538095Y-71250057D01*
X220538095Y-71250057D02*
X220585714Y-71202438D01*
X220585714Y-71202438D02*
X220680952Y-71154819D01*
X220680952Y-71154819D02*
X220919047Y-71154819D01*
X220919047Y-71154819D02*
X221061904Y-71202438D01*
X221395238Y-71154819D02*
X221633333Y-72154819D01*
X221633333Y-72154819D02*
X221823809Y-71440533D01*
X221823809Y-71440533D02*
X222014285Y-72154819D01*
X222014285Y-72154819D02*
X222252381Y-71154819D01*
X222538095Y-71154819D02*
X223157142Y-71154819D01*
X223157142Y-71154819D02*
X222823809Y-71535771D01*
X222823809Y-71535771D02*
X222966666Y-71535771D01*
X222966666Y-71535771D02*
X223061904Y-71583390D01*
X223061904Y-71583390D02*
X223109523Y-71631009D01*
X223109523Y-71631009D02*
X223157142Y-71726247D01*
X223157142Y-71726247D02*
X223157142Y-71964342D01*
X223157142Y-71964342D02*
X223109523Y-72059580D01*
X223109523Y-72059580D02*
X223061904Y-72107200D01*
X223061904Y-72107200D02*
X222966666Y-72154819D01*
X222966666Y-72154819D02*
X222680952Y-72154819D01*
X222680952Y-72154819D02*
X222585714Y-72107200D01*
X222585714Y-72107200D02*
X222538095Y-72059580D01*
X223633333Y-72154819D02*
X223823809Y-72154819D01*
X223823809Y-72154819D02*
X223919047Y-72107200D01*
X223919047Y-72107200D02*
X223966666Y-72059580D01*
X223966666Y-72059580D02*
X224061904Y-71916723D01*
X224061904Y-71916723D02*
X224109523Y-71726247D01*
X224109523Y-71726247D02*
X224109523Y-71345295D01*
X224109523Y-71345295D02*
X224061904Y-71250057D01*
X224061904Y-71250057D02*
X224014285Y-71202438D01*
X224014285Y-71202438D02*
X223919047Y-71154819D01*
X223919047Y-71154819D02*
X223728571Y-71154819D01*
X223728571Y-71154819D02*
X223633333Y-71202438D01*
X223633333Y-71202438D02*
X223585714Y-71250057D01*
X223585714Y-71250057D02*
X223538095Y-71345295D01*
X223538095Y-71345295D02*
X223538095Y-71583390D01*
X223538095Y-71583390D02*
X223585714Y-71678628D01*
X223585714Y-71678628D02*
X223633333Y-71726247D01*
X223633333Y-71726247D02*
X223728571Y-71773866D01*
X223728571Y-71773866D02*
X223919047Y-71773866D01*
X223919047Y-71773866D02*
X224014285Y-71726247D01*
X224014285Y-71726247D02*
X224061904Y-71678628D01*
X224061904Y-71678628D02*
X224109523Y-71583390D01*
X62990476Y-110207200D02*
X63133333Y-110254819D01*
X63133333Y-110254819D02*
X63371428Y-110254819D01*
X63371428Y-110254819D02*
X63466666Y-110207200D01*
X63466666Y-110207200D02*
X63514285Y-110159580D01*
X63514285Y-110159580D02*
X63561904Y-110064342D01*
X63561904Y-110064342D02*
X63561904Y-109969104D01*
X63561904Y-109969104D02*
X63514285Y-109873866D01*
X63514285Y-109873866D02*
X63466666Y-109826247D01*
X63466666Y-109826247D02*
X63371428Y-109778628D01*
X63371428Y-109778628D02*
X63180952Y-109731009D01*
X63180952Y-109731009D02*
X63085714Y-109683390D01*
X63085714Y-109683390D02*
X63038095Y-109635771D01*
X63038095Y-109635771D02*
X62990476Y-109540533D01*
X62990476Y-109540533D02*
X62990476Y-109445295D01*
X62990476Y-109445295D02*
X63038095Y-109350057D01*
X63038095Y-109350057D02*
X63085714Y-109302438D01*
X63085714Y-109302438D02*
X63180952Y-109254819D01*
X63180952Y-109254819D02*
X63419047Y-109254819D01*
X63419047Y-109254819D02*
X63561904Y-109302438D01*
X63895238Y-109254819D02*
X64133333Y-110254819D01*
X64133333Y-110254819D02*
X64323809Y-109540533D01*
X64323809Y-109540533D02*
X64514285Y-110254819D01*
X64514285Y-110254819D02*
X64752381Y-109254819D01*
X65609523Y-109254819D02*
X65133333Y-109254819D01*
X65133333Y-109254819D02*
X65085714Y-109731009D01*
X65085714Y-109731009D02*
X65133333Y-109683390D01*
X65133333Y-109683390D02*
X65228571Y-109635771D01*
X65228571Y-109635771D02*
X65466666Y-109635771D01*
X65466666Y-109635771D02*
X65561904Y-109683390D01*
X65561904Y-109683390D02*
X65609523Y-109731009D01*
X65609523Y-109731009D02*
X65657142Y-109826247D01*
X65657142Y-109826247D02*
X65657142Y-110064342D01*
X65657142Y-110064342D02*
X65609523Y-110159580D01*
X65609523Y-110159580D02*
X65561904Y-110207200D01*
X65561904Y-110207200D02*
X65466666Y-110254819D01*
X65466666Y-110254819D02*
X65228571Y-110254819D01*
X65228571Y-110254819D02*
X65133333Y-110207200D01*
X65133333Y-110207200D02*
X65085714Y-110159580D01*
X66561904Y-109254819D02*
X66085714Y-109254819D01*
X66085714Y-109254819D02*
X66038095Y-109731009D01*
X66038095Y-109731009D02*
X66085714Y-109683390D01*
X66085714Y-109683390D02*
X66180952Y-109635771D01*
X66180952Y-109635771D02*
X66419047Y-109635771D01*
X66419047Y-109635771D02*
X66514285Y-109683390D01*
X66514285Y-109683390D02*
X66561904Y-109731009D01*
X66561904Y-109731009D02*
X66609523Y-109826247D01*
X66609523Y-109826247D02*
X66609523Y-110064342D01*
X66609523Y-110064342D02*
X66561904Y-110159580D01*
X66561904Y-110159580D02*
X66514285Y-110207200D01*
X66514285Y-110207200D02*
X66419047Y-110254819D01*
X66419047Y-110254819D02*
X66180952Y-110254819D01*
X66180952Y-110254819D02*
X66085714Y-110207200D01*
X66085714Y-110207200D02*
X66038095Y-110159580D01*
X251090475Y-53057200D02*
X251233332Y-53104819D01*
X251233332Y-53104819D02*
X251471427Y-53104819D01*
X251471427Y-53104819D02*
X251566665Y-53057200D01*
X251566665Y-53057200D02*
X251614284Y-53009580D01*
X251614284Y-53009580D02*
X251661903Y-52914342D01*
X251661903Y-52914342D02*
X251661903Y-52819104D01*
X251661903Y-52819104D02*
X251614284Y-52723866D01*
X251614284Y-52723866D02*
X251566665Y-52676247D01*
X251566665Y-52676247D02*
X251471427Y-52628628D01*
X251471427Y-52628628D02*
X251280951Y-52581009D01*
X251280951Y-52581009D02*
X251185713Y-52533390D01*
X251185713Y-52533390D02*
X251138094Y-52485771D01*
X251138094Y-52485771D02*
X251090475Y-52390533D01*
X251090475Y-52390533D02*
X251090475Y-52295295D01*
X251090475Y-52295295D02*
X251138094Y-52200057D01*
X251138094Y-52200057D02*
X251185713Y-52152438D01*
X251185713Y-52152438D02*
X251280951Y-52104819D01*
X251280951Y-52104819D02*
X251519046Y-52104819D01*
X251519046Y-52104819D02*
X251661903Y-52152438D01*
X251995237Y-52104819D02*
X252233332Y-53104819D01*
X252233332Y-53104819D02*
X252423808Y-52390533D01*
X252423808Y-52390533D02*
X252614284Y-53104819D01*
X252614284Y-53104819D02*
X252852380Y-52104819D01*
X253185713Y-52200057D02*
X253233332Y-52152438D01*
X253233332Y-52152438D02*
X253328570Y-52104819D01*
X253328570Y-52104819D02*
X253566665Y-52104819D01*
X253566665Y-52104819D02*
X253661903Y-52152438D01*
X253661903Y-52152438D02*
X253709522Y-52200057D01*
X253709522Y-52200057D02*
X253757141Y-52295295D01*
X253757141Y-52295295D02*
X253757141Y-52390533D01*
X253757141Y-52390533D02*
X253709522Y-52533390D01*
X253709522Y-52533390D02*
X253138094Y-53104819D01*
X253138094Y-53104819D02*
X253757141Y-53104819D01*
X254090475Y-52104819D02*
X254757141Y-52104819D01*
X254757141Y-52104819D02*
X254328570Y-53104819D01*
X178666667Y-34007200D02*
X178809524Y-34054819D01*
X178809524Y-34054819D02*
X179047619Y-34054819D01*
X179047619Y-34054819D02*
X179142857Y-34007200D01*
X179142857Y-34007200D02*
X179190476Y-33959580D01*
X179190476Y-33959580D02*
X179238095Y-33864342D01*
X179238095Y-33864342D02*
X179238095Y-33769104D01*
X179238095Y-33769104D02*
X179190476Y-33673866D01*
X179190476Y-33673866D02*
X179142857Y-33626247D01*
X179142857Y-33626247D02*
X179047619Y-33578628D01*
X179047619Y-33578628D02*
X178857143Y-33531009D01*
X178857143Y-33531009D02*
X178761905Y-33483390D01*
X178761905Y-33483390D02*
X178714286Y-33435771D01*
X178714286Y-33435771D02*
X178666667Y-33340533D01*
X178666667Y-33340533D02*
X178666667Y-33245295D01*
X178666667Y-33245295D02*
X178714286Y-33150057D01*
X178714286Y-33150057D02*
X178761905Y-33102438D01*
X178761905Y-33102438D02*
X178857143Y-33054819D01*
X178857143Y-33054819D02*
X179095238Y-33054819D01*
X179095238Y-33054819D02*
X179238095Y-33102438D01*
X179571429Y-33054819D02*
X179809524Y-34054819D01*
X179809524Y-34054819D02*
X180000000Y-33340533D01*
X180000000Y-33340533D02*
X180190476Y-34054819D01*
X180190476Y-34054819D02*
X180428572Y-33054819D01*
X180857143Y-34054819D02*
X181047619Y-34054819D01*
X181047619Y-34054819D02*
X181142857Y-34007200D01*
X181142857Y-34007200D02*
X181190476Y-33959580D01*
X181190476Y-33959580D02*
X181285714Y-33816723D01*
X181285714Y-33816723D02*
X181333333Y-33626247D01*
X181333333Y-33626247D02*
X181333333Y-33245295D01*
X181333333Y-33245295D02*
X181285714Y-33150057D01*
X181285714Y-33150057D02*
X181238095Y-33102438D01*
X181238095Y-33102438D02*
X181142857Y-33054819D01*
X181142857Y-33054819D02*
X180952381Y-33054819D01*
X180952381Y-33054819D02*
X180857143Y-33102438D01*
X180857143Y-33102438D02*
X180809524Y-33150057D01*
X180809524Y-33150057D02*
X180761905Y-33245295D01*
X180761905Y-33245295D02*
X180761905Y-33483390D01*
X180761905Y-33483390D02*
X180809524Y-33578628D01*
X180809524Y-33578628D02*
X180857143Y-33626247D01*
X180857143Y-33626247D02*
X180952381Y-33673866D01*
X180952381Y-33673866D02*
X181142857Y-33673866D01*
X181142857Y-33673866D02*
X181238095Y-33626247D01*
X181238095Y-33626247D02*
X181285714Y-33578628D01*
X181285714Y-33578628D02*
X181333333Y-33483390D01*
X217790476Y-53057200D02*
X217933333Y-53104819D01*
X217933333Y-53104819D02*
X218171428Y-53104819D01*
X218171428Y-53104819D02*
X218266666Y-53057200D01*
X218266666Y-53057200D02*
X218314285Y-53009580D01*
X218314285Y-53009580D02*
X218361904Y-52914342D01*
X218361904Y-52914342D02*
X218361904Y-52819104D01*
X218361904Y-52819104D02*
X218314285Y-52723866D01*
X218314285Y-52723866D02*
X218266666Y-52676247D01*
X218266666Y-52676247D02*
X218171428Y-52628628D01*
X218171428Y-52628628D02*
X217980952Y-52581009D01*
X217980952Y-52581009D02*
X217885714Y-52533390D01*
X217885714Y-52533390D02*
X217838095Y-52485771D01*
X217838095Y-52485771D02*
X217790476Y-52390533D01*
X217790476Y-52390533D02*
X217790476Y-52295295D01*
X217790476Y-52295295D02*
X217838095Y-52200057D01*
X217838095Y-52200057D02*
X217885714Y-52152438D01*
X217885714Y-52152438D02*
X217980952Y-52104819D01*
X217980952Y-52104819D02*
X218219047Y-52104819D01*
X218219047Y-52104819D02*
X218361904Y-52152438D01*
X218695238Y-52104819D02*
X218933333Y-53104819D01*
X218933333Y-53104819D02*
X219123809Y-52390533D01*
X219123809Y-52390533D02*
X219314285Y-53104819D01*
X219314285Y-53104819D02*
X219552381Y-52104819D01*
X219885714Y-52200057D02*
X219933333Y-52152438D01*
X219933333Y-52152438D02*
X220028571Y-52104819D01*
X220028571Y-52104819D02*
X220266666Y-52104819D01*
X220266666Y-52104819D02*
X220361904Y-52152438D01*
X220361904Y-52152438D02*
X220409523Y-52200057D01*
X220409523Y-52200057D02*
X220457142Y-52295295D01*
X220457142Y-52295295D02*
X220457142Y-52390533D01*
X220457142Y-52390533D02*
X220409523Y-52533390D01*
X220409523Y-52533390D02*
X219838095Y-53104819D01*
X219838095Y-53104819D02*
X220457142Y-53104819D01*
X221361904Y-52104819D02*
X220885714Y-52104819D01*
X220885714Y-52104819D02*
X220838095Y-52581009D01*
X220838095Y-52581009D02*
X220885714Y-52533390D01*
X220885714Y-52533390D02*
X220980952Y-52485771D01*
X220980952Y-52485771D02*
X221219047Y-52485771D01*
X221219047Y-52485771D02*
X221314285Y-52533390D01*
X221314285Y-52533390D02*
X221361904Y-52581009D01*
X221361904Y-52581009D02*
X221409523Y-52676247D01*
X221409523Y-52676247D02*
X221409523Y-52914342D01*
X221409523Y-52914342D02*
X221361904Y-53009580D01*
X221361904Y-53009580D02*
X221314285Y-53057200D01*
X221314285Y-53057200D02*
X221219047Y-53104819D01*
X221219047Y-53104819D02*
X220980952Y-53104819D01*
X220980952Y-53104819D02*
X220885714Y-53057200D01*
X220885714Y-53057200D02*
X220838095Y-53009580D01*
X234890475Y-53057200D02*
X235033332Y-53104819D01*
X235033332Y-53104819D02*
X235271427Y-53104819D01*
X235271427Y-53104819D02*
X235366665Y-53057200D01*
X235366665Y-53057200D02*
X235414284Y-53009580D01*
X235414284Y-53009580D02*
X235461903Y-52914342D01*
X235461903Y-52914342D02*
X235461903Y-52819104D01*
X235461903Y-52819104D02*
X235414284Y-52723866D01*
X235414284Y-52723866D02*
X235366665Y-52676247D01*
X235366665Y-52676247D02*
X235271427Y-52628628D01*
X235271427Y-52628628D02*
X235080951Y-52581009D01*
X235080951Y-52581009D02*
X234985713Y-52533390D01*
X234985713Y-52533390D02*
X234938094Y-52485771D01*
X234938094Y-52485771D02*
X234890475Y-52390533D01*
X234890475Y-52390533D02*
X234890475Y-52295295D01*
X234890475Y-52295295D02*
X234938094Y-52200057D01*
X234938094Y-52200057D02*
X234985713Y-52152438D01*
X234985713Y-52152438D02*
X235080951Y-52104819D01*
X235080951Y-52104819D02*
X235319046Y-52104819D01*
X235319046Y-52104819D02*
X235461903Y-52152438D01*
X235795237Y-52104819D02*
X236033332Y-53104819D01*
X236033332Y-53104819D02*
X236223808Y-52390533D01*
X236223808Y-52390533D02*
X236414284Y-53104819D01*
X236414284Y-53104819D02*
X236652380Y-52104819D01*
X236985713Y-52200057D02*
X237033332Y-52152438D01*
X237033332Y-52152438D02*
X237128570Y-52104819D01*
X237128570Y-52104819D02*
X237366665Y-52104819D01*
X237366665Y-52104819D02*
X237461903Y-52152438D01*
X237461903Y-52152438D02*
X237509522Y-52200057D01*
X237509522Y-52200057D02*
X237557141Y-52295295D01*
X237557141Y-52295295D02*
X237557141Y-52390533D01*
X237557141Y-52390533D02*
X237509522Y-52533390D01*
X237509522Y-52533390D02*
X236938094Y-53104819D01*
X236938094Y-53104819D02*
X237557141Y-53104819D01*
X238414284Y-52104819D02*
X238223808Y-52104819D01*
X238223808Y-52104819D02*
X238128570Y-52152438D01*
X238128570Y-52152438D02*
X238080951Y-52200057D01*
X238080951Y-52200057D02*
X237985713Y-52342914D01*
X237985713Y-52342914D02*
X237938094Y-52533390D01*
X237938094Y-52533390D02*
X237938094Y-52914342D01*
X237938094Y-52914342D02*
X237985713Y-53009580D01*
X237985713Y-53009580D02*
X238033332Y-53057200D01*
X238033332Y-53057200D02*
X238128570Y-53104819D01*
X238128570Y-53104819D02*
X238319046Y-53104819D01*
X238319046Y-53104819D02*
X238414284Y-53057200D01*
X238414284Y-53057200D02*
X238461903Y-53009580D01*
X238461903Y-53009580D02*
X238509522Y-52914342D01*
X238509522Y-52914342D02*
X238509522Y-52676247D01*
X238509522Y-52676247D02*
X238461903Y-52581009D01*
X238461903Y-52581009D02*
X238414284Y-52533390D01*
X238414284Y-52533390D02*
X238319046Y-52485771D01*
X238319046Y-52485771D02*
X238128570Y-52485771D01*
X238128570Y-52485771D02*
X238033332Y-52533390D01*
X238033332Y-52533390D02*
X237985713Y-52581009D01*
X237985713Y-52581009D02*
X237938094Y-52676247D01*
X43190476Y-91157200D02*
X43333333Y-91204819D01*
X43333333Y-91204819D02*
X43571428Y-91204819D01*
X43571428Y-91204819D02*
X43666666Y-91157200D01*
X43666666Y-91157200D02*
X43714285Y-91109580D01*
X43714285Y-91109580D02*
X43761904Y-91014342D01*
X43761904Y-91014342D02*
X43761904Y-90919104D01*
X43761904Y-90919104D02*
X43714285Y-90823866D01*
X43714285Y-90823866D02*
X43666666Y-90776247D01*
X43666666Y-90776247D02*
X43571428Y-90728628D01*
X43571428Y-90728628D02*
X43380952Y-90681009D01*
X43380952Y-90681009D02*
X43285714Y-90633390D01*
X43285714Y-90633390D02*
X43238095Y-90585771D01*
X43238095Y-90585771D02*
X43190476Y-90490533D01*
X43190476Y-90490533D02*
X43190476Y-90395295D01*
X43190476Y-90395295D02*
X43238095Y-90300057D01*
X43238095Y-90300057D02*
X43285714Y-90252438D01*
X43285714Y-90252438D02*
X43380952Y-90204819D01*
X43380952Y-90204819D02*
X43619047Y-90204819D01*
X43619047Y-90204819D02*
X43761904Y-90252438D01*
X44095238Y-90204819D02*
X44333333Y-91204819D01*
X44333333Y-91204819D02*
X44523809Y-90490533D01*
X44523809Y-90490533D02*
X44714285Y-91204819D01*
X44714285Y-91204819D02*
X44952381Y-90204819D01*
X45761904Y-90538152D02*
X45761904Y-91204819D01*
X45523809Y-90157200D02*
X45285714Y-90871485D01*
X45285714Y-90871485D02*
X45904761Y-90871485D01*
X46238095Y-90300057D02*
X46285714Y-90252438D01*
X46285714Y-90252438D02*
X46380952Y-90204819D01*
X46380952Y-90204819D02*
X46619047Y-90204819D01*
X46619047Y-90204819D02*
X46714285Y-90252438D01*
X46714285Y-90252438D02*
X46761904Y-90300057D01*
X46761904Y-90300057D02*
X46809523Y-90395295D01*
X46809523Y-90395295D02*
X46809523Y-90490533D01*
X46809523Y-90490533D02*
X46761904Y-90633390D01*
X46761904Y-90633390D02*
X46190476Y-91204819D01*
X46190476Y-91204819D02*
X46809523Y-91204819D01*
X145790476Y-53057200D02*
X145933333Y-53104819D01*
X145933333Y-53104819D02*
X146171428Y-53104819D01*
X146171428Y-53104819D02*
X146266666Y-53057200D01*
X146266666Y-53057200D02*
X146314285Y-53009580D01*
X146314285Y-53009580D02*
X146361904Y-52914342D01*
X146361904Y-52914342D02*
X146361904Y-52819104D01*
X146361904Y-52819104D02*
X146314285Y-52723866D01*
X146314285Y-52723866D02*
X146266666Y-52676247D01*
X146266666Y-52676247D02*
X146171428Y-52628628D01*
X146171428Y-52628628D02*
X145980952Y-52581009D01*
X145980952Y-52581009D02*
X145885714Y-52533390D01*
X145885714Y-52533390D02*
X145838095Y-52485771D01*
X145838095Y-52485771D02*
X145790476Y-52390533D01*
X145790476Y-52390533D02*
X145790476Y-52295295D01*
X145790476Y-52295295D02*
X145838095Y-52200057D01*
X145838095Y-52200057D02*
X145885714Y-52152438D01*
X145885714Y-52152438D02*
X145980952Y-52104819D01*
X145980952Y-52104819D02*
X146219047Y-52104819D01*
X146219047Y-52104819D02*
X146361904Y-52152438D01*
X146695238Y-52104819D02*
X146933333Y-53104819D01*
X146933333Y-53104819D02*
X147123809Y-52390533D01*
X147123809Y-52390533D02*
X147314285Y-53104819D01*
X147314285Y-53104819D02*
X147552381Y-52104819D01*
X147885714Y-52200057D02*
X147933333Y-52152438D01*
X147933333Y-52152438D02*
X148028571Y-52104819D01*
X148028571Y-52104819D02*
X148266666Y-52104819D01*
X148266666Y-52104819D02*
X148361904Y-52152438D01*
X148361904Y-52152438D02*
X148409523Y-52200057D01*
X148409523Y-52200057D02*
X148457142Y-52295295D01*
X148457142Y-52295295D02*
X148457142Y-52390533D01*
X148457142Y-52390533D02*
X148409523Y-52533390D01*
X148409523Y-52533390D02*
X147838095Y-53104819D01*
X147838095Y-53104819D02*
X148457142Y-53104819D01*
X149409523Y-53104819D02*
X148838095Y-53104819D01*
X149123809Y-53104819D02*
X149123809Y-52104819D01*
X149123809Y-52104819D02*
X149028571Y-52247676D01*
X149028571Y-52247676D02*
X148933333Y-52342914D01*
X148933333Y-52342914D02*
X148838095Y-52390533D01*
X181790476Y-53057200D02*
X181933333Y-53104819D01*
X181933333Y-53104819D02*
X182171428Y-53104819D01*
X182171428Y-53104819D02*
X182266666Y-53057200D01*
X182266666Y-53057200D02*
X182314285Y-53009580D01*
X182314285Y-53009580D02*
X182361904Y-52914342D01*
X182361904Y-52914342D02*
X182361904Y-52819104D01*
X182361904Y-52819104D02*
X182314285Y-52723866D01*
X182314285Y-52723866D02*
X182266666Y-52676247D01*
X182266666Y-52676247D02*
X182171428Y-52628628D01*
X182171428Y-52628628D02*
X181980952Y-52581009D01*
X181980952Y-52581009D02*
X181885714Y-52533390D01*
X181885714Y-52533390D02*
X181838095Y-52485771D01*
X181838095Y-52485771D02*
X181790476Y-52390533D01*
X181790476Y-52390533D02*
X181790476Y-52295295D01*
X181790476Y-52295295D02*
X181838095Y-52200057D01*
X181838095Y-52200057D02*
X181885714Y-52152438D01*
X181885714Y-52152438D02*
X181980952Y-52104819D01*
X181980952Y-52104819D02*
X182219047Y-52104819D01*
X182219047Y-52104819D02*
X182361904Y-52152438D01*
X182695238Y-52104819D02*
X182933333Y-53104819D01*
X182933333Y-53104819D02*
X183123809Y-52390533D01*
X183123809Y-52390533D02*
X183314285Y-53104819D01*
X183314285Y-53104819D02*
X183552381Y-52104819D01*
X183885714Y-52200057D02*
X183933333Y-52152438D01*
X183933333Y-52152438D02*
X184028571Y-52104819D01*
X184028571Y-52104819D02*
X184266666Y-52104819D01*
X184266666Y-52104819D02*
X184361904Y-52152438D01*
X184361904Y-52152438D02*
X184409523Y-52200057D01*
X184409523Y-52200057D02*
X184457142Y-52295295D01*
X184457142Y-52295295D02*
X184457142Y-52390533D01*
X184457142Y-52390533D02*
X184409523Y-52533390D01*
X184409523Y-52533390D02*
X183838095Y-53104819D01*
X183838095Y-53104819D02*
X184457142Y-53104819D01*
X184790476Y-52104819D02*
X185409523Y-52104819D01*
X185409523Y-52104819D02*
X185076190Y-52485771D01*
X185076190Y-52485771D02*
X185219047Y-52485771D01*
X185219047Y-52485771D02*
X185314285Y-52533390D01*
X185314285Y-52533390D02*
X185361904Y-52581009D01*
X185361904Y-52581009D02*
X185409523Y-52676247D01*
X185409523Y-52676247D02*
X185409523Y-52914342D01*
X185409523Y-52914342D02*
X185361904Y-53009580D01*
X185361904Y-53009580D02*
X185314285Y-53057200D01*
X185314285Y-53057200D02*
X185219047Y-53104819D01*
X185219047Y-53104819D02*
X184933333Y-53104819D01*
X184933333Y-53104819D02*
X184838095Y-53057200D01*
X184838095Y-53057200D02*
X184790476Y-53009580D01*
X167390476Y-72107200D02*
X167533333Y-72154819D01*
X167533333Y-72154819D02*
X167771428Y-72154819D01*
X167771428Y-72154819D02*
X167866666Y-72107200D01*
X167866666Y-72107200D02*
X167914285Y-72059580D01*
X167914285Y-72059580D02*
X167961904Y-71964342D01*
X167961904Y-71964342D02*
X167961904Y-71869104D01*
X167961904Y-71869104D02*
X167914285Y-71773866D01*
X167914285Y-71773866D02*
X167866666Y-71726247D01*
X167866666Y-71726247D02*
X167771428Y-71678628D01*
X167771428Y-71678628D02*
X167580952Y-71631009D01*
X167580952Y-71631009D02*
X167485714Y-71583390D01*
X167485714Y-71583390D02*
X167438095Y-71535771D01*
X167438095Y-71535771D02*
X167390476Y-71440533D01*
X167390476Y-71440533D02*
X167390476Y-71345295D01*
X167390476Y-71345295D02*
X167438095Y-71250057D01*
X167438095Y-71250057D02*
X167485714Y-71202438D01*
X167485714Y-71202438D02*
X167580952Y-71154819D01*
X167580952Y-71154819D02*
X167819047Y-71154819D01*
X167819047Y-71154819D02*
X167961904Y-71202438D01*
X168295238Y-71154819D02*
X168533333Y-72154819D01*
X168533333Y-72154819D02*
X168723809Y-71440533D01*
X168723809Y-71440533D02*
X168914285Y-72154819D01*
X168914285Y-72154819D02*
X169152381Y-71154819D01*
X169438095Y-71154819D02*
X170057142Y-71154819D01*
X170057142Y-71154819D02*
X169723809Y-71535771D01*
X169723809Y-71535771D02*
X169866666Y-71535771D01*
X169866666Y-71535771D02*
X169961904Y-71583390D01*
X169961904Y-71583390D02*
X170009523Y-71631009D01*
X170009523Y-71631009D02*
X170057142Y-71726247D01*
X170057142Y-71726247D02*
X170057142Y-71964342D01*
X170057142Y-71964342D02*
X170009523Y-72059580D01*
X170009523Y-72059580D02*
X169961904Y-72107200D01*
X169961904Y-72107200D02*
X169866666Y-72154819D01*
X169866666Y-72154819D02*
X169580952Y-72154819D01*
X169580952Y-72154819D02*
X169485714Y-72107200D01*
X169485714Y-72107200D02*
X169438095Y-72059580D01*
X170914285Y-71154819D02*
X170723809Y-71154819D01*
X170723809Y-71154819D02*
X170628571Y-71202438D01*
X170628571Y-71202438D02*
X170580952Y-71250057D01*
X170580952Y-71250057D02*
X170485714Y-71392914D01*
X170485714Y-71392914D02*
X170438095Y-71583390D01*
X170438095Y-71583390D02*
X170438095Y-71964342D01*
X170438095Y-71964342D02*
X170485714Y-72059580D01*
X170485714Y-72059580D02*
X170533333Y-72107200D01*
X170533333Y-72107200D02*
X170628571Y-72154819D01*
X170628571Y-72154819D02*
X170819047Y-72154819D01*
X170819047Y-72154819D02*
X170914285Y-72107200D01*
X170914285Y-72107200D02*
X170961904Y-72059580D01*
X170961904Y-72059580D02*
X171009523Y-71964342D01*
X171009523Y-71964342D02*
X171009523Y-71726247D01*
X171009523Y-71726247D02*
X170961904Y-71631009D01*
X170961904Y-71631009D02*
X170914285Y-71583390D01*
X170914285Y-71583390D02*
X170819047Y-71535771D01*
X170819047Y-71535771D02*
X170628571Y-71535771D01*
X170628571Y-71535771D02*
X170533333Y-71583390D01*
X170533333Y-71583390D02*
X170485714Y-71631009D01*
X170485714Y-71631009D02*
X170438095Y-71726247D01*
X124666667Y-34007200D02*
X124809524Y-34054819D01*
X124809524Y-34054819D02*
X125047619Y-34054819D01*
X125047619Y-34054819D02*
X125142857Y-34007200D01*
X125142857Y-34007200D02*
X125190476Y-33959580D01*
X125190476Y-33959580D02*
X125238095Y-33864342D01*
X125238095Y-33864342D02*
X125238095Y-33769104D01*
X125238095Y-33769104D02*
X125190476Y-33673866D01*
X125190476Y-33673866D02*
X125142857Y-33626247D01*
X125142857Y-33626247D02*
X125047619Y-33578628D01*
X125047619Y-33578628D02*
X124857143Y-33531009D01*
X124857143Y-33531009D02*
X124761905Y-33483390D01*
X124761905Y-33483390D02*
X124714286Y-33435771D01*
X124714286Y-33435771D02*
X124666667Y-33340533D01*
X124666667Y-33340533D02*
X124666667Y-33245295D01*
X124666667Y-33245295D02*
X124714286Y-33150057D01*
X124714286Y-33150057D02*
X124761905Y-33102438D01*
X124761905Y-33102438D02*
X124857143Y-33054819D01*
X124857143Y-33054819D02*
X125095238Y-33054819D01*
X125095238Y-33054819D02*
X125238095Y-33102438D01*
X125571429Y-33054819D02*
X125809524Y-34054819D01*
X125809524Y-34054819D02*
X126000000Y-33340533D01*
X126000000Y-33340533D02*
X126190476Y-34054819D01*
X126190476Y-34054819D02*
X126428572Y-33054819D01*
X127238095Y-33054819D02*
X127047619Y-33054819D01*
X127047619Y-33054819D02*
X126952381Y-33102438D01*
X126952381Y-33102438D02*
X126904762Y-33150057D01*
X126904762Y-33150057D02*
X126809524Y-33292914D01*
X126809524Y-33292914D02*
X126761905Y-33483390D01*
X126761905Y-33483390D02*
X126761905Y-33864342D01*
X126761905Y-33864342D02*
X126809524Y-33959580D01*
X126809524Y-33959580D02*
X126857143Y-34007200D01*
X126857143Y-34007200D02*
X126952381Y-34054819D01*
X126952381Y-34054819D02*
X127142857Y-34054819D01*
X127142857Y-34054819D02*
X127238095Y-34007200D01*
X127238095Y-34007200D02*
X127285714Y-33959580D01*
X127285714Y-33959580D02*
X127333333Y-33864342D01*
X127333333Y-33864342D02*
X127333333Y-33626247D01*
X127333333Y-33626247D02*
X127285714Y-33531009D01*
X127285714Y-33531009D02*
X127238095Y-33483390D01*
X127238095Y-33483390D02*
X127142857Y-33435771D01*
X127142857Y-33435771D02*
X126952381Y-33435771D01*
X126952381Y-33435771D02*
X126857143Y-33483390D01*
X126857143Y-33483390D02*
X126809524Y-33531009D01*
X126809524Y-33531009D02*
X126761905Y-33626247D01*
X73790476Y-53057200D02*
X73933333Y-53104819D01*
X73933333Y-53104819D02*
X74171428Y-53104819D01*
X74171428Y-53104819D02*
X74266666Y-53057200D01*
X74266666Y-53057200D02*
X74314285Y-53009580D01*
X74314285Y-53009580D02*
X74361904Y-52914342D01*
X74361904Y-52914342D02*
X74361904Y-52819104D01*
X74361904Y-52819104D02*
X74314285Y-52723866D01*
X74314285Y-52723866D02*
X74266666Y-52676247D01*
X74266666Y-52676247D02*
X74171428Y-52628628D01*
X74171428Y-52628628D02*
X73980952Y-52581009D01*
X73980952Y-52581009D02*
X73885714Y-52533390D01*
X73885714Y-52533390D02*
X73838095Y-52485771D01*
X73838095Y-52485771D02*
X73790476Y-52390533D01*
X73790476Y-52390533D02*
X73790476Y-52295295D01*
X73790476Y-52295295D02*
X73838095Y-52200057D01*
X73838095Y-52200057D02*
X73885714Y-52152438D01*
X73885714Y-52152438D02*
X73980952Y-52104819D01*
X73980952Y-52104819D02*
X74219047Y-52104819D01*
X74219047Y-52104819D02*
X74361904Y-52152438D01*
X74695238Y-52104819D02*
X74933333Y-53104819D01*
X74933333Y-53104819D02*
X75123809Y-52390533D01*
X75123809Y-52390533D02*
X75314285Y-53104819D01*
X75314285Y-53104819D02*
X75552381Y-52104819D01*
X76457142Y-53104819D02*
X75885714Y-53104819D01*
X76171428Y-53104819D02*
X76171428Y-52104819D01*
X76171428Y-52104819D02*
X76076190Y-52247676D01*
X76076190Y-52247676D02*
X75980952Y-52342914D01*
X75980952Y-52342914D02*
X75885714Y-52390533D01*
X76790476Y-52104819D02*
X77457142Y-52104819D01*
X77457142Y-52104819D02*
X77028571Y-53104819D01*
X37790476Y-72107200D02*
X37933333Y-72154819D01*
X37933333Y-72154819D02*
X38171428Y-72154819D01*
X38171428Y-72154819D02*
X38266666Y-72107200D01*
X38266666Y-72107200D02*
X38314285Y-72059580D01*
X38314285Y-72059580D02*
X38361904Y-71964342D01*
X38361904Y-71964342D02*
X38361904Y-71869104D01*
X38361904Y-71869104D02*
X38314285Y-71773866D01*
X38314285Y-71773866D02*
X38266666Y-71726247D01*
X38266666Y-71726247D02*
X38171428Y-71678628D01*
X38171428Y-71678628D02*
X37980952Y-71631009D01*
X37980952Y-71631009D02*
X37885714Y-71583390D01*
X37885714Y-71583390D02*
X37838095Y-71535771D01*
X37838095Y-71535771D02*
X37790476Y-71440533D01*
X37790476Y-71440533D02*
X37790476Y-71345295D01*
X37790476Y-71345295D02*
X37838095Y-71250057D01*
X37838095Y-71250057D02*
X37885714Y-71202438D01*
X37885714Y-71202438D02*
X37980952Y-71154819D01*
X37980952Y-71154819D02*
X38219047Y-71154819D01*
X38219047Y-71154819D02*
X38361904Y-71202438D01*
X38695238Y-71154819D02*
X38933333Y-72154819D01*
X38933333Y-72154819D02*
X39123809Y-71440533D01*
X39123809Y-71440533D02*
X39314285Y-72154819D01*
X39314285Y-72154819D02*
X39552381Y-71154819D01*
X39885714Y-71250057D02*
X39933333Y-71202438D01*
X39933333Y-71202438D02*
X40028571Y-71154819D01*
X40028571Y-71154819D02*
X40266666Y-71154819D01*
X40266666Y-71154819D02*
X40361904Y-71202438D01*
X40361904Y-71202438D02*
X40409523Y-71250057D01*
X40409523Y-71250057D02*
X40457142Y-71345295D01*
X40457142Y-71345295D02*
X40457142Y-71440533D01*
X40457142Y-71440533D02*
X40409523Y-71583390D01*
X40409523Y-71583390D02*
X39838095Y-72154819D01*
X39838095Y-72154819D02*
X40457142Y-72154819D01*
X40933333Y-72154819D02*
X41123809Y-72154819D01*
X41123809Y-72154819D02*
X41219047Y-72107200D01*
X41219047Y-72107200D02*
X41266666Y-72059580D01*
X41266666Y-72059580D02*
X41361904Y-71916723D01*
X41361904Y-71916723D02*
X41409523Y-71726247D01*
X41409523Y-71726247D02*
X41409523Y-71345295D01*
X41409523Y-71345295D02*
X41361904Y-71250057D01*
X41361904Y-71250057D02*
X41314285Y-71202438D01*
X41314285Y-71202438D02*
X41219047Y-71154819D01*
X41219047Y-71154819D02*
X41028571Y-71154819D01*
X41028571Y-71154819D02*
X40933333Y-71202438D01*
X40933333Y-71202438D02*
X40885714Y-71250057D01*
X40885714Y-71250057D02*
X40838095Y-71345295D01*
X40838095Y-71345295D02*
X40838095Y-71583390D01*
X40838095Y-71583390D02*
X40885714Y-71678628D01*
X40885714Y-71678628D02*
X40933333Y-71726247D01*
X40933333Y-71726247D02*
X41028571Y-71773866D01*
X41028571Y-71773866D02*
X41219047Y-71773866D01*
X41219047Y-71773866D02*
X41314285Y-71726247D01*
X41314285Y-71726247D02*
X41361904Y-71678628D01*
X41361904Y-71678628D02*
X41409523Y-71583390D01*
X52666667Y-34007200D02*
X52809524Y-34054819D01*
X52809524Y-34054819D02*
X53047619Y-34054819D01*
X53047619Y-34054819D02*
X53142857Y-34007200D01*
X53142857Y-34007200D02*
X53190476Y-33959580D01*
X53190476Y-33959580D02*
X53238095Y-33864342D01*
X53238095Y-33864342D02*
X53238095Y-33769104D01*
X53238095Y-33769104D02*
X53190476Y-33673866D01*
X53190476Y-33673866D02*
X53142857Y-33626247D01*
X53142857Y-33626247D02*
X53047619Y-33578628D01*
X53047619Y-33578628D02*
X52857143Y-33531009D01*
X52857143Y-33531009D02*
X52761905Y-33483390D01*
X52761905Y-33483390D02*
X52714286Y-33435771D01*
X52714286Y-33435771D02*
X52666667Y-33340533D01*
X52666667Y-33340533D02*
X52666667Y-33245295D01*
X52666667Y-33245295D02*
X52714286Y-33150057D01*
X52714286Y-33150057D02*
X52761905Y-33102438D01*
X52761905Y-33102438D02*
X52857143Y-33054819D01*
X52857143Y-33054819D02*
X53095238Y-33054819D01*
X53095238Y-33054819D02*
X53238095Y-33102438D01*
X53571429Y-33054819D02*
X53809524Y-34054819D01*
X53809524Y-34054819D02*
X54000000Y-33340533D01*
X54000000Y-33340533D02*
X54190476Y-34054819D01*
X54190476Y-34054819D02*
X54428572Y-33054819D01*
X54761905Y-33150057D02*
X54809524Y-33102438D01*
X54809524Y-33102438D02*
X54904762Y-33054819D01*
X54904762Y-33054819D02*
X55142857Y-33054819D01*
X55142857Y-33054819D02*
X55238095Y-33102438D01*
X55238095Y-33102438D02*
X55285714Y-33150057D01*
X55285714Y-33150057D02*
X55333333Y-33245295D01*
X55333333Y-33245295D02*
X55333333Y-33340533D01*
X55333333Y-33340533D02*
X55285714Y-33483390D01*
X55285714Y-33483390D02*
X54714286Y-34054819D01*
X54714286Y-34054819D02*
X55333333Y-34054819D01*
X214190476Y-34007200D02*
X214333333Y-34054819D01*
X214333333Y-34054819D02*
X214571428Y-34054819D01*
X214571428Y-34054819D02*
X214666666Y-34007200D01*
X214666666Y-34007200D02*
X214714285Y-33959580D01*
X214714285Y-33959580D02*
X214761904Y-33864342D01*
X214761904Y-33864342D02*
X214761904Y-33769104D01*
X214761904Y-33769104D02*
X214714285Y-33673866D01*
X214714285Y-33673866D02*
X214666666Y-33626247D01*
X214666666Y-33626247D02*
X214571428Y-33578628D01*
X214571428Y-33578628D02*
X214380952Y-33531009D01*
X214380952Y-33531009D02*
X214285714Y-33483390D01*
X214285714Y-33483390D02*
X214238095Y-33435771D01*
X214238095Y-33435771D02*
X214190476Y-33340533D01*
X214190476Y-33340533D02*
X214190476Y-33245295D01*
X214190476Y-33245295D02*
X214238095Y-33150057D01*
X214238095Y-33150057D02*
X214285714Y-33102438D01*
X214285714Y-33102438D02*
X214380952Y-33054819D01*
X214380952Y-33054819D02*
X214619047Y-33054819D01*
X214619047Y-33054819D02*
X214761904Y-33102438D01*
X215095238Y-33054819D02*
X215333333Y-34054819D01*
X215333333Y-34054819D02*
X215523809Y-33340533D01*
X215523809Y-33340533D02*
X215714285Y-34054819D01*
X215714285Y-34054819D02*
X215952381Y-33054819D01*
X216857142Y-34054819D02*
X216285714Y-34054819D01*
X216571428Y-34054819D02*
X216571428Y-33054819D01*
X216571428Y-33054819D02*
X216476190Y-33197676D01*
X216476190Y-33197676D02*
X216380952Y-33292914D01*
X216380952Y-33292914D02*
X216285714Y-33340533D01*
X217809523Y-34054819D02*
X217238095Y-34054819D01*
X217523809Y-34054819D02*
X217523809Y-33054819D01*
X217523809Y-33054819D02*
X217428571Y-33197676D01*
X217428571Y-33197676D02*
X217333333Y-33292914D01*
X217333333Y-33292914D02*
X217238095Y-33340533D01*
X113390476Y-72107200D02*
X113533333Y-72154819D01*
X113533333Y-72154819D02*
X113771428Y-72154819D01*
X113771428Y-72154819D02*
X113866666Y-72107200D01*
X113866666Y-72107200D02*
X113914285Y-72059580D01*
X113914285Y-72059580D02*
X113961904Y-71964342D01*
X113961904Y-71964342D02*
X113961904Y-71869104D01*
X113961904Y-71869104D02*
X113914285Y-71773866D01*
X113914285Y-71773866D02*
X113866666Y-71726247D01*
X113866666Y-71726247D02*
X113771428Y-71678628D01*
X113771428Y-71678628D02*
X113580952Y-71631009D01*
X113580952Y-71631009D02*
X113485714Y-71583390D01*
X113485714Y-71583390D02*
X113438095Y-71535771D01*
X113438095Y-71535771D02*
X113390476Y-71440533D01*
X113390476Y-71440533D02*
X113390476Y-71345295D01*
X113390476Y-71345295D02*
X113438095Y-71250057D01*
X113438095Y-71250057D02*
X113485714Y-71202438D01*
X113485714Y-71202438D02*
X113580952Y-71154819D01*
X113580952Y-71154819D02*
X113819047Y-71154819D01*
X113819047Y-71154819D02*
X113961904Y-71202438D01*
X114295238Y-71154819D02*
X114533333Y-72154819D01*
X114533333Y-72154819D02*
X114723809Y-71440533D01*
X114723809Y-71440533D02*
X114914285Y-72154819D01*
X114914285Y-72154819D02*
X115152381Y-71154819D01*
X115438095Y-71154819D02*
X116057142Y-71154819D01*
X116057142Y-71154819D02*
X115723809Y-71535771D01*
X115723809Y-71535771D02*
X115866666Y-71535771D01*
X115866666Y-71535771D02*
X115961904Y-71583390D01*
X115961904Y-71583390D02*
X116009523Y-71631009D01*
X116009523Y-71631009D02*
X116057142Y-71726247D01*
X116057142Y-71726247D02*
X116057142Y-71964342D01*
X116057142Y-71964342D02*
X116009523Y-72059580D01*
X116009523Y-72059580D02*
X115961904Y-72107200D01*
X115961904Y-72107200D02*
X115866666Y-72154819D01*
X115866666Y-72154819D02*
X115580952Y-72154819D01*
X115580952Y-72154819D02*
X115485714Y-72107200D01*
X115485714Y-72107200D02*
X115438095Y-72059580D01*
X116390476Y-71154819D02*
X117009523Y-71154819D01*
X117009523Y-71154819D02*
X116676190Y-71535771D01*
X116676190Y-71535771D02*
X116819047Y-71535771D01*
X116819047Y-71535771D02*
X116914285Y-71583390D01*
X116914285Y-71583390D02*
X116961904Y-71631009D01*
X116961904Y-71631009D02*
X117009523Y-71726247D01*
X117009523Y-71726247D02*
X117009523Y-71964342D01*
X117009523Y-71964342D02*
X116961904Y-72059580D01*
X116961904Y-72059580D02*
X116914285Y-72107200D01*
X116914285Y-72107200D02*
X116819047Y-72154819D01*
X116819047Y-72154819D02*
X116533333Y-72154819D01*
X116533333Y-72154819D02*
X116438095Y-72107200D01*
X116438095Y-72107200D02*
X116390476Y-72059580D01*
X199790476Y-53057200D02*
X199933333Y-53104819D01*
X199933333Y-53104819D02*
X200171428Y-53104819D01*
X200171428Y-53104819D02*
X200266666Y-53057200D01*
X200266666Y-53057200D02*
X200314285Y-53009580D01*
X200314285Y-53009580D02*
X200361904Y-52914342D01*
X200361904Y-52914342D02*
X200361904Y-52819104D01*
X200361904Y-52819104D02*
X200314285Y-52723866D01*
X200314285Y-52723866D02*
X200266666Y-52676247D01*
X200266666Y-52676247D02*
X200171428Y-52628628D01*
X200171428Y-52628628D02*
X199980952Y-52581009D01*
X199980952Y-52581009D02*
X199885714Y-52533390D01*
X199885714Y-52533390D02*
X199838095Y-52485771D01*
X199838095Y-52485771D02*
X199790476Y-52390533D01*
X199790476Y-52390533D02*
X199790476Y-52295295D01*
X199790476Y-52295295D02*
X199838095Y-52200057D01*
X199838095Y-52200057D02*
X199885714Y-52152438D01*
X199885714Y-52152438D02*
X199980952Y-52104819D01*
X199980952Y-52104819D02*
X200219047Y-52104819D01*
X200219047Y-52104819D02*
X200361904Y-52152438D01*
X200695238Y-52104819D02*
X200933333Y-53104819D01*
X200933333Y-53104819D02*
X201123809Y-52390533D01*
X201123809Y-52390533D02*
X201314285Y-53104819D01*
X201314285Y-53104819D02*
X201552381Y-52104819D01*
X201885714Y-52200057D02*
X201933333Y-52152438D01*
X201933333Y-52152438D02*
X202028571Y-52104819D01*
X202028571Y-52104819D02*
X202266666Y-52104819D01*
X202266666Y-52104819D02*
X202361904Y-52152438D01*
X202361904Y-52152438D02*
X202409523Y-52200057D01*
X202409523Y-52200057D02*
X202457142Y-52295295D01*
X202457142Y-52295295D02*
X202457142Y-52390533D01*
X202457142Y-52390533D02*
X202409523Y-52533390D01*
X202409523Y-52533390D02*
X201838095Y-53104819D01*
X201838095Y-53104819D02*
X202457142Y-53104819D01*
X203314285Y-52438152D02*
X203314285Y-53104819D01*
X203076190Y-52057200D02*
X202838095Y-52771485D01*
X202838095Y-52771485D02*
X203457142Y-52771485D01*
X106190476Y-91157200D02*
X106333333Y-91204819D01*
X106333333Y-91204819D02*
X106571428Y-91204819D01*
X106571428Y-91204819D02*
X106666666Y-91157200D01*
X106666666Y-91157200D02*
X106714285Y-91109580D01*
X106714285Y-91109580D02*
X106761904Y-91014342D01*
X106761904Y-91014342D02*
X106761904Y-90919104D01*
X106761904Y-90919104D02*
X106714285Y-90823866D01*
X106714285Y-90823866D02*
X106666666Y-90776247D01*
X106666666Y-90776247D02*
X106571428Y-90728628D01*
X106571428Y-90728628D02*
X106380952Y-90681009D01*
X106380952Y-90681009D02*
X106285714Y-90633390D01*
X106285714Y-90633390D02*
X106238095Y-90585771D01*
X106238095Y-90585771D02*
X106190476Y-90490533D01*
X106190476Y-90490533D02*
X106190476Y-90395295D01*
X106190476Y-90395295D02*
X106238095Y-90300057D01*
X106238095Y-90300057D02*
X106285714Y-90252438D01*
X106285714Y-90252438D02*
X106380952Y-90204819D01*
X106380952Y-90204819D02*
X106619047Y-90204819D01*
X106619047Y-90204819D02*
X106761904Y-90252438D01*
X107095238Y-90204819D02*
X107333333Y-91204819D01*
X107333333Y-91204819D02*
X107523809Y-90490533D01*
X107523809Y-90490533D02*
X107714285Y-91204819D01*
X107714285Y-91204819D02*
X107952381Y-90204819D01*
X108761904Y-90538152D02*
X108761904Y-91204819D01*
X108523809Y-90157200D02*
X108285714Y-90871485D01*
X108285714Y-90871485D02*
X108904761Y-90871485D01*
X109761904Y-90204819D02*
X109285714Y-90204819D01*
X109285714Y-90204819D02*
X109238095Y-90681009D01*
X109238095Y-90681009D02*
X109285714Y-90633390D01*
X109285714Y-90633390D02*
X109380952Y-90585771D01*
X109380952Y-90585771D02*
X109619047Y-90585771D01*
X109619047Y-90585771D02*
X109714285Y-90633390D01*
X109714285Y-90633390D02*
X109761904Y-90681009D01*
X109761904Y-90681009D02*
X109809523Y-90776247D01*
X109809523Y-90776247D02*
X109809523Y-91014342D01*
X109809523Y-91014342D02*
X109761904Y-91109580D01*
X109761904Y-91109580D02*
X109714285Y-91157200D01*
X109714285Y-91157200D02*
X109619047Y-91204819D01*
X109619047Y-91204819D02*
X109380952Y-91204819D01*
X109380952Y-91204819D02*
X109285714Y-91157200D01*
X109285714Y-91157200D02*
X109238095Y-91109580D01*
X142190476Y-91157200D02*
X142333333Y-91204819D01*
X142333333Y-91204819D02*
X142571428Y-91204819D01*
X142571428Y-91204819D02*
X142666666Y-91157200D01*
X142666666Y-91157200D02*
X142714285Y-91109580D01*
X142714285Y-91109580D02*
X142761904Y-91014342D01*
X142761904Y-91014342D02*
X142761904Y-90919104D01*
X142761904Y-90919104D02*
X142714285Y-90823866D01*
X142714285Y-90823866D02*
X142666666Y-90776247D01*
X142666666Y-90776247D02*
X142571428Y-90728628D01*
X142571428Y-90728628D02*
X142380952Y-90681009D01*
X142380952Y-90681009D02*
X142285714Y-90633390D01*
X142285714Y-90633390D02*
X142238095Y-90585771D01*
X142238095Y-90585771D02*
X142190476Y-90490533D01*
X142190476Y-90490533D02*
X142190476Y-90395295D01*
X142190476Y-90395295D02*
X142238095Y-90300057D01*
X142238095Y-90300057D02*
X142285714Y-90252438D01*
X142285714Y-90252438D02*
X142380952Y-90204819D01*
X142380952Y-90204819D02*
X142619047Y-90204819D01*
X142619047Y-90204819D02*
X142761904Y-90252438D01*
X143095238Y-90204819D02*
X143333333Y-91204819D01*
X143333333Y-91204819D02*
X143523809Y-90490533D01*
X143523809Y-90490533D02*
X143714285Y-91204819D01*
X143714285Y-91204819D02*
X143952381Y-90204819D01*
X144761904Y-90538152D02*
X144761904Y-91204819D01*
X144523809Y-90157200D02*
X144285714Y-90871485D01*
X144285714Y-90871485D02*
X144904761Y-90871485D01*
X145190476Y-90204819D02*
X145857142Y-90204819D01*
X145857142Y-90204819D02*
X145428571Y-91204819D01*
X163790476Y-53057200D02*
X163933333Y-53104819D01*
X163933333Y-53104819D02*
X164171428Y-53104819D01*
X164171428Y-53104819D02*
X164266666Y-53057200D01*
X164266666Y-53057200D02*
X164314285Y-53009580D01*
X164314285Y-53009580D02*
X164361904Y-52914342D01*
X164361904Y-52914342D02*
X164361904Y-52819104D01*
X164361904Y-52819104D02*
X164314285Y-52723866D01*
X164314285Y-52723866D02*
X164266666Y-52676247D01*
X164266666Y-52676247D02*
X164171428Y-52628628D01*
X164171428Y-52628628D02*
X163980952Y-52581009D01*
X163980952Y-52581009D02*
X163885714Y-52533390D01*
X163885714Y-52533390D02*
X163838095Y-52485771D01*
X163838095Y-52485771D02*
X163790476Y-52390533D01*
X163790476Y-52390533D02*
X163790476Y-52295295D01*
X163790476Y-52295295D02*
X163838095Y-52200057D01*
X163838095Y-52200057D02*
X163885714Y-52152438D01*
X163885714Y-52152438D02*
X163980952Y-52104819D01*
X163980952Y-52104819D02*
X164219047Y-52104819D01*
X164219047Y-52104819D02*
X164361904Y-52152438D01*
X164695238Y-52104819D02*
X164933333Y-53104819D01*
X164933333Y-53104819D02*
X165123809Y-52390533D01*
X165123809Y-52390533D02*
X165314285Y-53104819D01*
X165314285Y-53104819D02*
X165552381Y-52104819D01*
X165885714Y-52200057D02*
X165933333Y-52152438D01*
X165933333Y-52152438D02*
X166028571Y-52104819D01*
X166028571Y-52104819D02*
X166266666Y-52104819D01*
X166266666Y-52104819D02*
X166361904Y-52152438D01*
X166361904Y-52152438D02*
X166409523Y-52200057D01*
X166409523Y-52200057D02*
X166457142Y-52295295D01*
X166457142Y-52295295D02*
X166457142Y-52390533D01*
X166457142Y-52390533D02*
X166409523Y-52533390D01*
X166409523Y-52533390D02*
X165838095Y-53104819D01*
X165838095Y-53104819D02*
X166457142Y-53104819D01*
X166838095Y-52200057D02*
X166885714Y-52152438D01*
X166885714Y-52152438D02*
X166980952Y-52104819D01*
X166980952Y-52104819D02*
X167219047Y-52104819D01*
X167219047Y-52104819D02*
X167314285Y-52152438D01*
X167314285Y-52152438D02*
X167361904Y-52200057D01*
X167361904Y-52200057D02*
X167409523Y-52295295D01*
X167409523Y-52295295D02*
X167409523Y-52390533D01*
X167409523Y-52390533D02*
X167361904Y-52533390D01*
X167361904Y-52533390D02*
X166790476Y-53104819D01*
X166790476Y-53104819D02*
X167409523Y-53104819D01*
X91790476Y-53057200D02*
X91933333Y-53104819D01*
X91933333Y-53104819D02*
X92171428Y-53104819D01*
X92171428Y-53104819D02*
X92266666Y-53057200D01*
X92266666Y-53057200D02*
X92314285Y-53009580D01*
X92314285Y-53009580D02*
X92361904Y-52914342D01*
X92361904Y-52914342D02*
X92361904Y-52819104D01*
X92361904Y-52819104D02*
X92314285Y-52723866D01*
X92314285Y-52723866D02*
X92266666Y-52676247D01*
X92266666Y-52676247D02*
X92171428Y-52628628D01*
X92171428Y-52628628D02*
X91980952Y-52581009D01*
X91980952Y-52581009D02*
X91885714Y-52533390D01*
X91885714Y-52533390D02*
X91838095Y-52485771D01*
X91838095Y-52485771D02*
X91790476Y-52390533D01*
X91790476Y-52390533D02*
X91790476Y-52295295D01*
X91790476Y-52295295D02*
X91838095Y-52200057D01*
X91838095Y-52200057D02*
X91885714Y-52152438D01*
X91885714Y-52152438D02*
X91980952Y-52104819D01*
X91980952Y-52104819D02*
X92219047Y-52104819D01*
X92219047Y-52104819D02*
X92361904Y-52152438D01*
X92695238Y-52104819D02*
X92933333Y-53104819D01*
X92933333Y-53104819D02*
X93123809Y-52390533D01*
X93123809Y-52390533D02*
X93314285Y-53104819D01*
X93314285Y-53104819D02*
X93552381Y-52104819D01*
X94457142Y-53104819D02*
X93885714Y-53104819D01*
X94171428Y-53104819D02*
X94171428Y-52104819D01*
X94171428Y-52104819D02*
X94076190Y-52247676D01*
X94076190Y-52247676D02*
X93980952Y-52342914D01*
X93980952Y-52342914D02*
X93885714Y-52390533D01*
X95028571Y-52533390D02*
X94933333Y-52485771D01*
X94933333Y-52485771D02*
X94885714Y-52438152D01*
X94885714Y-52438152D02*
X94838095Y-52342914D01*
X94838095Y-52342914D02*
X94838095Y-52295295D01*
X94838095Y-52295295D02*
X94885714Y-52200057D01*
X94885714Y-52200057D02*
X94933333Y-52152438D01*
X94933333Y-52152438D02*
X95028571Y-52104819D01*
X95028571Y-52104819D02*
X95219047Y-52104819D01*
X95219047Y-52104819D02*
X95314285Y-52152438D01*
X95314285Y-52152438D02*
X95361904Y-52200057D01*
X95361904Y-52200057D02*
X95409523Y-52295295D01*
X95409523Y-52295295D02*
X95409523Y-52342914D01*
X95409523Y-52342914D02*
X95361904Y-52438152D01*
X95361904Y-52438152D02*
X95314285Y-52485771D01*
X95314285Y-52485771D02*
X95219047Y-52533390D01*
X95219047Y-52533390D02*
X95028571Y-52533390D01*
X95028571Y-52533390D02*
X94933333Y-52581009D01*
X94933333Y-52581009D02*
X94885714Y-52628628D01*
X94885714Y-52628628D02*
X94838095Y-52723866D01*
X94838095Y-52723866D02*
X94838095Y-52914342D01*
X94838095Y-52914342D02*
X94885714Y-53009580D01*
X94885714Y-53009580D02*
X94933333Y-53057200D01*
X94933333Y-53057200D02*
X95028571Y-53104819D01*
X95028571Y-53104819D02*
X95219047Y-53104819D01*
X95219047Y-53104819D02*
X95314285Y-53057200D01*
X95314285Y-53057200D02*
X95361904Y-53009580D01*
X95361904Y-53009580D02*
X95409523Y-52914342D01*
X95409523Y-52914342D02*
X95409523Y-52723866D01*
X95409523Y-52723866D02*
X95361904Y-52628628D01*
X95361904Y-52628628D02*
X95314285Y-52581009D01*
X95314285Y-52581009D02*
X95219047Y-52533390D01*
%TO.C,SW57*%
X125800000Y-120300000D02*
X125800000Y-121300000D01*
X125800000Y-107300000D02*
X125800000Y-108300000D01*
X125800000Y-107300000D02*
X124800000Y-107300000D01*
X124800000Y-121300000D02*
X125800000Y-121300000D01*
X112800000Y-107300000D02*
X111800000Y-107300000D01*
X111800000Y-121300000D02*
X112800000Y-121300000D01*
X111800000Y-121300000D02*
X111800000Y-120300000D01*
X111800000Y-108300000D02*
X111800000Y-107300000D01*
%TO.C,SW59*%
X175300000Y-120300000D02*
X175300000Y-121300000D01*
X175300000Y-107300000D02*
X175300000Y-108300000D01*
X175300000Y-107300000D02*
X174300000Y-107300000D01*
X174300000Y-121300000D02*
X175300000Y-121300000D01*
X162300000Y-107300000D02*
X161300000Y-107300000D01*
X161300000Y-121300000D02*
X162300000Y-121300000D01*
X161300000Y-121300000D02*
X161300000Y-120300000D01*
X161300000Y-108300000D02*
X161300000Y-107300000D01*
%TO.C,SW60*%
X191500000Y-120300000D02*
X191500000Y-121300000D01*
X191500000Y-107300000D02*
X191500000Y-108300000D01*
X191500000Y-107300000D02*
X190500000Y-107300000D01*
X190500000Y-121300000D02*
X191500000Y-121300000D01*
X178500000Y-107300000D02*
X177500000Y-107300000D01*
X177500000Y-121300000D02*
X178500000Y-121300000D01*
X177500000Y-121300000D02*
X177500000Y-120300000D01*
X177500000Y-108300000D02*
X177500000Y-107300000D01*
%TO.C,SW62*%
X223899999Y-120300000D02*
X223899999Y-121300000D01*
X223899999Y-107300000D02*
X223899999Y-108300000D01*
X223899999Y-107300000D02*
X222899999Y-107300000D01*
X222899999Y-121300000D02*
X223899999Y-121300000D01*
X210899999Y-107300000D02*
X209899999Y-107300000D01*
X209899999Y-121300000D02*
X210899999Y-121300000D01*
X209899999Y-121300000D02*
X209899999Y-120300000D01*
X209899999Y-108300000D02*
X209899999Y-107300000D01*
%TO.C,SW61*%
X207699999Y-120300000D02*
X207699999Y-121300000D01*
X207699999Y-107300000D02*
X207699999Y-108300000D01*
X207699999Y-107300000D02*
X206699999Y-107300000D01*
X206699999Y-121300000D02*
X207699999Y-121300000D01*
X194699999Y-107300000D02*
X193699999Y-107300000D01*
X193699999Y-121300000D02*
X194699999Y-121300000D01*
X193699999Y-121300000D02*
X193699999Y-120300000D01*
X193699999Y-108300000D02*
X193699999Y-107300000D01*
%TO.C,SW58*%
X156400000Y-120300000D02*
X156400000Y-121300000D01*
X156400000Y-107300000D02*
X156400000Y-108300000D01*
X156400000Y-107300000D02*
X155400000Y-107300000D01*
X155400000Y-121300000D02*
X156400000Y-121300000D01*
X143400000Y-107300000D02*
X142400000Y-107300000D01*
X142400000Y-121300000D02*
X143400000Y-121300000D01*
X142400000Y-121300000D02*
X142400000Y-120300000D01*
X142400000Y-108300000D02*
X142400000Y-107300000D01*
%TO.C,SW3*%
X65000000Y-32100000D02*
X65000000Y-31100000D01*
X65000000Y-45100000D02*
X65000000Y-44100000D01*
X65000000Y-45100000D02*
X66000000Y-45100000D01*
X66000000Y-31100000D02*
X65000000Y-31100000D01*
X78000000Y-45100000D02*
X79000000Y-45100000D01*
X79000000Y-31100000D02*
X78000000Y-31100000D01*
X79000000Y-31100000D02*
X79000000Y-32100000D01*
X79000000Y-44100000D02*
X79000000Y-45100000D01*
%TO.C,SW19*%
X104600000Y-51150000D02*
X104600000Y-50150000D01*
X104600000Y-64150000D02*
X104600000Y-63150000D01*
X104600000Y-64150000D02*
X105600000Y-64150000D01*
X105600000Y-50150000D02*
X104600000Y-50150000D01*
X117600000Y-64150000D02*
X118600000Y-64150000D01*
X118600000Y-50150000D02*
X117600000Y-50150000D01*
X118600000Y-50150000D02*
X118600000Y-51150000D01*
X118600000Y-63150000D02*
X118600000Y-64150000D01*
%TO.C,SW31*%
X72200000Y-70200000D02*
X72200000Y-69200000D01*
X72200000Y-83200000D02*
X72200000Y-82200000D01*
X72200000Y-83200000D02*
X73200000Y-83200000D01*
X73200000Y-69200000D02*
X72200000Y-69200000D01*
X85200000Y-83200000D02*
X86200000Y-83200000D01*
X86200000Y-69200000D02*
X85200000Y-69200000D01*
X86200000Y-69200000D02*
X86200000Y-70200000D01*
X86200000Y-82200000D02*
X86200000Y-83200000D01*
%TO.C,SW41*%
X255800000Y-70200000D02*
X255800000Y-69200000D01*
X255800000Y-83200000D02*
X255800000Y-82200000D01*
X255800000Y-83200000D02*
X256800000Y-83200000D01*
X256800000Y-69200000D02*
X255800000Y-69200000D01*
X268800000Y-83200000D02*
X269800000Y-83200000D01*
X269800000Y-69200000D02*
X268800000Y-69200000D01*
X269800000Y-69200000D02*
X269800000Y-70200000D01*
X269800000Y-82200000D02*
X269800000Y-83200000D01*
%TO.C,SW32*%
X90200000Y-70200000D02*
X90200000Y-69200000D01*
X90200000Y-83200000D02*
X90200000Y-82200000D01*
X90200000Y-83200000D02*
X91200000Y-83200000D01*
X91200000Y-69200000D02*
X90200000Y-69200000D01*
X103200000Y-83200000D02*
X104200000Y-83200000D01*
X104200000Y-69200000D02*
X103200000Y-69200000D01*
X104200000Y-69200000D02*
X104200000Y-70200000D01*
X104200000Y-82200000D02*
X104200000Y-83200000D01*
%TO.C,SW8*%
X155000000Y-32100000D02*
X155000000Y-31100000D01*
X155000000Y-45100000D02*
X155000000Y-44100000D01*
X155000000Y-45100000D02*
X156000000Y-45100000D01*
X156000000Y-31100000D02*
X155000000Y-31100000D01*
X168000000Y-45100000D02*
X169000000Y-45100000D01*
X169000000Y-31100000D02*
X168000000Y-31100000D01*
X169000000Y-31100000D02*
X169000000Y-32100000D01*
X169000000Y-44100000D02*
X169000000Y-45100000D01*
%TO.C,SW46*%
X119000000Y-89250000D02*
X119000000Y-88250000D01*
X119000000Y-102250000D02*
X119000000Y-101250000D01*
X119000000Y-102250000D02*
X120000000Y-102250000D01*
X120000000Y-88250000D02*
X119000000Y-88250000D01*
X132000000Y-102250000D02*
X133000000Y-102250000D01*
X133000000Y-88250000D02*
X132000000Y-88250000D01*
X133000000Y-88250000D02*
X133000000Y-89250000D01*
X133000000Y-101250000D02*
X133000000Y-102250000D01*
%TO.C,SW40*%
X231500000Y-70200000D02*
X231500000Y-69200000D01*
X231500000Y-83200000D02*
X231500000Y-82200000D01*
X231500000Y-83200000D02*
X232500000Y-83200000D01*
X232500000Y-69200000D02*
X231500000Y-69200000D01*
X244500000Y-83200000D02*
X245500000Y-83200000D01*
X245500000Y-69200000D02*
X244500000Y-69200000D01*
X245500000Y-69200000D02*
X245500000Y-70200000D01*
X245500000Y-82200000D02*
X245500000Y-83200000D01*
%TO.C,SW13*%
X242300000Y-32100000D02*
X242300000Y-31100000D01*
X242300000Y-45100000D02*
X242300000Y-44100000D01*
X242300000Y-45100000D02*
X243300000Y-45100000D01*
X243300000Y-31100000D02*
X242300000Y-31100000D01*
X255300000Y-45100000D02*
X256300000Y-45100000D01*
X256300000Y-31100000D02*
X255300000Y-31100000D01*
X256300000Y-31100000D02*
X256300000Y-32100000D01*
X256300000Y-44100000D02*
X256300000Y-45100000D01*
%TO.C,SW12*%
X226100000Y-32100000D02*
X226100000Y-31100000D01*
X226100000Y-45100000D02*
X226100000Y-44100000D01*
X226100000Y-45100000D02*
X227100000Y-45100000D01*
X227100000Y-31100000D02*
X226100000Y-31100000D01*
X239100000Y-45100000D02*
X240100000Y-45100000D01*
X240100000Y-31100000D02*
X239100000Y-31100000D01*
X240100000Y-31100000D02*
X240100000Y-32100000D01*
X240100000Y-44100000D02*
X240100000Y-45100000D01*
%TO.C,SW7*%
X137000000Y-32100000D02*
X137000000Y-31100000D01*
X137000000Y-45100000D02*
X137000000Y-44100000D01*
X137000000Y-45100000D02*
X138000000Y-45100000D01*
X138000000Y-31100000D02*
X137000000Y-31100000D01*
X150000000Y-45100000D02*
X151000000Y-45100000D01*
X151000000Y-31100000D02*
X150000000Y-31100000D01*
X151000000Y-31100000D02*
X151000000Y-32100000D01*
X151000000Y-44100000D02*
X151000000Y-45100000D01*
%TO.C,SW16*%
X50600000Y-51150000D02*
X50600000Y-50150000D01*
X50600000Y-64150000D02*
X50600000Y-63150000D01*
X50600000Y-64150000D02*
X51600000Y-64150000D01*
X51600000Y-50150000D02*
X50600000Y-50150000D01*
X63600000Y-64150000D02*
X64600000Y-64150000D01*
X64600000Y-50150000D02*
X63600000Y-50150000D01*
X64600000Y-50150000D02*
X64600000Y-51150000D01*
X64600000Y-63150000D02*
X64600000Y-64150000D01*
%TO.C,SW56*%
X75800000Y-108300000D02*
X75800000Y-107300000D01*
X75800000Y-121300000D02*
X75800000Y-120300000D01*
X75800000Y-121300000D02*
X76800000Y-121300000D01*
X76800000Y-107300000D02*
X75800000Y-107300000D01*
X88800000Y-121300000D02*
X89800000Y-121300000D01*
X89800000Y-107300000D02*
X88800000Y-107300000D01*
X89800000Y-107300000D02*
X89800000Y-108300000D01*
X89800000Y-120300000D02*
X89800000Y-121300000D01*
%TO.C,SW49*%
X173000000Y-89250000D02*
X173000000Y-88250000D01*
X173000000Y-102250000D02*
X173000000Y-101250000D01*
X173000000Y-102250000D02*
X174000000Y-102250000D01*
X174000000Y-88250000D02*
X173000000Y-88250000D01*
X186000000Y-102250000D02*
X187000000Y-102250000D01*
X187000000Y-88250000D02*
X186000000Y-88250000D01*
X187000000Y-88250000D02*
X187000000Y-89250000D01*
X187000000Y-101250000D02*
X187000000Y-102250000D01*
%TO.C,SW54*%
X34400000Y-108300000D02*
X34400000Y-107300000D01*
X34400000Y-121300000D02*
X34400000Y-120300000D01*
X34400000Y-121300000D02*
X35400000Y-121300000D01*
X35400000Y-107300000D02*
X34400000Y-107300000D01*
X47400000Y-121300000D02*
X48400000Y-121300000D01*
X48400000Y-107300000D02*
X47400000Y-107300000D01*
X48400000Y-107300000D02*
X48400000Y-108300000D01*
X48400000Y-120300000D02*
X48400000Y-121300000D01*
%TO.C,SW20*%
X122600000Y-51150000D02*
X122600000Y-50150000D01*
X122600000Y-64150000D02*
X122600000Y-63150000D01*
X122600000Y-64150000D02*
X123600000Y-64150000D01*
X123600000Y-50150000D02*
X122600000Y-50150000D01*
X135600000Y-64150000D02*
X136600000Y-64150000D01*
X136600000Y-50150000D02*
X135600000Y-50150000D01*
X136600000Y-50150000D02*
X136600000Y-51150000D01*
X136600000Y-63150000D02*
X136600000Y-64150000D01*
%TO.C,SW44*%
X83000000Y-89250000D02*
X83000000Y-88250000D01*
X83000000Y-102250000D02*
X83000000Y-101250000D01*
X83000000Y-102250000D02*
X84000000Y-102250000D01*
X84000000Y-88250000D02*
X83000000Y-88250000D01*
X96000000Y-102250000D02*
X97000000Y-102250000D01*
X97000000Y-88250000D02*
X96000000Y-88250000D01*
X97000000Y-88250000D02*
X97000000Y-89250000D01*
X97000000Y-101250000D02*
X97000000Y-102250000D01*
%TO.C,SW1*%
X29000000Y-32100000D02*
X29000000Y-31100000D01*
X29000000Y-45100000D02*
X29000000Y-44100000D01*
X29000000Y-45100000D02*
X30000000Y-45100000D01*
X30000000Y-31100000D02*
X29000000Y-31100000D01*
X42000000Y-45100000D02*
X43000000Y-45100000D01*
X43000000Y-31100000D02*
X42000000Y-31100000D01*
X43000000Y-31100000D02*
X43000000Y-32100000D01*
X43000000Y-44100000D02*
X43000000Y-45100000D01*
%TO.C,SW50*%
X191000000Y-89250000D02*
X191000000Y-88250000D01*
X191000000Y-102250000D02*
X191000000Y-101250000D01*
X191000000Y-102250000D02*
X192000000Y-102250000D01*
X192000000Y-88250000D02*
X191000000Y-88250000D01*
X204000000Y-102250000D02*
X205000000Y-102250000D01*
X205000000Y-88250000D02*
X204000000Y-88250000D01*
X205000000Y-88250000D02*
X205000000Y-89250000D01*
X205000000Y-101250000D02*
X205000000Y-102250000D01*
%TO.C,SW28*%
X263000000Y-51150000D02*
X263000000Y-50150000D01*
X263000000Y-64150000D02*
X263000000Y-63150000D01*
X263000000Y-64150000D02*
X264000000Y-64150000D01*
X264000000Y-50150000D02*
X263000000Y-50150000D01*
X276000000Y-64150000D02*
X277000000Y-64150000D01*
X277000000Y-50150000D02*
X276000000Y-50150000D01*
X277000000Y-50150000D02*
X277000000Y-51150000D01*
X277000000Y-63150000D02*
X277000000Y-64150000D01*
%TO.C,SW43*%
X65000000Y-89250000D02*
X65000000Y-88250000D01*
X65000000Y-102250000D02*
X65000000Y-101250000D01*
X65000000Y-102250000D02*
X66000000Y-102250000D01*
X66000000Y-88250000D02*
X65000000Y-88250000D01*
X78000000Y-102250000D02*
X79000000Y-102250000D01*
X79000000Y-88250000D02*
X78000000Y-88250000D01*
X79000000Y-88250000D02*
X79000000Y-89250000D01*
X79000000Y-101250000D02*
X79000000Y-102250000D01*
%TO.C,SW37*%
X180200000Y-70200000D02*
X180200000Y-69200000D01*
X180200000Y-83200000D02*
X180200000Y-82200000D01*
X180200000Y-83200000D02*
X181200000Y-83200000D01*
X181200000Y-69200000D02*
X180200000Y-69200000D01*
X193200000Y-83200000D02*
X194200000Y-83200000D01*
X194200000Y-69200000D02*
X193200000Y-69200000D01*
X194200000Y-69200000D02*
X194200000Y-70200000D01*
X194200000Y-82200000D02*
X194200000Y-83200000D01*
%TO.C,SW5*%
X101000000Y-32100000D02*
X101000000Y-31100000D01*
X101000000Y-45100000D02*
X101000000Y-44100000D01*
X101000000Y-45100000D02*
X102000000Y-45100000D01*
X102000000Y-31100000D02*
X101000000Y-31100000D01*
X114000000Y-45100000D02*
X115000000Y-45100000D01*
X115000000Y-31100000D02*
X114000000Y-31100000D01*
X115000000Y-31100000D02*
X115000000Y-32100000D01*
X115000000Y-44100000D02*
X115000000Y-45100000D01*
%TO.C,SW30*%
X54200000Y-70200000D02*
X54200000Y-69200000D01*
X54200000Y-83200000D02*
X54200000Y-82200000D01*
X54200000Y-83200000D02*
X55200000Y-83200000D01*
X55200000Y-69200000D02*
X54200000Y-69200000D01*
X67200000Y-83200000D02*
X68200000Y-83200000D01*
X68200000Y-69200000D02*
X67200000Y-69200000D01*
X68200000Y-69200000D02*
X68200000Y-70200000D01*
X68200000Y-82200000D02*
X68200000Y-83200000D01*
%TO.C,SW4*%
X83000000Y-32100000D02*
X83000000Y-31100000D01*
X83000000Y-45100000D02*
X83000000Y-44100000D01*
X83000000Y-45100000D02*
X84000000Y-45100000D01*
X84000000Y-31100000D02*
X83000000Y-31100000D01*
X96000000Y-45100000D02*
X97000000Y-45100000D01*
X97000000Y-31100000D02*
X96000000Y-31100000D01*
X97000000Y-31100000D02*
X97000000Y-32100000D01*
X97000000Y-44100000D02*
X97000000Y-45100000D01*
%TO.C,SW14*%
X261200000Y-32100000D02*
X261200000Y-31100000D01*
X261200000Y-45100000D02*
X261200000Y-44100000D01*
X261200000Y-45100000D02*
X262200000Y-45100000D01*
X262200000Y-31100000D02*
X261200000Y-31100000D01*
X274200000Y-45100000D02*
X275200000Y-45100000D01*
X275200000Y-31100000D02*
X274200000Y-31100000D01*
X275200000Y-31100000D02*
X275200000Y-32100000D01*
X275200000Y-44100000D02*
X275200000Y-45100000D01*
%TO.C,SW10*%
X191000000Y-32100000D02*
X191000000Y-31100000D01*
X191000000Y-45100000D02*
X191000000Y-44100000D01*
X191000000Y-45100000D02*
X192000000Y-45100000D01*
X192000000Y-31100000D02*
X191000000Y-31100000D01*
X204000000Y-45100000D02*
X205000000Y-45100000D01*
X205000000Y-31100000D02*
X204000000Y-31100000D01*
X205000000Y-31100000D02*
X205000000Y-32100000D01*
X205000000Y-44100000D02*
X205000000Y-45100000D01*
%TO.C,SW52*%
X227000000Y-89250000D02*
X227000000Y-88250000D01*
X227000000Y-102250000D02*
X227000000Y-101250000D01*
X227000000Y-102250000D02*
X228000000Y-102250000D01*
X228000000Y-88250000D02*
X227000000Y-88250000D01*
X240000000Y-102250000D02*
X241000000Y-102250000D01*
X241000000Y-88250000D02*
X240000000Y-88250000D01*
X241000000Y-88250000D02*
X241000000Y-89250000D01*
X241000000Y-101250000D02*
X241000000Y-102250000D01*
%TO.C,SW38*%
X198200000Y-70200000D02*
X198200000Y-69200000D01*
X198200000Y-83200000D02*
X198200000Y-82200000D01*
X198200000Y-83200000D02*
X199200000Y-83200000D01*
X199200000Y-69200000D02*
X198200000Y-69200000D01*
X211200000Y-83200000D02*
X212200000Y-83200000D01*
X212200000Y-69200000D02*
X211200000Y-69200000D01*
X212200000Y-69200000D02*
X212200000Y-70200000D01*
X212200000Y-82200000D02*
X212200000Y-83200000D01*
%TO.C,SW35*%
X144200000Y-70200000D02*
X144200000Y-69200000D01*
X144200000Y-83200000D02*
X144200000Y-82200000D01*
X144200000Y-83200000D02*
X145200000Y-83200000D01*
X145200000Y-69200000D02*
X144200000Y-69200000D01*
X157200000Y-83200000D02*
X158200000Y-83200000D01*
X158200000Y-69200000D02*
X157200000Y-69200000D01*
X158200000Y-69200000D02*
X158200000Y-70200000D01*
X158200000Y-82200000D02*
X158200000Y-83200000D01*
%TO.C,SW51*%
X209000000Y-89250000D02*
X209000000Y-88250000D01*
X209000000Y-102250000D02*
X209000000Y-101250000D01*
X209000000Y-102250000D02*
X210000000Y-102250000D01*
X210000000Y-88250000D02*
X209000000Y-88250000D01*
X222000000Y-102250000D02*
X223000000Y-102250000D01*
X223000000Y-88250000D02*
X222000000Y-88250000D01*
X223000000Y-88250000D02*
X223000000Y-89250000D01*
X223000000Y-101250000D02*
X223000000Y-102250000D01*
%TO.C,SW53*%
X254000000Y-89250000D02*
X254000000Y-88250000D01*
X254000000Y-102250000D02*
X254000000Y-101250000D01*
X254000000Y-102250000D02*
X255000000Y-102250000D01*
X255000000Y-88250000D02*
X254000000Y-88250000D01*
X267000000Y-102250000D02*
X268000000Y-102250000D01*
X268000000Y-88250000D02*
X267000000Y-88250000D01*
X268000000Y-88250000D02*
X268000000Y-89250000D01*
X268000000Y-101250000D02*
X268000000Y-102250000D01*
%TO.C,SW48*%
X155000000Y-89250000D02*
X155000000Y-88250000D01*
X155000000Y-102250000D02*
X155000000Y-101250000D01*
X155000000Y-102250000D02*
X156000000Y-102250000D01*
X156000000Y-88250000D02*
X155000000Y-88250000D01*
X168000000Y-102250000D02*
X169000000Y-102250000D01*
X169000000Y-88250000D02*
X168000000Y-88250000D01*
X169000000Y-88250000D02*
X169000000Y-89250000D01*
X169000000Y-101250000D02*
X169000000Y-102250000D01*
%TO.C,SW34*%
X126200000Y-70200000D02*
X126200000Y-69200000D01*
X126200000Y-83200000D02*
X126200000Y-82200000D01*
X126200000Y-83200000D02*
X127200000Y-83200000D01*
X127200000Y-69200000D02*
X126200000Y-69200000D01*
X139200000Y-83200000D02*
X140200000Y-83200000D01*
X140200000Y-69200000D02*
X139200000Y-69200000D01*
X140200000Y-69200000D02*
X140200000Y-70200000D01*
X140200000Y-82200000D02*
X140200000Y-83200000D01*
%TO.C,SW15*%
X30800000Y-51150000D02*
X30800000Y-50150000D01*
X30800000Y-64150000D02*
X30800000Y-63150000D01*
X30800000Y-64150000D02*
X31800000Y-64150000D01*
X31800000Y-50150000D02*
X30800000Y-50150000D01*
X43800000Y-64150000D02*
X44800000Y-64150000D01*
X44800000Y-50150000D02*
X43800000Y-50150000D01*
X44800000Y-50150000D02*
X44800000Y-51150000D01*
X44800000Y-63150000D02*
X44800000Y-64150000D01*
%TO.C,SW39*%
X215300000Y-70200000D02*
X215300000Y-69200000D01*
X215300000Y-83200000D02*
X215300000Y-82200000D01*
X215300000Y-83200000D02*
X216300000Y-83200000D01*
X216300000Y-69200000D02*
X215300000Y-69200000D01*
X228300000Y-83200000D02*
X229300000Y-83200000D01*
X229300000Y-69200000D02*
X228300000Y-69200000D01*
X229300000Y-69200000D02*
X229300000Y-70200000D01*
X229300000Y-82200000D02*
X229300000Y-83200000D01*
%TO.C,SW55*%
X57800000Y-108300000D02*
X57800000Y-107300000D01*
X57800000Y-121300000D02*
X57800000Y-120300000D01*
X57800000Y-121300000D02*
X58800000Y-121300000D01*
X58800000Y-107300000D02*
X57800000Y-107300000D01*
X70800000Y-121300000D02*
X71800000Y-121300000D01*
X71800000Y-107300000D02*
X70800000Y-107300000D01*
X71800000Y-107300000D02*
X71800000Y-108300000D01*
X71800000Y-120300000D02*
X71800000Y-121300000D01*
%TO.C,SW27*%
X245899999Y-51150000D02*
X245899999Y-50150000D01*
X245899999Y-64150000D02*
X245899999Y-63150000D01*
X245899999Y-64150000D02*
X246899999Y-64150000D01*
X246899999Y-50150000D02*
X245899999Y-50150000D01*
X258899999Y-64150000D02*
X259899999Y-64150000D01*
X259899999Y-50150000D02*
X258899999Y-50150000D01*
X259899999Y-50150000D02*
X259899999Y-51150000D01*
X259899999Y-63150000D02*
X259899999Y-64150000D01*
%TO.C,SW9*%
X173000000Y-32100000D02*
X173000000Y-31100000D01*
X173000000Y-45100000D02*
X173000000Y-44100000D01*
X173000000Y-45100000D02*
X174000000Y-45100000D01*
X174000000Y-31100000D02*
X173000000Y-31100000D01*
X186000000Y-45100000D02*
X187000000Y-45100000D01*
X187000000Y-31100000D02*
X186000000Y-31100000D01*
X187000000Y-31100000D02*
X187000000Y-32100000D01*
X187000000Y-44100000D02*
X187000000Y-45100000D01*
%TO.C,SW25*%
X212600000Y-51150000D02*
X212600000Y-50150000D01*
X212600000Y-64150000D02*
X212600000Y-63150000D01*
X212600000Y-64150000D02*
X213600000Y-64150000D01*
X213600000Y-50150000D02*
X212600000Y-50150000D01*
X225600000Y-64150000D02*
X226600000Y-64150000D01*
X226600000Y-50150000D02*
X225600000Y-50150000D01*
X226600000Y-50150000D02*
X226600000Y-51150000D01*
X226600000Y-63150000D02*
X226600000Y-64150000D01*
%TO.C,SW26*%
X229699999Y-51150000D02*
X229699999Y-50150000D01*
X229699999Y-64150000D02*
X229699999Y-63150000D01*
X229699999Y-64150000D02*
X230699999Y-64150000D01*
X230699999Y-50150000D02*
X229699999Y-50150000D01*
X242699999Y-64150000D02*
X243699999Y-64150000D01*
X243699999Y-50150000D02*
X242699999Y-50150000D01*
X243699999Y-50150000D02*
X243699999Y-51150000D01*
X243699999Y-63150000D02*
X243699999Y-64150000D01*
%TO.C,SW42*%
X38000000Y-89250000D02*
X38000000Y-88250000D01*
X38000000Y-102250000D02*
X38000000Y-101250000D01*
X38000000Y-102250000D02*
X39000000Y-102250000D01*
X39000000Y-88250000D02*
X38000000Y-88250000D01*
X51000000Y-102250000D02*
X52000000Y-102250000D01*
X52000000Y-88250000D02*
X51000000Y-88250000D01*
X52000000Y-88250000D02*
X52000000Y-89250000D01*
X52000000Y-101250000D02*
X52000000Y-102250000D01*
%TO.C,SW21*%
X140600000Y-51150000D02*
X140600000Y-50150000D01*
X140600000Y-64150000D02*
X140600000Y-63150000D01*
X140600000Y-64150000D02*
X141600000Y-64150000D01*
X141600000Y-50150000D02*
X140600000Y-50150000D01*
X153600000Y-64150000D02*
X154600000Y-64150000D01*
X154600000Y-50150000D02*
X153600000Y-50150000D01*
X154600000Y-50150000D02*
X154600000Y-51150000D01*
X154600000Y-63150000D02*
X154600000Y-64150000D01*
%TO.C,SW23*%
X176600000Y-51150000D02*
X176600000Y-50150000D01*
X176600000Y-64150000D02*
X176600000Y-63150000D01*
X176600000Y-64150000D02*
X177600000Y-64150000D01*
X177600000Y-50150000D02*
X176600000Y-50150000D01*
X189600000Y-64150000D02*
X190600000Y-64150000D01*
X190600000Y-50150000D02*
X189600000Y-50150000D01*
X190600000Y-50150000D02*
X190600000Y-51150000D01*
X190600000Y-63150000D02*
X190600000Y-64150000D01*
%TO.C,SW36*%
X162200000Y-70200000D02*
X162200000Y-69200000D01*
X162200000Y-83200000D02*
X162200000Y-82200000D01*
X162200000Y-83200000D02*
X163200000Y-83200000D01*
X163200000Y-69200000D02*
X162200000Y-69200000D01*
X175200000Y-83200000D02*
X176200000Y-83200000D01*
X176200000Y-69200000D02*
X175200000Y-69200000D01*
X176200000Y-69200000D02*
X176200000Y-70200000D01*
X176200000Y-82200000D02*
X176200000Y-83200000D01*
%TO.C,SW6*%
X119000000Y-32100000D02*
X119000000Y-31100000D01*
X119000000Y-45100000D02*
X119000000Y-44100000D01*
X119000000Y-45100000D02*
X120000000Y-45100000D01*
X120000000Y-31100000D02*
X119000000Y-31100000D01*
X132000000Y-45100000D02*
X133000000Y-45100000D01*
X133000000Y-31100000D02*
X132000000Y-31100000D01*
X133000000Y-31100000D02*
X133000000Y-32100000D01*
X133000000Y-44100000D02*
X133000000Y-45100000D01*
%TO.C,SW17*%
X68600000Y-51150000D02*
X68600000Y-50150000D01*
X68600000Y-64150000D02*
X68600000Y-63150000D01*
X68600000Y-64150000D02*
X69600000Y-64150000D01*
X69600000Y-50150000D02*
X68600000Y-50150000D01*
X81600000Y-64150000D02*
X82600000Y-64150000D01*
X82600000Y-50150000D02*
X81600000Y-50150000D01*
X82600000Y-50150000D02*
X82600000Y-51150000D01*
X82600000Y-63150000D02*
X82600000Y-64150000D01*
%TO.C,SW29*%
X32600000Y-70200000D02*
X32600000Y-69200000D01*
X32600000Y-83200000D02*
X32600000Y-82200000D01*
X32600000Y-83200000D02*
X33600000Y-83200000D01*
X33600000Y-69200000D02*
X32600000Y-69200000D01*
X45600000Y-83200000D02*
X46600000Y-83200000D01*
X46600000Y-69200000D02*
X45600000Y-69200000D01*
X46600000Y-69200000D02*
X46600000Y-70200000D01*
X46600000Y-82200000D02*
X46600000Y-83200000D01*
%TO.C,SW2*%
X47000000Y-32100000D02*
X47000000Y-31100000D01*
X47000000Y-45100000D02*
X47000000Y-44100000D01*
X47000000Y-45100000D02*
X48000000Y-45100000D01*
X48000000Y-31100000D02*
X47000000Y-31100000D01*
X60000000Y-45100000D02*
X61000000Y-45100000D01*
X61000000Y-31100000D02*
X60000000Y-31100000D01*
X61000000Y-31100000D02*
X61000000Y-32100000D01*
X61000000Y-44100000D02*
X61000000Y-45100000D01*
%TO.C,SW11*%
X209000000Y-32100000D02*
X209000000Y-31100000D01*
X209000000Y-45100000D02*
X209000000Y-44100000D01*
X209000000Y-45100000D02*
X210000000Y-45100000D01*
X210000000Y-31100000D02*
X209000000Y-31100000D01*
X222000000Y-45100000D02*
X223000000Y-45100000D01*
X223000000Y-31100000D02*
X222000000Y-31100000D01*
X223000000Y-31100000D02*
X223000000Y-32100000D01*
X223000000Y-44100000D02*
X223000000Y-45100000D01*
%TO.C,SW33*%
X108200000Y-70200000D02*
X108200000Y-69200000D01*
X108200000Y-83200000D02*
X108200000Y-82200000D01*
X108200000Y-83200000D02*
X109200000Y-83200000D01*
X109200000Y-69200000D02*
X108200000Y-69200000D01*
X121200000Y-83200000D02*
X122200000Y-83200000D01*
X122200000Y-69200000D02*
X121200000Y-69200000D01*
X122200000Y-69200000D02*
X122200000Y-70200000D01*
X122200000Y-82200000D02*
X122200000Y-83200000D01*
%TO.C,SW24*%
X194600000Y-51150000D02*
X194600000Y-50150000D01*
X194600000Y-64150000D02*
X194600000Y-63150000D01*
X194600000Y-64150000D02*
X195600000Y-64150000D01*
X195600000Y-50150000D02*
X194600000Y-50150000D01*
X207600000Y-64150000D02*
X208600000Y-64150000D01*
X208600000Y-50150000D02*
X207600000Y-50150000D01*
X208600000Y-50150000D02*
X208600000Y-51150000D01*
X208600000Y-63150000D02*
X208600000Y-64150000D01*
%TO.C,SW45*%
X101000000Y-89250000D02*
X101000000Y-88250000D01*
X101000000Y-102250000D02*
X101000000Y-101250000D01*
X101000000Y-102250000D02*
X102000000Y-102250000D01*
X102000000Y-88250000D02*
X101000000Y-88250000D01*
X114000000Y-102250000D02*
X115000000Y-102250000D01*
X115000000Y-88250000D02*
X114000000Y-88250000D01*
X115000000Y-88250000D02*
X115000000Y-89250000D01*
X115000000Y-101250000D02*
X115000000Y-102250000D01*
%TO.C,SW47*%
X137000000Y-89250000D02*
X137000000Y-88250000D01*
X137000000Y-102250000D02*
X137000000Y-101250000D01*
X137000000Y-102250000D02*
X138000000Y-102250000D01*
X138000000Y-88250000D02*
X137000000Y-88250000D01*
X150000000Y-102250000D02*
X151000000Y-102250000D01*
X151000000Y-88250000D02*
X150000000Y-88250000D01*
X151000000Y-88250000D02*
X151000000Y-89250000D01*
X151000000Y-101250000D02*
X151000000Y-102250000D01*
%TO.C,SW22*%
X158600000Y-51150000D02*
X158600000Y-50150000D01*
X158600000Y-64150000D02*
X158600000Y-63150000D01*
X158600000Y-64150000D02*
X159600000Y-64150000D01*
X159600000Y-50150000D02*
X158600000Y-50150000D01*
X171600000Y-64150000D02*
X172600000Y-64150000D01*
X172600000Y-50150000D02*
X171600000Y-50150000D01*
X172600000Y-50150000D02*
X172600000Y-51150000D01*
X172600000Y-63150000D02*
X172600000Y-64150000D01*
%TO.C,SW18*%
X86600000Y-51150000D02*
X86600000Y-50150000D01*
X86600000Y-64150000D02*
X86600000Y-63150000D01*
X86600000Y-64150000D02*
X87600000Y-64150000D01*
X87600000Y-50150000D02*
X86600000Y-50150000D01*
X99600000Y-64150000D02*
X100600000Y-64150000D01*
X100600000Y-50150000D02*
X99600000Y-50150000D01*
X100600000Y-50150000D02*
X100600000Y-51150000D01*
X100600000Y-63150000D02*
X100600000Y-64150000D01*
%TD*%
M02*
