M48
; DRILL file KiCad 10.0.3 date 2026-07-02T13:18:18
; FORMAT={-:-/ absolute / metric / decimal}
; #@! TF.CreationDate,2026-07-02T13:18:18-07:00
; #@! TF.GenerationSoftware,Kicad,Pcbnew,10.0.3
; #@! TF.FileFunction,Plated,1,2,PTH
FMAT,2
METRIC
; #@! TA.AperFunction,Plated,PTH,ViaDrill
T1C0.300
; #@! TA.AperFunction,Plated,PTH,ComponentDrill
T2C0.800
; #@! TA.AperFunction,Plated,PTH,ComponentDrill
T3C1.000
; #@! TA.AperFunction,Plated,PTH,ComponentDrill
T4C1.270
%
G90
G05
T1
X211.0Y-104.75
X211.9Y-123.9
X211.9Y-127.6
X224.5Y-105.95
X227.9Y-87.0
X238.1Y-100.8
X239.7Y-104.75
X241.824Y-87.476
X242.5Y-104.7
X243.3Y-90.8
X244.676Y-92.024
X246.4Y-88.6
X247.9Y-86.9
T2
X32.38Y-47.1
X34.18Y-66.15
X35.98Y-85.2
X37.78Y-123.3
X40.0Y-47.1
X41.38Y-104.25
X41.8Y-66.15
X43.6Y-85.2
X45.4Y-123.3
X49.0Y-104.25
X50.38Y-47.1
X53.98Y-66.15
X57.58Y-85.2
X58.0Y-47.1
X61.18Y-123.3
X61.6Y-66.15
X65.2Y-85.2
X68.38Y-47.1
X68.38Y-104.25
X68.8Y-123.3
X71.98Y-66.15
X75.58Y-85.2
X76.0Y-47.1
X76.0Y-104.25
X79.18Y-123.3
X79.6Y-66.15
X83.2Y-85.2
X86.38Y-47.1
X86.38Y-104.25
X86.8Y-123.3
X89.98Y-66.15
X93.58Y-85.2
X94.0Y-47.1
X94.0Y-104.25
X97.6Y-66.15
X101.2Y-85.2
X104.38Y-47.1
X104.38Y-104.25
X107.98Y-66.15
X111.58Y-85.2
X112.0Y-47.1
X112.0Y-104.25
X115.18Y-123.3
X115.6Y-66.15
X119.2Y-85.2
X122.38Y-47.1
X122.38Y-104.25
X122.8Y-123.3
X125.98Y-66.15
X129.58Y-85.2
X130.0Y-47.1
X130.0Y-104.25
X133.6Y-66.15
X137.2Y-85.2
X140.38Y-47.1
X140.38Y-104.25
X143.98Y-66.15
X145.78Y-123.4
X147.58Y-85.2
X148.0Y-47.1
X148.0Y-104.25
X151.6Y-66.15
X153.4Y-123.4
X155.2Y-85.2
X158.38Y-47.1
X158.38Y-104.25
X161.98Y-66.15
X164.68Y-123.4
X165.58Y-85.2
X166.0Y-47.1
X166.0Y-104.25
X169.6Y-66.15
X172.3Y-123.4
X173.2Y-85.2
X176.38Y-47.1
X176.38Y-104.25
X179.98Y-66.15
X180.88Y-123.4
X183.58Y-85.2
X184.0Y-47.1
X184.0Y-104.25
X187.6Y-66.15
X188.5Y-123.4
X191.2Y-85.2
X194.38Y-47.1
X194.38Y-104.25
X197.08Y-123.4
X197.98Y-66.15
X201.58Y-85.2
X202.0Y-47.1
X202.0Y-104.25
X204.7Y-123.4
X205.6Y-66.15
X209.2Y-85.2
X212.38Y-47.1
X212.38Y-104.25
X213.28Y-123.4
X215.98Y-66.15
X218.68Y-85.2
X220.0Y-47.1
X220.0Y-104.25
X220.9Y-123.4
X223.6Y-66.15
X226.3Y-85.2
X229.48Y-47.1
X230.38Y-104.25
X233.08Y-66.15
X234.88Y-85.2
X237.1Y-47.1
X238.0Y-104.25
X240.7Y-66.15
X242.5Y-85.2
X245.68Y-47.1
X249.28Y-66.15
X253.3Y-47.1
X256.9Y-66.15
X257.38Y-104.25
X259.18Y-85.2
X264.58Y-47.1
X265.0Y-104.25
X266.38Y-66.15
X266.8Y-85.2
X272.2Y-47.1
X274.0Y-66.15
T3
X227.97Y-109.51
X227.97Y-127.29
X230.51Y-109.51
X230.51Y-127.29
X233.05Y-109.51
X233.05Y-127.29
X235.59Y-109.51
X235.59Y-127.29
X238.13Y-109.51
X238.13Y-127.29
X240.67Y-109.51
X240.67Y-127.29
X243.21Y-109.51
X243.21Y-127.29
X245.75Y-109.51
X245.75Y-127.29
X248.29Y-109.51
X248.29Y-127.29
X250.83Y-109.51
X250.83Y-127.29
X253.37Y-109.51
X253.37Y-127.29
X255.91Y-109.51
X255.91Y-127.29
X258.45Y-109.51
X258.45Y-127.29
X260.99Y-109.51
X260.99Y-127.29
X263.53Y-109.51
X263.53Y-127.29
X266.07Y-109.51
X266.07Y-127.29
X268.61Y-109.51
X268.61Y-127.29
X271.15Y-109.51
X271.15Y-127.29
X273.69Y-109.51
X273.69Y-127.29
X276.23Y-109.51
X276.23Y-127.29
T4
X31.0Y-41.9
X32.8Y-60.95
X34.6Y-80.0
X36.0Y-44.0
X36.4Y-118.1
X37.8Y-63.05
X39.6Y-82.1
X40.0Y-99.05
X41.4Y-120.2
X45.0Y-101.15
X49.0Y-41.9
X52.6Y-60.95
X54.0Y-44.0
X56.2Y-80.0
X57.6Y-63.05
X59.8Y-118.1
X61.2Y-82.1
X64.8Y-120.2
X67.0Y-41.9
X67.0Y-99.05
X70.6Y-60.95
X72.0Y-44.0
X72.0Y-101.15
X74.2Y-80.0
X75.6Y-63.05
X77.8Y-118.1
X79.2Y-82.1
X82.8Y-120.2
X85.0Y-41.9
X85.0Y-99.05
X88.6Y-60.95
X90.0Y-44.0
X90.0Y-101.15
X92.2Y-80.0
X93.6Y-63.05
X97.2Y-82.1
X103.0Y-41.9
X103.0Y-99.05
X106.6Y-60.95
X108.0Y-44.0
X108.0Y-101.15
X110.2Y-80.0
X111.6Y-63.05
X113.8Y-118.1
X115.2Y-82.1
X118.8Y-120.2
X121.0Y-41.9
X121.0Y-99.05
X124.6Y-60.95
X126.0Y-44.0
X126.0Y-101.15
X128.2Y-80.0
X129.6Y-63.05
X133.2Y-82.1
X139.0Y-41.9
X139.0Y-99.05
X142.6Y-60.95
X144.0Y-44.0
X144.0Y-101.15
X144.4Y-118.1
X146.2Y-80.0
X147.6Y-63.05
X149.4Y-120.2
X151.2Y-82.1
X157.0Y-41.9
X157.0Y-99.05
X160.6Y-60.95
X162.0Y-44.0
X162.0Y-101.15
X163.3Y-118.1
X164.2Y-80.0
X165.6Y-63.05
X168.3Y-120.2
X169.2Y-82.1
X175.0Y-41.9
X175.0Y-99.05
X178.6Y-60.95
X179.5Y-118.1
X180.0Y-44.0
X180.0Y-101.15
X182.2Y-80.0
X183.6Y-63.05
X184.5Y-120.2
X187.2Y-82.1
X193.0Y-41.9
X193.0Y-99.05
X195.7Y-118.1
X196.6Y-60.95
X198.0Y-44.0
X198.0Y-101.15
X200.2Y-80.0
X200.7Y-120.2
X201.6Y-63.05
X205.2Y-82.1
X211.0Y-41.9
X211.0Y-99.05
X211.9Y-118.1
X214.6Y-60.95
X216.0Y-44.0
X216.0Y-101.15
X216.9Y-120.2
X217.3Y-80.0
X219.6Y-63.05
X222.3Y-82.1
X228.1Y-41.9
X229.0Y-99.05
X231.7Y-60.95
X233.1Y-44.0
X233.5Y-80.0
X234.0Y-101.15
X236.7Y-63.05
X238.5Y-82.1
X244.3Y-41.9
X247.9Y-60.95
X249.3Y-44.0
X252.9Y-63.05
X256.0Y-99.05
X257.8Y-80.0
X261.0Y-101.15
X262.8Y-82.1
X263.2Y-41.9
X265.0Y-60.95
X268.2Y-44.0
X270.0Y-63.05
M30
